<svg width="129" height="119" viewBox="0 0 129 119" fill="none" xmlns="http://www.w3.org/2000/svg">
<path d="M94.5361 27.8589C94.6473 27.599 94.5967 27.1973 94.4968 26.8423C94.4016 26.4866 94.231 26.2712 94.0516 26.0868C93.8722 25.9025 93.716 25.8944 93.5991 25.9157C93.4821 25.937 93.4373 26.1377 93.4688 26.2031C93.4956 26.2692 93.6643 26.3703 93.7378 26.2453C93.8112 26.1204 93.883 25.7265 93.8352 25.5736C93.793 25.4249 93.6723 25.4518 93.5119 25.4991C93.3552 25.5409 93.1901 25.589 93.0445 25.7938C92.8988 25.9986 92.7675 26.1765 92.7819 26.5135C92.7962 26.8505 92.8806 27.1479 93.1106 27.4747C93.3407 27.8015 93.6484 28.0776 93.9331 28.1525C94.2178 28.2274 94.4202 28.1194 94.5361 27.8589Z" fill="black" stroke="black"/>
<path d="M79.7506 18.8985C79.8618 18.6386 79.8112 18.2368 79.7113 17.8819C79.6161 17.5262 79.4454 17.3107 79.2661 17.1264C79.0867 16.9421 78.9305 16.934 78.8135 16.9553C78.6966 16.9766 78.6518 17.1773 78.6833 17.2427C78.7101 17.3088 78.8788 17.4099 78.9522 17.2849C79.0257 17.16 79.0975 16.7661 79.0497 16.6132C79.0075 16.4645 78.8868 16.4914 78.7263 16.5387C78.5697 16.5805 78.4046 16.6285 78.2589 16.8334C78.1133 17.0382 77.982 17.2161 77.9963 17.5531C78.0107 17.8901 78.095 18.1874 78.3251 18.5143C78.5552 18.8411 78.8628 19.1172 79.1476 19.1921C79.4323 19.267 79.6346 19.159 79.7506 18.8985Z" fill="black" stroke="black"/>
<path d="M90.7168 14.3441C90.505 14.4145 90.3213 14.5835 89.999 14.9917C89.6768 15.3998 89.5229 15.7209 89.1062 16.3836C88.6882 17.0455 88.4081 17.4916 87.9122 18.3016C87.417 19.1137 87.1419 19.5882 86.6268 20.4371C86.1118 21.2861 85.8367 21.7353 85.3363 22.5475C84.8365 23.3586 84.5817 23.7576 84.1247 24.4953C83.6664 25.2321 83.4392 25.5924 83.047 26.2314C82.6548 26.8704 82.454 27.2097 82.1613 27.6886C81.8674 28.1667 81.7315 28.3128 81.5785 28.6259C81.4268 28.9399 81.4374 29.0648 81.3977 29.2551C81.3568 29.4447 81.344 29.4841 81.3782 29.5746C81.4117 29.6664 81.4717 29.7152 81.5667 29.7114C81.6624 29.7062 81.7089 29.6825 81.852 29.5544C81.9951 29.4263 82.0995 29.3673 82.2823 29.0709C82.4651 28.7745 82.5148 28.5752 82.7656 28.0704C83.0144 27.5662 83.1752 27.2071 83.5298 26.55C83.885 25.8916 84.1015 25.5263 84.5419 24.7818C84.9817 24.0352 85.2327 23.6338 85.7325 22.8228C86.231 22.011 86.508 21.5613 87.0356 20.7236C87.5632 19.8858 87.8516 19.4212 88.3746 18.633C88.8957 17.8453 89.1998 17.4174 89.6453 16.786C90.0896 16.1539 90.3188 15.9031 90.6004 15.4732C90.8832 15.0441 91.0311 14.8631 91.0544 14.6373C91.0777 14.4115 90.9274 14.2729 90.7168 14.3441Z" fill="black" stroke="black"/>
<path d="M23.4896 21.6044C23.6727 21.3733 23.7081 21.0123 23.9265 20.4203C24.145 19.8282 24.2215 19.3325 24.5813 18.6401C24.9365 17.9446 25.1236 17.4975 25.7084 16.9537C26.2925 16.4059 26.6829 16.2347 27.5067 15.9047C28.3311 15.5785 28.8672 15.4697 29.8321 15.3067C30.8005 15.139 31.3595 15.126 32.3377 15.0762C33.32 15.0258 33.8572 15.0325 34.7307 15.0527C35.6088 15.0761 36.0496 15.0995 36.7149 15.1877C37.3768 15.2805 37.6926 15.3494 38.0509 15.5067C38.4051 15.6647 38.4584 15.7431 38.4936 15.9723C38.5328 16.2008 38.5025 16.3257 38.2401 16.6582C37.977 16.9869 37.7422 17.2309 37.1796 17.6233C36.617 18.0158 36.1513 18.2599 35.4264 18.6167C34.7016 18.9735 34.1725 19.101 33.556 19.4111C32.9429 19.7166 32.6594 19.8853 32.3507 20.158C32.042 20.4308 31.9729 20.5185 32.0071 20.7678C32.0406 21.0132 32.1047 21.1616 32.5283 21.3953C32.9513 21.6251 33.3507 21.7275 34.1268 21.92C34.9076 22.1158 35.3931 22.1075 36.4213 22.3562C37.4454 22.6055 38.0506 22.732 39.2516 23.1661C40.452 23.5963 41.1933 23.9106 42.4171 24.5201C43.645 25.1289 44.3295 25.477 45.3794 26.2163C46.4293 26.9557 46.9469 27.4522 47.6671 28.2207C48.3833 28.9899 48.6853 29.3444 48.976 30.0556C49.2707 30.7662 49.2965 31.0688 49.1247 31.7764C48.9488 32.4847 48.6752 32.879 48.1099 33.6029C47.5445 34.3268 47.1803 34.7488 46.2899 35.3974C45.3995 36.046 44.7834 36.3321 43.6647 36.8368C42.5459 37.3415 41.9069 37.6395 40.6996 37.9163C39.4928 38.197 38.7729 38.21 37.6244 38.2254C36.4793 38.2363 35.9343 38.1791 34.9731 37.9906C34.0119 37.8022 33.4926 37.5093 32.8185 37.2831C32.1444 37.0568 31.9466 37.0313 31.606 36.855C31.2701 36.6819 31.27 36.4665 31.1249 36.4079C30.9798 36.3493 30.8679 36.3727 30.8804 36.5619C30.893 36.7511 30.8859 37.0275 31.1877 37.3541C31.49 37.6845 31.6864 37.8619 32.3904 38.2025C33.0951 38.547 33.6656 38.851 34.7097 39.069C35.7538 39.287 36.3699 39.3239 37.6115 39.2963C38.8536 39.2727 39.6193 39.2358 40.9185 38.9391C42.2142 38.647 42.8813 38.3441 44.1005 37.822C45.3157 37.3006 46.0159 37.0518 46.9984 36.3314C47.9849 35.6103 48.4136 35.0975 49.0211 34.2187C49.6287 33.34 49.877 32.8344 50.0437 31.9323C50.207 31.0348 50.1621 30.6079 49.8492 29.725C49.5397 28.8375 49.2653 28.3667 48.4928 27.4996C47.7209 26.6363 47.1098 26.1759 45.9931 25.4043C44.8798 24.6281 44.1792 24.2828 42.9195 23.6277C41.6638 22.9718 40.9241 22.6413 39.7072 22.1302C38.4896 21.6153 37.8792 21.3741 36.8289 21.0615C35.7785 20.7489 35.261 20.6829 34.4542 20.5595C33.6474 20.436 33.2411 20.4226 32.7913 20.4486C32.3416 20.4746 32.2349 20.6127 32.2101 20.6928C32.1846 20.769 32.2995 20.8727 32.6585 20.8464C33.0175 20.8202 33.3211 20.7556 34.0009 20.5622C34.6766 20.3694 35.2386 20.2681 36.046 19.8851C36.8529 19.4982 37.4205 19.1926 38.0362 18.6354C38.6519 18.0782 38.8944 17.6694 39.1285 17.0985C39.3592 16.5322 39.3255 16.259 39.2011 15.798C39.0807 15.3364 38.9652 15.1211 38.5152 14.7963C38.0606 14.4682 37.6864 14.3416 36.9499 14.1661C36.2101 13.9951 35.7417 13.9805 34.8181 13.9291C33.8898 13.8745 33.3508 13.8561 32.3179 13.8994C31.2816 13.9472 30.6939 13.9612 29.651 14.1537C28.604 14.347 28.0382 14.4768 27.0872 14.8648C26.1361 15.2527 25.6339 15.4474 24.8957 16.0935C24.1535 16.7404 23.798 17.2725 23.3883 18.097C22.9747 18.9223 22.9183 19.5222 22.8434 20.217C22.7686 20.9118 22.8811 21.2951 23.0142 21.5711C23.1433 21.8478 23.3064 21.8355 23.4896 21.6044Z" fill="black" stroke="black"/>
<path d="M65.3887 18.3379C65.2711 18.1629 65.0959 18.0696 64.6766 17.891C64.2613 17.7117 63.9856 17.5281 63.3095 17.4498C62.6299 17.3761 62.1545 17.3427 61.289 17.5085C60.4275 17.6736 59.8713 17.7859 58.9812 18.2749C58.0904 18.7601 57.6719 19.1236 56.8416 19.9492C56.008 20.7794 55.4939 21.327 54.8151 22.4135C54.1363 23.4999 53.8197 24.2047 53.4488 25.3894C53.0774 26.5702 52.9281 27.2101 52.9631 28.3246C52.9935 29.4358 53.1572 30.0455 53.6139 30.9513C54.0666 31.8578 54.4064 32.2177 55.2385 32.8552C56.0707 33.4926 56.6829 33.7455 57.7745 34.1387C58.8621 34.5326 59.467 34.711 60.688 34.8186C61.909 34.9262 62.6337 34.8645 63.8824 34.6683C65.1304 34.4682 65.8407 34.2854 66.9252 33.8265C68.0132 33.363 68.4804 33.0747 69.3107 32.3568C70.1409 31.6388 70.5394 31.1711 71.0754 30.229C71.6113 29.2869 71.8432 28.7283 71.9951 27.6493C72.1471 26.5703 72.0204 25.9064 71.8317 24.8385C71.643 23.7707 71.4896 23.2549 71.0556 22.3093C70.6223 21.3675 70.3375 20.8825 69.6712 20.1166C69.005 19.3507 68.482 19.0066 67.7286 18.4791C66.9746 17.9477 66.5595 17.7963 65.8952 17.4727C65.2309 17.1491 64.9125 17.0367 64.4019 16.854C63.8912 16.6712 63.5935 16.5593 63.343 16.5668C63.0931 16.5781 63.0249 16.6976 63.1513 16.903C63.2823 17.1116 63.5499 17.2965 63.9877 17.5956C64.4295 17.8939 64.7406 18.0394 65.3522 18.3961C65.9599 18.7534 66.3491 18.8974 67.035 19.3887C67.7209 19.88 68.1909 20.1735 68.7899 20.8513C69.385 21.5299 69.6412 21.9361 70.0217 22.7754C70.3988 23.6192 70.5113 24.1102 70.6781 25.0622C70.8489 26.0136 70.9729 26.6062 70.8649 27.542C70.7536 28.4824 70.5803 28.939 70.1355 29.7497C69.6861 30.5572 69.3466 30.9789 68.6204 31.5951C67.8935 32.2074 67.4856 32.4255 66.5105 32.8177C65.5319 33.2144 64.867 33.3973 63.7303 33.5701C62.5942 33.7469 61.9331 33.7936 60.8282 33.6898C59.7238 33.5899 59.1867 33.3958 58.2028 33.0597C57.2155 32.7282 56.633 32.534 55.8981 32.0192C55.1598 31.5091 54.8854 31.2535 54.5186 30.5036C54.1484 29.7582 54.0484 29.2412 54.0534 28.2794C54.0624 27.3168 54.1936 26.7478 54.5428 25.6905C54.896 24.6325 55.1784 23.9735 55.8112 22.9907C56.4487 22.011 56.9677 21.5224 57.7162 20.7827C58.4648 20.0431 58.7915 19.6994 59.5466 19.2975C60.3016 18.8957 60.7664 18.887 61.4903 18.7656C62.2147 18.6482 62.5872 18.6834 63.1683 18.7064C63.7527 18.7248 63.9942 18.8465 64.4131 18.8617C64.8327 18.8808 65.0729 18.887 65.2671 18.7817C65.4613 18.6763 65.5069 18.5168 65.3887 18.3379Z" fill="black" stroke="black"/>
<path d="M23.2804 69.1686C23.4534 68.9792 23.6141 68.6284 23.6077 68.2108C23.6054 67.7925 23.4956 67.4806 23.26 67.0747C23.0251 66.6728 22.8543 66.4472 22.4311 66.1895C22.0114 65.9272 21.7284 65.7768 21.1503 65.7732C20.5717 65.7657 20.1843 65.8488 19.5345 66.1567C18.8886 66.4639 18.5787 66.7288 17.916 67.3021C17.2533 67.8754 16.8544 68.2595 16.2203 69.0193C15.5902 69.7783 15.1742 70.2929 14.7507 71.1079C14.3226 71.9197 14.1432 72.4173 14.0936 73.0878C14.0433 73.7545 14.1839 74.0252 14.4959 74.4457C14.8126 74.8694 15.0831 75.0458 15.6671 75.1959C16.2471 75.3467 16.6783 75.3877 17.4081 75.1976C18.1373 75.0035 18.6184 74.7249 19.3178 74.229C20.0211 73.7324 20.3157 73.3943 20.9157 72.7082C21.5164 72.026 21.8218 71.6781 22.3145 70.8033C22.8072 69.9284 23.1145 69.4047 23.3803 68.3419C23.6421 67.2797 23.6389 66.6941 23.6442 65.493C23.6455 64.2925 23.5648 63.6326 23.3949 62.3382C23.2297 61.0469 23.1371 60.3093 22.8093 59.0343C22.4775 57.7599 22.1863 56.9649 21.74 55.9656C21.2937 54.9662 21.0293 54.5335 20.5737 54.0382C20.1182 53.5429 19.8245 53.4302 19.4531 53.4826C19.0816 53.5349 18.881 53.7331 18.7164 54.2999C18.5478 54.8674 18.4927 55.3953 18.6226 56.3219C18.7479 57.2452 18.908 57.8316 19.3606 58.9255C19.8092 60.0202 20.2095 60.6128 20.8729 61.7899C21.5362 62.967 21.8179 63.6998 22.6745 64.8195C23.5352 65.9385 24.1112 66.4927 25.1648 67.3909C26.2185 68.2891 26.8368 68.7164 27.9428 69.3105C29.0487 69.9045 30.0952 70.2457 30.6917 70.3697C31.2917 70.4892 31.3734 70.2956 30.9283 69.922C30.4832 69.5485 29.4812 69.1478 28.4617 68.4989C27.4381 67.8507 26.8192 67.5272 25.8221 66.675C24.8251 65.8229 24.277 65.3157 23.4803 64.2374C22.6836 63.1591 22.4136 62.4483 21.8394 61.2876C21.2652 60.127 20.9858 59.4895 20.6105 58.442C20.2386 57.3899 20.1701 56.8634 19.9656 56.0415C19.757 55.2203 19.6844 54.7743 19.5831 54.3293C19.4811 53.8804 19.4064 53.7698 19.4571 53.8048C19.5119 53.8392 19.6208 53.9839 19.8541 54.5097C20.0875 55.0355 20.241 55.4715 20.6199 56.4347C20.9994 57.4017 21.4068 58.1207 21.7497 59.3333C22.0926 60.546 22.1857 61.2596 22.334 62.494C22.4828 63.7322 22.5141 64.3927 22.4928 65.5169C22.475 66.6365 22.471 67.1476 22.2298 68.1024C21.9881 69.0534 21.7269 69.5014 21.2842 70.2719C20.8421 71.0462 20.5624 71.3738 20.0256 71.9611C19.4853 72.5531 19.1782 72.8096 18.5824 73.2278C17.9906 73.6453 17.5999 73.8405 17.0552 74.0544C16.5065 74.2691 16.2396 74.3033 15.8465 74.2956C15.4535 74.2879 15.2549 74.2306 15.0899 74.0159C14.925 73.8012 14.8657 73.6839 15.0211 73.2183C15.1771 72.7567 15.4169 72.3842 15.8659 71.7084C16.3189 71.0318 16.6971 70.5397 17.2833 69.8441C17.8695 69.1484 18.2338 68.7544 18.7916 68.2232C19.3529 67.6874 19.6101 67.4554 20.082 67.1704C20.5539 66.8853 20.7966 66.8274 21.1429 66.7993C21.4892 66.7712 21.5989 66.8679 21.8142 67.034C22.0254 67.2008 22.0751 67.3636 22.2083 67.6396C22.3448 67.9111 22.3734 68.0975 22.478 68.4024C22.5866 68.7066 22.5757 69.0115 22.7351 69.1634C22.8945 69.3152 23.1033 69.3588 23.2804 69.1686Z" fill="black" stroke="black"/>
<path d="M38.8022 65.3489C39.0531 65.3174 39.307 65.1977 39.7149 64.8719C40.1221 64.5422 40.4323 64.2253 40.8443 63.7114C41.2563 63.1975 41.4647 62.8623 41.7793 62.3054C42.0939 61.7485 42.2663 61.4475 42.4214 60.9262C42.5765 60.4049 42.608 60.1802 42.5587 59.6982C42.5095 59.2163 42.4802 58.9183 42.1752 58.5166C41.8741 58.1141 41.5965 57.891 41.0535 57.686C40.5065 57.4816 40.1191 57.457 39.4569 57.4959C38.7986 57.5341 38.4611 57.5925 37.7582 57.8777C37.0548 58.159 36.5584 58.3645 35.9369 58.9107C35.3154 59.457 35.0276 59.8936 34.6587 60.6074C34.2898 61.3212 34.1898 61.7174 34.0958 62.4753C34.0024 63.2371 33.9717 63.709 34.1992 64.4113C34.4266 65.1136 34.6217 65.4706 35.233 65.9868C35.8444 66.503 36.3675 66.7394 37.2566 66.9962C38.1498 67.2522 38.684 67.3193 39.6944 67.264C40.7013 67.2132 41.26 67.0368 42.3029 66.7366C43.3452 66.4325 43.9458 66.2607 44.9043 65.7599C45.8593 65.2636 46.3396 64.9531 47.0889 64.2452C47.8336 63.5341 48.1691 63.0055 48.6376 62.2146C49.1066 61.4276 49.2586 60.9667 49.4364 60.2979C49.6148 59.633 49.6162 59.2659 49.5238 58.8792C49.4308 58.4885 49.2008 58.2532 48.9807 58.3511C48.7641 58.4445 48.4798 58.7688 48.433 59.3511C48.3869 59.9373 48.4952 60.401 48.7489 61.2742C49.0032 62.1513 49.2082 62.7339 49.6987 63.7256C50.1886 64.7134 50.5734 65.3127 51.2037 66.2204C51.8299 67.1288 52.2811 67.569 52.8412 68.2616C53.4053 68.9534 53.6109 69.2448 54.0121 69.6818C54.4179 70.1219 54.6311 70.3282 54.8577 70.4605C55.0882 70.592 55.1961 70.5694 55.1489 70.3423C55.1057 70.1145 54.984 69.8325 54.6335 69.323C54.287 68.8128 53.9272 68.4843 53.4039 67.7893C52.8852 67.0976 52.5808 66.6997 52.0296 65.8501C51.4784 65.0005 51.1798 64.4262 50.652 63.5406C50.1235 62.6512 49.7802 62.1882 49.3898 61.4185C48.9954 60.6494 48.786 60.3068 48.6843 59.6984C48.5827 59.09 48.7066 58.8492 48.8775 58.377C49.0443 57.9055 49.1212 57.6809 49.5272 57.3434C49.9333 57.0059 50.2675 56.8723 50.9025 56.6826C51.5381 56.4968 51.9279 56.4293 52.704 56.4066C53.4801 56.3839 53.9194 56.4235 54.7844 56.5768C55.6534 56.7294 56.2353 56.8918 57.0406 57.1671C57.8426 57.4469 58.2096 57.6346 58.8091 57.9654C59.4085 58.2963 59.7066 58.4919 60.0417 58.8207C60.3734 59.154 60.5071 59.3263 60.4743 59.623C60.4375 59.9205 60.2641 60.0542 59.8737 60.3052C59.4798 60.5608 59.1822 60.6642 58.5192 60.8866C57.8562 61.1091 57.3971 61.2085 56.5548 61.4181C55.7085 61.6284 55.1713 61.7294 54.2962 61.9407C53.4206 62.1482 52.9379 62.2556 52.1852 62.4577C51.4325 62.6598 50.9916 62.8239 50.532 62.9473C50.0679 63.0675 49.9768 63.0115 49.8777 63.0646C49.7786 63.1176 49.8764 63.2442 50.0279 63.21C50.1788 63.1719 50.5907 63.0608 50.638 62.8851C50.6847 62.7056 50.4671 62.3365 50.2619 62.3162C50.0572 62.2998 49.7405 62.5739 49.6182 62.7985C49.4953 63.0191 49.4532 63.2019 49.6487 63.4272C49.8436 63.6487 50.0264 63.8722 50.5851 63.9111C51.1398 63.9506 51.6404 63.7722 52.4336 63.6189C53.2274 63.4695 53.6657 63.3418 54.5524 63.1524C55.435 62.9637 55.9748 62.9062 56.8555 62.6779C57.7402 62.449 58.2263 62.3369 58.9593 62.0067C59.6889 61.681 60.0574 61.5016 60.5178 61.035C60.9824 60.5678 61.2155 60.2324 61.2698 59.6727C61.3207 59.1176 61.1515 58.7681 60.782 58.2419C60.4125 57.7158 60.0768 57.4908 59.4233 57.0496C58.7658 56.6092 58.3836 56.3763 57.5066 56.0377C56.6336 55.6984 56.008 55.5196 55.0424 55.3558C54.0774 55.1959 53.5837 55.1777 52.6842 55.2298C51.7881 55.2772 51.3173 55.3268 50.5524 55.6108C49.7834 55.8954 49.3556 56.145 48.8511 56.647C48.3459 57.1452 48.2484 57.4771 48.0204 58.1147C47.7965 58.7516 47.6604 59.0742 47.7232 59.8329C47.7861 60.5916 47.9742 61.0375 48.3342 61.9043C48.6941 62.7711 49.0208 63.2329 49.527 64.166C50.0287 65.096 50.3243 65.6509 50.8551 66.5559C51.3893 67.4563 51.6299 67.9489 52.1914 68.6771C52.7568 69.4047 53.129 69.7868 53.6668 70.2001C54.2046 70.6134 54.5461 70.7417 54.8811 70.7475C55.2155 70.7494 55.3494 70.5468 55.3401 70.2175C55.3267 69.8888 55.1426 69.6296 54.8305 69.1015C54.519 68.5772 54.283 68.303 53.7849 67.5838C53.2821 66.8614 52.8853 66.3998 52.331 65.5028C51.7767 64.6059 51.4425 64.0417 51.0052 63.1007C50.5678 62.1596 50.4428 61.5871 50.1448 60.8013C49.8468 60.0155 49.7086 59.6527 49.5117 59.1763C49.3154 58.7039 49.3033 58.4907 49.161 58.4236C49.0147 58.3572 48.9455 58.5247 48.7956 58.8378C48.6422 59.1554 48.6277 59.437 48.4011 60.0026C48.171 60.5728 48.0687 60.9813 47.6468 61.6724C47.2289 62.3628 46.9518 62.8414 46.2996 63.4567C45.6429 64.0689 45.2438 64.3174 44.3815 64.7458C43.5185 65.1704 42.931 65.3199 41.9862 65.5872C41.0419 65.8583 40.5321 66.0303 39.6585 66.0899C38.7803 66.1462 38.3546 66.0604 37.6089 65.8785C36.8626 65.6927 36.4158 65.5228 35.9323 65.1679C35.4488 64.813 35.3276 64.6147 35.1828 64.1014C35.038 63.5882 35.1053 63.1937 35.2071 62.5939C35.3095 61.998 35.3904 61.665 35.6964 61.1056C36.007 60.5494 36.2511 60.232 36.7549 59.8059C37.2547 59.3804 37.6577 59.2109 38.208 58.9801C38.7623 58.7486 39.0223 58.6956 39.5139 58.6464C40.002 58.6017 40.2821 58.6529 40.6596 58.7471C41.0411 58.8405 41.2121 58.9066 41.4086 59.1118C41.6057 59.3209 41.6319 59.4918 41.6405 59.7894C41.6485 60.0831 41.6486 60.2187 41.4496 60.5881C41.2552 60.9607 41.0082 61.1789 40.6626 61.6414C40.3136 62.1086 40.0757 62.413 39.716 62.9178C39.3568 63.4266 39.1139 63.7518 38.8657 64.1776C38.617 64.5994 38.4797 64.8066 38.4667 65.0441C38.453 65.2778 38.5519 65.3843 38.8022 65.3489Z" fill="black" stroke="black"/>
<path d="M72.8185 53.0278C72.8228 52.8676 72.8553 52.6227 72.5551 52.4674C72.2508 52.3127 71.9064 52.165 71.3053 52.2531C70.7036 52.3373 70.278 52.4668 69.5518 52.8956C68.8257 53.3243 68.3061 53.7014 67.6739 54.393C67.0411 55.0808 66.6952 55.5952 66.3903 56.3498C66.086 57.1083 66.0418 57.5187 66.1575 58.1646C66.2725 58.8066 66.4789 59.1297 66.9681 59.5753C67.4566 60.0171 67.8605 60.2024 68.5941 60.3864C69.3317 60.5697 69.8172 60.5614 70.6464 60.4817C71.4757 60.4019 71.9151 60.282 72.7483 59.9862C73.5856 59.6897 74.0768 59.4771 74.8291 59.0039C75.5775 58.5314 75.9468 58.1963 76.5026 57.6256C77.0631 57.058 77.3217 56.7541 77.6183 56.1604C77.9183 55.5622 77.9789 55.2048 77.9919 54.6443C78.0048 54.0838 77.925 53.7786 77.6818 53.3502C77.4352 52.9263 77.1865 52.7302 76.7618 52.5166C76.3338 52.3076 75.9807 52.265 75.5488 52.2999C75.1129 52.3355 74.857 52.4955 74.5857 52.69C74.3145 52.8845 74.2231 53.0957 74.1891 53.277C74.1591 53.4577 74.2722 53.5497 74.4282 53.5985C74.5842 53.6472 74.74 53.5605 74.9765 53.5155C75.2095 53.4752 75.3315 53.4102 75.6009 53.3915C75.8703 53.3727 76.0678 53.3425 76.3199 53.4265C76.5721 53.5104 76.7224 53.5761 76.8662 53.8144C77.0066 54.0572 77.0531 54.2526 77.0248 54.6323C76.9924 55.0127 76.979 55.2742 76.7172 55.7183C76.4507 56.1592 76.2096 56.3884 75.7065 56.8463C75.2034 57.3042 74.8615 57.6027 74.1932 58.0055C73.5255 58.4121 73.09 58.6112 72.3583 58.8694C71.6312 59.1309 71.2484 59.2171 70.5519 59.3018C69.8508 59.3833 69.4606 59.3671 68.8654 59.2788C68.2742 59.1897 67.9572 59.113 67.5886 58.8618C67.2241 58.6099 67.0611 58.4348 67.0312 58.0252C67.0053 57.615 67.1096 57.3537 67.4439 56.8174C67.7781 56.281 68.1298 55.8852 68.7066 55.3427C69.2792 54.8009 69.7371 54.4784 70.316 54.1111C70.8948 53.7437 71.1926 53.6682 71.6002 53.5019C72.0037 53.3364 72.156 53.3339 72.3425 53.2857C72.5289 53.2375 72.4408 53.3086 72.5359 53.2562C72.631 53.2039 72.8136 53.1842 72.8185 53.0278Z" fill="black" stroke="black"/>
<path d="M84.0893 48.8475C83.869 48.7023 83.53 48.5895 82.9985 48.5938C82.467 48.5981 82.0901 48.6952 81.4206 48.8749C80.7551 49.054 80.2793 49.1523 79.671 49.4889C79.0626 49.8255 78.7812 50.1414 78.3784 50.554C77.9762 50.9705 77.8018 51.1243 77.6583 51.5599C77.5108 51.9962 77.4973 52.2577 77.6569 52.7325C77.8164 53.2073 77.9768 53.5264 78.4594 53.9293C78.9426 54.3362 79.3791 54.5198 80.0729 54.7665C80.766 55.0094 81.1362 55.029 81.9304 55.1507C82.7286 55.2717 83.2937 55.3254 84.0512 55.3697C84.8082 55.4101 85.1664 55.3521 85.7117 55.3573C86.257 55.3626 86.5265 55.3718 86.783 55.4031C87.0434 55.4338 87.0445 55.4137 87.0059 55.5121C86.9634 55.6112 86.7967 55.7078 86.5777 55.8933C86.3621 56.0741 86.2647 56.2186 85.9177 56.4302C85.5706 56.6418 85.3324 56.7827 84.8427 56.9513C84.3529 57.1198 84.0298 57.1917 83.4695 57.2767C82.9092 57.3618 82.5301 57.3915 82.0417 57.3804C81.5532 57.3692 81.3465 57.2854 81.0238 57.2256C80.7006 57.162 80.5907 57.1451 80.4225 57.0706C80.2503 56.9967 80.276 56.8686 80.1696 56.8472C80.0592 56.8264 79.9155 56.8314 79.8709 56.9707C79.8263 57.11 79.7906 57.3075 79.9459 57.5398C80.1018 57.776 80.2504 57.9377 80.644 58.1367C81.0341 58.3403 81.306 58.4727 81.9 58.5533C82.4946 58.6378 82.9387 58.6287 83.6157 58.5513C84.2881 58.4708 84.6576 58.3789 85.2666 58.1539C85.8755 57.9288 86.2263 57.7684 86.6564 57.4268C87.0866 57.0851 87.2219 56.8384 87.4174 56.4457C87.6128 56.053 87.6879 55.8167 87.6303 55.4678C87.5691 55.1235 87.4694 54.9573 87.1193 54.7189C86.7692 54.4804 86.4556 54.3992 85.8723 54.2808C85.285 54.1632 84.937 54.2075 84.1942 54.1248C83.456 54.0452 82.9069 53.9888 82.1686 53.8813C81.4342 53.7732 81.1073 53.766 80.5185 53.5848C79.9291 53.3998 79.6246 53.2172 79.2193 52.9684C78.8146 52.7234 78.6598 52.5748 78.493 52.3485C78.3257 52.1183 78.27 52.0242 78.3838 51.8251C78.5016 51.6252 78.6973 51.5834 79.0741 51.3507C79.4508 51.118 79.7179 50.8963 80.2624 50.6545C80.8069 50.4127 81.2214 50.3449 81.8006 50.141C82.3797 49.937 82.6973 49.8023 83.1549 49.6393C83.6125 49.4764 83.9027 49.4859 84.0886 49.3262C84.275 49.1703 84.3056 48.9935 84.0893 48.8475Z" fill="black" stroke="black"/>
<path d="M90.3676 46.9392C90.3747 47.0656 90.4674 46.9977 90.5324 47.126C90.5975 47.2543 90.5351 47.3049 90.6942 47.5884C90.8526 47.868 91.0156 48.0432 91.3304 48.535C91.6457 49.0306 91.843 49.3753 92.2732 50.0544C92.7039 50.7375 93.0199 51.2371 93.4869 51.9417C93.958 52.6457 94.2252 52.9623 94.6131 53.581C95.005 54.199 95.1901 54.5179 95.4337 55.0299C95.6773 55.542 95.7015 55.7532 95.8358 56.1446C95.9696 56.5322 95.9555 56.7898 96.0996 56.9762C96.2437 57.1626 96.4009 57.1114 96.5524 57.0772C96.7039 57.043 96.7917 56.9162 96.8599 56.7967C96.9248 56.6818 97.0316 56.5716 96.8863 56.4851C96.737 56.3993 96.2975 56.3039 96.1227 56.3741C95.9472 56.4403 95.9388 56.681 96.0063 56.8249C96.0737 56.9687 96.2991 57.0932 96.4565 57.0978C96.618 57.1018 96.7323 57.0939 96.8062 56.8499C96.8801 56.6058 96.9073 56.326 96.8261 55.8775C96.7448 55.429 96.6366 55.1806 96.3995 54.6036C96.163 54.0304 95.9932 53.677 95.6464 53.0034C95.3002 52.3336 95.0782 51.9892 94.6626 51.2437C94.243 50.499 93.9896 49.9766 93.5558 49.2741C93.1221 48.5717 92.8742 48.2198 92.486 47.7328C92.0983 47.2496 91.9015 47.0963 91.607 46.8442C91.3166 46.5915 91.2399 46.5489 91.0189 46.4795C90.7973 46.4062 90.6312 46.3991 90.4973 46.4941C90.3668 46.5844 90.3606 46.8128 90.3676 46.9392Z" fill="black" stroke="black"/>
<path d="M91.2307 44.2617C91.3341 44.0484 91.3053 43.7264 91.233 43.4439C91.1648 43.1606 91.0277 42.993 90.8821 42.8507C90.7365 42.7084 90.6043 42.7074 90.5045 42.7286C90.4046 42.7499 90.3596 42.9132 90.384 42.9648C90.4044 43.0171 90.5439 43.0927 90.6105 42.9894C90.6772 42.8862 90.7518 42.5662 90.7166 42.4447C90.6861 42.3264 90.5828 42.3522 90.4451 42.396C90.3109 42.4352 90.1692 42.4797 90.0386 42.6498C89.908 42.82 89.7905 42.9679 89.7908 43.239C89.7912 43.5101 89.8523 43.7467 90.0358 44.002C90.2194 44.2574 90.4706 44.4691 90.7093 44.5195C90.948 44.5698 91.1233 44.4757 91.2307 44.2617Z" fill="black" stroke="black"/>
<path d="M101.754 37.3876C101.608 37.4328 101.53 37.4862 101.423 37.7002C101.316 37.9181 101.252 38.0648 101.219 38.4692C101.19 38.869 101.184 39.0773 101.269 39.7086C101.354 40.3399 101.395 40.8271 101.642 41.6297C101.889 42.4323 102.142 42.8989 102.505 43.7293C102.864 44.5643 103.062 44.9407 103.453 45.7942C103.841 46.6522 104.011 47.1411 104.445 48.007C104.879 48.8768 105.189 49.3615 105.622 50.1399C106.059 50.9175 106.263 51.253 106.622 51.9006C106.982 52.5482 107.149 52.9139 107.416 53.3862C107.687 53.8616 107.801 54.0412 107.972 54.2669C108.142 54.4925 108.241 54.4913 108.273 54.5098C108.309 54.5314 108.194 54.3479 108.153 54.3711C108.111 54.3943 107.997 54.5694 108.068 54.625C108.138 54.6806 108.375 54.7712 108.505 54.6491C108.634 54.523 108.743 54.3447 108.711 54.0033C108.682 53.6573 108.577 53.4523 108.356 52.9283C108.14 52.4075 107.95 52.0575 107.616 51.3857C107.278 50.7145 107.084 50.3653 106.67 49.5796C106.257 48.7977 105.97 48.3212 105.545 47.4656C105.126 46.6131 104.919 46.1544 104.554 45.3085C104.185 44.4632 104.016 44.0618 103.709 43.2418C103.402 42.4217 103.233 41.9684 103.022 41.2115C102.806 40.4513 102.763 40.0121 102.644 39.4506C102.52 38.8858 102.478 38.7177 102.419 38.3889C102.356 38.057 102.39 37.9794 102.337 37.7972C102.288 37.6142 102.283 37.5552 102.167 37.4716C102.047 37.3887 101.904 37.3418 101.754 37.3876Z" fill="black" stroke="black"/>
<path d="M98.8291 51.1405C99.0373 51.1803 99.1426 51.1142 99.6769 50.9938C100.211 50.8734 100.574 50.7627 101.496 50.5353C102.422 50.3111 103.068 50.1394 104.292 49.8637C105.512 49.5848 106.294 49.4096 107.607 49.1504C108.915 48.8879 109.674 48.8044 110.853 48.5604C112.029 48.317 112.671 48.2018 113.496 47.9353C114.317 47.6656 114.684 47.4266 114.957 47.2158C115.231 47.009 115.187 46.9129 114.861 46.8855C114.532 46.8628 114.155 46.984 113.317 47.093C112.476 47.2028 111.843 47.2446 110.664 47.4367C109.485 47.6289 108.743 47.8173 107.418 48.0546C106.096 48.2874 105.31 48.3757 104.054 48.609C102.8 48.8462 102.091 48.9329 101.144 49.2365C100.196 49.5401 99.8133 49.8138 99.3129 50.1277C98.8119 50.4377 98.7375 50.5981 98.641 50.8023C98.5439 51.0025 98.6255 51.104 98.8291 51.1405Z" fill="black" stroke="black"/>
<path d="M13.0522 93.6201C12.9196 93.7507 12.8483 93.8507 12.8097 94.2442C12.7712 94.6377 12.6931 94.9622 12.8592 95.5874C13.0207 96.2094 13.1664 96.6746 13.6237 97.369C14.0849 98.0628 14.4683 98.4908 15.1535 99.0581C15.8393 99.6292 16.2412 99.8826 17.0515 100.217C17.8618 100.551 18.361 100.632 19.197 100.731C20.0296 100.834 20.4381 100.835 21.2292 100.722C22.0209 100.612 22.4519 100.518 23.1498 100.174C23.8437 99.8304 24.1955 99.5422 24.7113 99.0063C25.2225 98.4672 25.4299 98.0445 25.7152 97.4847C25.9964 96.9256 26.0519 96.5611 26.1332 96.2041C26.2145 95.8471 26.0775 95.7074 26.1189 95.7082C26.1597 95.7051 26.1211 95.8833 26.3389 96.2004C26.5607 96.5169 26.7263 96.8431 27.2115 97.2895C27.6966 97.7358 28.0315 98.0367 28.7692 98.4353C29.511 98.8333 30.035 99.0496 30.9154 99.276C31.7912 99.4992 32.2524 99.5748 33.1544 99.5662C34.0571 99.5615 34.5268 99.5041 35.4228 99.2413C36.3194 98.9824 36.8602 98.797 37.633 98.2685C38.4051 97.736 38.7683 97.3342 39.2852 96.5908C39.8016 95.8435 40.0077 95.413 40.216 94.5396C40.4283 93.6655 40.4741 93.1312 40.3346 92.2223C40.195 91.3133 39.9832 90.7399 39.5182 89.995C39.0527 89.2462 38.6476 88.9455 38.0096 88.4977C37.3716 88.0499 37.0243 87.8828 36.3317 87.7515C35.6352 87.6209 35.1585 87.6595 34.5338 87.8355C33.9096 88.0153 33.5872 88.3064 33.2087 88.6351C32.8261 88.9645 32.6933 89.2546 32.6291 89.4811C32.5694 89.7107 32.682 89.7989 32.9019 89.7808C33.1259 89.7619 33.3582 89.5822 33.7381 89.3968C34.122 89.2107 34.3397 88.9895 34.8135 88.8517C35.2873 88.7138 35.6023 88.6155 36.1078 88.7113C36.6175 88.8065 36.8705 88.9501 37.3489 89.3259C37.828 89.7055 38.1374 89.9749 38.5012 90.5978C38.8684 91.2161 39.052 91.6867 39.1791 92.4343C39.3057 93.1779 39.303 93.617 39.1444 94.3303C38.9818 95.0443 38.8005 95.3947 38.3695 95.9997C37.9431 96.6078 37.6409 96.9233 36.9941 97.3583C36.3432 97.794 35.8862 97.9608 35.1238 98.1805C34.3661 98.4034 33.9608 98.4776 33.1988 98.458C32.4334 98.443 32.0461 98.3385 31.3082 98.0995C30.5656 97.8572 30.1253 97.6224 29.4872 97.2544C28.8531 96.8856 28.6149 96.6238 28.1175 96.2594C27.6208 95.8988 27.4205 95.6423 27.0057 95.439C26.5868 95.2364 26.3751 95.1734 26.0325 95.2526C25.6933 95.3273 25.5804 95.4784 25.3031 95.8215C25.0257 96.1646 24.9407 96.4704 24.6533 96.9628C24.3659 97.4552 24.2577 97.8248 23.8655 98.2795C23.4699 98.7387 23.2281 98.964 22.6769 99.2429C22.1257 99.5217 21.7733 99.5907 21.113 99.6692C20.4532 99.7515 20.0895 99.7466 19.3777 99.6506C18.6652 99.5506 18.2212 99.48 17.5519 99.1772C16.8819 98.8705 16.5703 98.6413 16.0296 98.1288C15.4884 97.6124 15.2229 97.1998 14.8507 96.6024C14.4744 96.0056 14.3782 95.6474 14.1645 95.1421C13.9554 94.64 13.9299 94.3932 13.7914 94.0822C13.6523 93.7674 13.6126 93.6706 13.4622 93.577C13.3157 93.4827 13.1802 93.4863 13.0522 93.6201Z" fill="black" stroke="black"/>
<path d="M51.3316 88.9148C51.3896 88.7014 51.4047 88.4236 51.2047 88.1153C51.0053 87.8109 50.7404 87.5896 50.3376 87.3842C49.9354 87.1827 49.72 87.0963 49.1966 87.0992C48.6772 87.1014 48.3004 87.1188 47.7377 87.4037C47.1711 87.6892 46.8717 87.9962 46.3788 88.5202C45.8859 89.0441 45.6499 89.388 45.2691 90.0242C44.8923 90.6596 44.6502 91.0444 44.4895 91.6903C44.3288 92.3362 44.3143 92.7255 44.4609 93.2504C44.6121 93.7785 44.7968 94.0137 45.2317 94.3212C45.6633 94.6332 45.9992 94.6987 46.6295 94.8009C47.2598 94.9031 47.6777 94.9384 48.3839 94.8361C49.0894 94.7299 49.4988 94.5753 50.1625 94.277C50.8222 93.9793 51.1629 93.7808 51.6937 93.342C52.2244 92.9032 52.4674 92.578 52.8157 92.0791C53.1633 91.5763 53.2842 91.2084 53.4321 90.828C53.5845 90.4507 53.4991 90.2701 53.5641 90.1831C53.6297 90.0999 53.5652 90.1908 53.7589 90.4045C53.9492 90.6228 54.1219 90.888 54.5216 91.2614C54.9247 91.6302 55.1555 92.005 55.7683 92.2617C56.3805 92.5146 57.1728 92.5967 57.5878 92.5329C58.0029 92.469 58.0585 92.24 57.8424 91.9345C57.627 91.6329 57.0004 91.3666 56.506 91.0215C56.0157 90.6757 55.8388 90.491 55.3787 90.2078C54.9192 89.9285 54.6353 89.7185 54.2113 89.6164C53.7907 89.5098 53.6099 89.5411 53.2728 89.6832C52.9364 89.8292 52.816 89.9856 52.5278 90.3385C52.2436 90.6908 52.157 91.0128 51.8446 91.4497C51.5315 91.8827 51.4003 92.1566 50.9714 92.5061C50.5424 92.8555 50.2517 92.9775 49.7031 93.1922C49.151 93.4114 48.805 93.4952 48.2171 93.589C47.6333 93.6821 47.2747 93.6564 46.7719 93.6598C46.2726 93.6585 45.9953 93.7065 45.7091 93.5886C45.4229 93.4706 45.3632 93.3773 45.3436 93.0617C45.3194 92.7429 45.3955 92.4865 45.6025 92.008C45.8136 91.5289 46.0347 91.1955 46.3862 90.6641C46.7418 90.1321 46.9847 89.8069 47.3689 89.3536C47.753 88.9003 47.9515 88.6347 48.311 88.397C48.6699 88.1554 48.8882 88.1535 49.1692 88.1567C49.4502 88.1599 49.4818 88.2581 49.7153 88.409C49.9483 88.5561 50.097 88.7457 50.3352 88.8999C50.5773 89.0533 50.7119 89.1775 50.9102 89.1791C51.1124 89.18 51.2736 89.1282 51.3316 88.9148Z" fill="black" stroke="black"/>
<path d="M61.4149 87.0494C61.3498 87.2162 61.3388 87.3059 61.4287 87.6492C61.5225 87.9918 61.614 88.3189 61.8774 88.7717C62.1361 89.2214 62.388 89.4649 62.7364 89.907C63.0888 90.3484 63.2761 90.6549 63.6227 90.9777C63.9692 91.3005 64.1918 91.4334 64.4738 91.5242C64.7513 91.6117 64.9103 91.4925 65.0283 91.4282C65.1463 91.3639 65.0924 91.2815 65.0633 91.1988C65.0341 91.1161 64.9696 91.2071 64.883 91.0187C64.7963 90.8303 64.8189 90.655 64.6345 90.2602C64.4542 89.8648 64.2838 89.5075 63.9772 89.0422C63.6713 88.5808 63.4315 88.3352 63.1029 87.9415C62.7789 87.551 62.6098 87.3091 62.3402 87.0846C62.0706 86.8602 61.9423 86.8305 61.7556 86.823C61.5728 86.8148 61.4807 86.8865 61.4149 87.0494Z" fill="black" stroke="black"/>
<path d="M57.37 79.9382C57.4038 80.1317 57.5396 80.2637 57.7534 80.474C57.9706 80.6796 58.141 80.8495 58.4491 80.9755C58.7566 81.0978 59.0546 81.1578 59.2875 81.0896C59.5245 81.0206 59.6368 80.8656 59.6171 80.6298C59.6014 80.3933 59.4437 80.1454 59.193 79.9097C58.9423 79.674 58.6859 79.535 58.363 79.4473C58.0408 79.3635 57.7772 79.3932 57.5818 79.4908C57.3818 79.5853 57.3315 79.7415 57.37 79.9382Z" fill="black" stroke="black"/>
<path d="M71.7656 77.2226C71.7334 77.2282 71.5434 77.1454 71.4337 77.2641C71.3235 77.3789 71.2175 77.4411 71.2121 77.8089C71.2067 78.1767 71.2776 78.4236 71.4061 79.0992C71.5346 79.7747 71.6356 80.2716 71.8625 81.1853C72.0928 82.0945 72.2594 82.6957 72.5549 83.6533C72.8458 84.6078 73.0025 85.0911 73.3229 85.9687C73.6427 86.8424 73.8613 87.299 74.1556 88.0336C74.4539 88.7675 74.5178 89.1034 74.7995 89.6487C75.0847 90.1895 75.2699 90.4286 75.5791 90.7499C75.8923 91.0705 76.0709 91.1592 76.3564 91.2453C76.6379 91.3322 76.8621 91.2614 76.9984 91.182C77.1387 91.1019 77.1149 90.9465 77.0459 90.8468C76.981 90.7464 76.8164 90.8028 76.6646 90.6736C76.5087 90.5451 76.4682 90.4962 76.2793 90.206C76.0898 89.9118 75.9336 89.7275 75.7187 89.2144C75.5038 88.7014 75.4525 88.3673 75.2048 87.6406C74.9525 86.9107 74.7401 86.4411 74.4664 85.5714C74.1966 84.701 74.0716 84.2361 73.8474 83.286C73.6191 82.3367 73.5261 81.7307 73.3331 80.8231C73.1441 79.9147 73.0586 79.4112 72.8853 78.7394C72.708 78.0683 72.6456 77.796 72.4501 77.463C72.2586 77.1293 72.0885 77.1228 71.917 77.0807C71.745 77.0348 71.6236 77.2113 71.595 77.2402C71.5664 77.2691 71.7983 77.2209 71.7656 77.2226Z" fill="black" stroke="black"/>
<path d="M69.3583 86.073C69.607 86.2692 69.9562 86.448 70.6971 86.5988C71.434 86.7504 71.9521 86.8202 73.0628 86.8272C74.1769 86.8297 74.9874 86.7891 76.2563 86.6173C77.5298 86.4486 78.2265 86.3121 79.4209 85.9777C80.6147 85.6394 81.2204 85.3392 82.2277 84.9415C83.235 84.5438 83.7417 84.3245 84.4528 83.986C85.1646 83.6515 85.3543 83.3554 85.7899 83.2641C86.2255 83.1727 86.3494 83.2549 86.6348 83.5285C86.9162 83.8028 86.9523 84.0916 87.2047 84.6341C87.4565 85.1726 87.6037 85.5938 87.8991 86.2285C88.1986 86.8625 88.299 87.2478 88.6934 87.8016C89.0912 88.3508 89.5535 88.809 89.882 88.9874C90.2105 89.1658 90.3643 89.0395 90.3313 88.6903C90.2983 88.3411 89.9663 87.8444 89.7211 87.2409C89.4758 86.6374 89.3935 86.3166 89.1009 85.6735C88.8049 85.0349 88.6393 84.601 88.2517 84.0381C87.8642 83.4752 87.6654 83.1746 87.1557 82.8641C86.6506 82.5568 86.326 82.4575 85.7097 82.5004C85.0934 82.5433 84.8518 82.7965 84.0783 83.0779C83.3042 83.3555 82.8249 83.5382 81.8363 83.8967C80.8477 84.2553 80.2744 84.5778 79.1367 84.8785C77.9984 85.1752 77.3536 85.2749 76.1431 85.3968C74.932 85.5147 74.1456 85.4435 73.0794 85.4846C72.0138 85.5295 71.5377 85.572 70.8122 85.602C70.0906 85.6312 69.75 85.5346 69.4592 85.6288C69.1684 85.7231 69.1141 85.88 69.3583 86.073Z" fill="black" stroke="black"/>
<path d="M86.3088 80.706C86.273 80.8756 86.369 80.9906 86.4658 81.1373C86.5672 81.2872 86.6114 81.3873 86.8013 81.4421C86.9866 81.4938 87.2127 81.5423 87.3993 81.4143C87.5899 81.2856 87.743 81.0199 87.7458 80.7961C87.7486 80.5723 87.5614 80.4014 87.4172 80.2947C87.277 80.1874 87.186 80.267 87.0332 80.2655C86.8803 80.2641 86.8001 80.1982 86.6569 80.2868C86.5138 80.3754 86.3486 80.5356 86.3088 80.706Z" fill="black" stroke="black"/>
<path d="M96.5276 82.4059C96.4456 82.6235 96.4815 82.8844 96.574 83.299C96.6632 83.7182 96.7578 83.985 96.9835 84.4882C97.2093 84.9914 97.3658 85.4468 97.7086 85.826C98.0549 86.2007 98.3583 86.2957 98.708 86.3708C99.0584 86.4497 99.1957 86.3501 99.4621 86.2043C99.7325 86.0578 99.8135 85.968 100.052 85.6436C100.291 85.3152 100.435 85.0709 100.661 84.5812C100.886 84.0877 100.951 83.7017 101.184 83.1788C101.418 82.6598 101.509 82.3929 101.829 81.9825C102.149 81.5682 102.383 81.4001 102.786 81.1191C103.188 80.8381 103.432 80.7081 103.836 80.5704C104.24 80.4366 104.455 80.3874 104.808 80.43C105.162 80.4764 105.278 80.56 105.61 80.7896C105.946 81.0185 106.126 81.1908 106.487 81.5828C106.852 81.9703 106.972 82.2685 107.424 82.7444C107.881 83.2235 108.192 83.5007 108.758 83.961C109.319 84.422 109.572 84.7809 110.237 85.0526C110.898 85.3251 111.664 85.3757 112.069 85.3256C112.474 85.2754 112.506 85.0546 112.253 84.8033C112.004 84.5513 111.34 84.4152 110.807 84.0647C110.274 83.7104 110.082 83.4766 109.594 83.0426C109.103 82.6093 108.814 82.3403 108.365 81.8838C107.915 81.4273 107.778 81.1559 107.342 80.7608C106.906 80.3658 106.666 80.1682 106.188 79.9079C105.712 79.6515 105.497 79.5412 104.966 79.4696C104.436 79.4019 104.104 79.4155 103.545 79.5641C102.987 79.7165 102.692 79.8912 102.166 80.2294C101.645 80.5708 101.378 80.7886 100.935 81.2601C100.492 81.7355 100.29 82.0336 99.9561 82.5979C99.622 83.1621 99.4494 83.5429 99.2588 84.0743C99.0687 84.6096 99.0412 84.9135 99.0041 85.2628C98.9675 85.6161 99.0595 85.7317 99.0756 85.8366C99.0917 85.9415 99.1199 85.9366 99.0846 85.7872C99.0487 85.6339 99.0495 85.4783 98.8979 85.0818C98.7462 84.6854 98.5899 84.2579 98.3185 83.8065C98.051 83.3543 97.8246 83.1423 97.5573 82.8257C97.2901 82.5091 97.1884 82.3034 96.9857 82.2189C96.779 82.1351 96.6103 82.1922 96.5276 82.4059Z" fill="black" stroke="black"/>
<path d="M120.528 81.8514C120.402 81.8892 120.453 81.8964 120.294 82.0195C120.136 82.1466 119.99 82.2157 119.736 82.471C119.483 82.7301 119.326 82.9687 119.023 83.3043C118.724 83.6392 118.495 83.8423 118.228 84.1437C117.957 84.4498 117.788 84.6664 117.686 84.8317C117.583 84.9931 117.642 85.0586 117.71 84.9631C117.778 84.8676 117.912 84.6929 118.025 84.3582C118.136 84.0281 118.197 83.7264 118.262 83.2925C118.323 82.8592 118.349 82.5715 118.337 82.1988C118.33 81.8253 118.248 81.5921 118.211 81.4272C118.178 81.2654 118.107 81.2617 118.159 81.3844C118.21 81.5031 118.241 81.6772 118.468 82.0247C118.694 82.3684 118.848 82.6247 119.289 83.1066C119.735 83.5878 120.063 83.9017 120.682 84.4366C121.304 84.9709 121.708 85.2359 122.386 85.7844C123.06 86.3336 123.468 86.574 124.067 87.172C124.671 87.7733 124.989 88.1211 125.395 88.7765C125.8 89.4281 125.998 89.7526 126.1 90.4447C126.206 91.1322 126.133 91.4917 125.908 92.2285C125.683 92.9653 125.449 93.4285 124.971 94.1293C124.488 94.827 124.143 95.082 123.509 95.7302C122.869 96.3752 122.464 96.7723 121.779 97.3615C121.094 97.9506 120.801 98.2446 120.084 98.6758C119.365 99.1032 118.949 99.267 118.186 99.5107C117.423 99.7505 117.017 99.8448 116.268 99.8866C115.52 99.9285 115.069 99.843 114.444 99.7161C113.818 99.5892 113.528 99.4239 113.135 99.2567C112.743 99.0933 112.677 99.037 112.477 98.8883C112.28 98.7388 112.273 98.5566 112.146 98.5069C112.019 98.4572 111.882 98.4808 111.84 98.6395C111.802 98.7937 111.794 99.0065 111.953 99.2939C112.109 99.5859 112.189 99.7834 112.627 100.082C113.065 100.385 113.415 100.624 114.149 100.808C114.883 100.992 115.429 101.057 116.304 101.005C117.174 100.95 117.636 100.818 118.505 100.536C119.374 100.258 119.84 100.07 120.643 99.6038C121.45 99.1371 121.785 98.8238 122.528 98.2087C123.27 97.5898 123.674 97.2128 124.355 96.5167C125.041 95.8199 125.417 95.5314 125.945 94.7262C126.473 93.921 126.749 93.3828 126.988 92.4921C127.227 91.6015 127.261 91.1289 127.142 90.2723C127.019 89.4164 126.818 88.9926 126.38 88.2111C125.947 87.4289 125.592 87.0277 124.965 86.3547C124.333 85.6786 123.905 85.4177 123.238 84.8353C122.568 84.2537 122.208 83.981 121.622 83.4444C121.041 82.9109 120.783 82.5968 120.323 82.1541C119.863 81.7113 119.707 81.503 119.323 81.2267C118.942 80.9536 118.768 80.8123 118.413 80.7821C118.061 80.7473 117.838 80.8297 117.558 81.0697C117.282 81.3129 117.185 81.5728 117.023 81.9918C116.856 82.4114 116.784 82.6911 116.737 83.1657C116.694 83.6396 116.712 83.9436 116.796 84.3557C116.884 84.7672 116.933 84.9819 117.164 85.2211C117.391 85.4649 117.555 85.568 117.937 85.5577C118.32 85.5513 118.641 85.436 119.08 85.1805C119.523 84.9243 119.781 84.6683 120.15 84.2814C120.516 83.8951 120.712 83.6379 120.915 83.2438C121.123 82.8529 121.176 82.6084 121.178 82.325C121.18 82.0416 121.054 81.9198 120.924 81.8267C120.79 81.7303 120.654 81.8097 120.528 81.8514Z" fill="black" stroke="black"/>
</svg>
