<svg width="102" height="129" viewBox="0 0 102 129" fill="none" xmlns="http://www.w3.org/2000/svg">
<path d="M27.2274 13.6326C27.0465 13.532 26.8088 13.4821 26.3299 13.4827C25.8536 13.4833 25.5252 13.451 24.8405 13.6358C24.1533 13.8206 23.6756 13.9707 22.9042 14.4041C22.1326 14.8402 21.7182 15.1298 20.9858 15.8057C20.2533 16.4842 19.8595 16.8991 19.2419 17.7941C18.6269 18.6891 18.3236 19.2168 17.9008 20.2779C17.4779 21.3416 17.2965 21.9691 17.1277 23.1075C16.9615 24.2459 16.9369 24.8649 17.0598 25.9644C17.1827 27.064 17.3244 27.6421 17.7399 28.605C18.1528 29.5678 18.4619 30.0454 19.1296 30.7758C19.7998 31.5063 20.2179 31.8335 21.0783 32.2572C21.941 32.6838 22.5467 32.7884 23.4386 32.9029C24.3305 33.0175 24.8388 32.9549 25.5429 32.8301C26.2468 32.708 26.6845 32.4568 26.9584 32.29C27.2299 32.1204 27.1974 32.0221 26.9048 31.9903C26.6148 31.9586 26.1715 32.0901 25.5005 32.1339C24.8269 32.1777 24.3741 32.2982 23.5448 32.2064C22.7156 32.1146 22.1485 32.0486 21.3491 31.6747C20.5496 31.3035 20.1705 31.0095 19.5502 30.3423C18.9299 29.6751 18.6365 29.2331 18.2477 28.3386C17.8588 27.4441 17.7201 26.9013 17.6058 25.8698C17.4892 24.8356 17.5095 24.2464 17.6719 23.1704C17.8344 22.0943 18.0116 21.494 18.4206 20.4898C18.8295 19.4883 19.1186 18.9848 19.7169 18.1547C20.3126 17.3246 20.697 16.9395 21.3991 16.3392C22.1038 15.739 22.5042 15.5117 23.23 15.1563C23.9582 14.801 24.4019 14.7483 25.033 14.5599C25.6614 14.3741 25.9424 14.3432 26.3823 14.2252C26.8222 14.1071 27.0587 14.0918 27.2297 13.975C27.3983 13.8554 27.4058 13.7305 27.2274 13.6326Z" fill="black" stroke="black"/>
<path d="M35.1242 7.72023C35.0896 8.33368 35.209 9.281 35.2974 10.7386C35.3832 12.1988 35.4643 13.2271 35.5609 15.0162C35.6575 16.8054 35.7018 17.9336 35.7853 19.6845C35.8663 21.4354 35.8999 22.3188 35.9733 23.7708C36.0468 25.2227 36.0771 25.9051 36.1524 26.9468C36.2277 27.9858 36.2624 28.3857 36.3472 28.9738C36.4347 29.5593 36.5 29.7071 36.5841 29.8823C36.6657 30.0574 36.7175 30.0474 36.7626 29.8525C36.8053 29.6548 36.8251 29.4975 36.8022 28.9022C36.7794 28.3069 36.7341 27.9122 36.6507 26.8785C36.5649 25.8421 36.4776 25.1697 36.3808 23.7228C36.2866 22.276 36.2579 21.3953 36.1719 19.6444C36.0858 17.8934 36.0467 16.7626 35.9502 14.9734C35.8538 13.1816 35.7883 12.1482 35.6922 10.6905C35.596 9.23275 35.5826 8.2708 35.47 7.67677C35.3574 7.08274 35.1612 7.10953 35.1242 7.72023Z" fill="black" stroke="black"/>
<path d="M42.942 16.9879C42.9043 17.3568 42.9878 17.839 43.0755 18.7586C43.1631 19.681 43.2862 20.354 43.3855 21.5917C43.4848 22.8266 43.5231 23.6749 43.5745 24.9417C43.6258 26.2085 43.6116 26.9092 43.6396 27.9258C43.6677 28.9423 43.6611 29.3904 43.7148 30.027C43.7684 30.6636 43.8259 30.8981 43.9079 31.1086C43.9872 31.3218 44.0489 31.3173 44.1163 31.0929C44.1837 30.8684 44.216 30.6299 44.2422 29.9864C44.2656 29.3456 44.2593 28.9 44.2392 27.8781C44.2215 26.8591 44.1972 26.1605 44.1438 24.8855C44.0876 23.6131 44.0574 22.7596 43.9639 21.5111C43.8731 20.2627 43.8181 19.5636 43.6765 18.6458C43.5376 17.7254 43.413 17.2452 43.264 16.9142C43.1176 16.5831 42.9797 16.619 42.942 16.9879Z" fill="black" stroke="black"/>
<path d="M43.9169 5.28301C43.86 5.3772 43.9143 5.5791 44.0092 5.61863C44.1041 5.65816 44.3293 5.57748 44.3862 5.48329C44.4431 5.3891 44.3887 5.1872 44.2938 5.14767C44.1989 5.10814 43.9736 5.19153 43.9169 5.28301Z" fill="black" stroke="black"/>
<path d="M51.0526 23.9998C51.2033 24.0918 51.4207 24.1795 51.8006 24.123C52.1803 24.0692 52.4605 24.0084 52.9466 23.7199C53.4351 23.4342 53.7599 23.2301 54.2358 22.6861C54.709 22.1447 54.9489 21.7355 55.3182 21.0078C55.6875 20.2801 55.8479 19.8289 56.0794 19.0501C56.3111 18.2686 56.4111 17.8437 56.4759 17.1111C56.5381 16.3813 56.539 15.9847 56.3981 15.3929C56.2597 14.8039 56.1171 14.4947 55.7817 14.1552C55.4463 13.8158 55.1871 13.6976 54.7237 13.6958C54.2605 13.6912 53.9508 13.7732 53.4627 14.1378C52.9721 14.4995 52.6749 14.7991 52.2756 15.5155C51.879 16.2292 51.7249 16.743 51.4715 17.7143C51.2183 18.683 51.1059 19.2707 51.0086 20.3695C50.9116 21.4655 50.8854 22.109 50.9856 23.2027C51.086 24.2937 51.1909 24.8877 51.5076 25.8326C51.8217 26.7776 52.0525 27.2376 52.564 27.9249C53.0728 28.6148 53.4053 28.9189 54.0547 29.2741C54.7041 29.6294 55.0983 29.7171 55.8111 29.7011C56.5241 29.6825 56.9329 29.5721 57.6195 29.1862C58.3086 28.8004 58.6552 28.4907 59.2543 27.772C59.8534 27.0561 60.1268 26.5578 60.6173 25.6038C61.1079 24.6497 61.3292 24.0392 61.7042 23.0046C62.0793 21.97 62.2341 21.3584 62.49 20.4306C62.7433 19.5027 62.869 19.0347 62.9734 18.368C63.0805 17.6986 63.0535 17.3831 63.0228 17.0865C62.9946 16.7899 62.9101 16.7478 62.8277 16.8823C62.7451 17.0196 62.6552 17.2355 62.6154 17.7674C62.5755 18.2993 62.5895 18.7016 62.6256 19.5443C62.6642 20.3871 62.7555 20.9944 62.8007 21.9813C62.8485 22.9683 62.8457 23.5659 62.8597 24.4763C62.8739 25.3839 62.8267 25.8667 62.8738 26.5277C62.9208 27.1886 62.9693 27.4882 63.0977 27.7782C63.2234 28.0708 63.3282 28.116 63.5077 27.9857C63.6873 27.8527 63.8059 27.6698 63.9952 27.124C64.182 26.5754 64.2448 26.1308 64.4494 25.2457C64.6541 24.3605 64.7309 23.726 65.0188 22.6927C65.3066 21.6621 65.4879 21.0347 65.8884 20.0874C66.2888 19.1428 66.5646 18.6473 67.0232 17.9671C67.4843 17.2871 67.7369 17.0058 68.1868 16.6814C68.6365 16.3597 68.8529 16.2952 69.2695 16.3507C69.6863 16.4034 69.8759 16.5287 70.2753 16.9533C70.6746 17.378 70.8911 17.6938 71.2666 18.4713C71.6422 19.2461 71.8466 19.8035 72.1476 20.8379C72.4514 21.8696 72.5724 22.5344 72.78 23.6326C72.9877 24.728 73.0497 25.3946 73.1861 26.315C73.3248 27.2381 73.3608 27.6598 73.4716 28.2402C73.58 28.8179 73.6421 29.0199 73.7358 29.2061C73.8295 29.3923 73.8863 29.3851 73.9427 29.1713C73.9965 28.9603 74.0301 28.7435 74.0074 28.1454C73.9873 27.5474 73.9675 27.1124 73.8397 26.1786C73.7144 25.2447 73.593 24.5853 73.376 23.4735C73.1591 22.3616 73.0487 21.6889 72.7551 20.6165C72.4617 19.5415 72.3056 18.9468 71.9085 18.1038C71.5116 17.258 71.282 16.8632 70.7701 16.3933C70.2582 15.9234 69.9354 15.7988 69.3546 15.7489C68.7765 15.6963 68.447 15.7672 67.8717 16.1331C67.2991 16.4963 66.9974 16.8284 66.484 17.5674C65.9705 18.3092 65.7305 18.8461 65.3046 19.8337C64.8788 20.8186 64.6969 21.4542 64.3546 22.4975C64.0122 23.5435 63.8212 24.1599 63.593 25.0529C63.3648 25.9458 63.2707 26.4008 63.2108 26.9676C63.1509 27.5345 63.2381 27.7424 63.2982 27.8927C63.3558 28.0403 63.4405 27.9955 63.5089 27.7113C63.5748 27.4271 63.6186 27.1262 63.6379 26.469C63.6572 25.8119 63.6145 25.3331 63.603 24.4227C63.589 23.5124 63.5791 22.9146 63.5727 21.9201C63.5663 20.9257 63.6094 20.2988 63.5762 19.4506C63.5432 18.5997 63.5136 18.1999 63.4074 17.6712C63.3011 17.1425 63.1983 16.9371 63.0423 16.8069C62.8864 16.6741 62.7811 16.7213 62.6228 17.0095C62.4645 17.2977 62.411 17.5903 62.2563 18.2426C62.1015 18.8949 62.0731 19.3645 61.8465 20.2738C61.6197 21.1857 61.478 21.7921 61.1227 22.7971C60.7648 23.8021 60.5341 24.3989 60.0596 25.2989C59.585 26.2015 59.3014 26.6562 58.7479 27.2968C58.1968 27.9402 57.8834 28.1689 57.2997 28.5047C56.7134 28.8405 56.4068 28.9552 55.8241 28.9787C55.244 29.0021 54.9387 28.9267 54.3909 28.6274C53.8431 28.3281 53.5427 28.087 53.08 27.482C52.6174 26.8743 52.3785 26.4631 52.0804 25.5917C51.78 24.7176 51.6685 24.1481 51.5801 23.1116C51.4892 22.075 51.517 21.4479 51.6338 20.4065C51.7506 19.3651 51.8826 18.7912 52.1594 17.899C52.4361 17.0096 52.6694 16.5813 53.0176 15.9483C53.3682 15.3181 53.5625 15.0685 53.9024 14.7424C54.2396 14.4162 54.4259 14.3431 54.7117 14.3177C54.9976 14.2896 55.1371 14.3543 55.3369 14.6074C55.5341 14.8604 55.6303 15.0901 55.7005 15.5803C55.7707 16.0704 55.773 16.4127 55.6904 17.058C55.6053 17.7033 55.5093 18.1039 55.2797 18.8093C55.0501 19.5148 54.881 19.9387 54.5421 20.5881C54.2006 21.2375 53.9824 21.5845 53.58 22.0563C53.1751 22.5254 52.9132 22.6653 52.5254 22.9363C52.1377 23.2073 51.9397 23.2639 51.6443 23.406C51.3461 23.5507 51.1602 23.5342 51.0404 23.6519C50.9232 23.7696 50.8996 23.905 51.0526 23.9998Z" fill="black" stroke="black"/>
<path d="M80.304 3.32075C80.2331 3.56143 80.2196 3.78399 80.2446 4.47173C80.2695 5.15947 80.3473 5.60896 80.4289 6.75672C80.508 7.90445 80.5616 8.66871 80.6448 10.2132C80.7281 11.7549 80.7587 12.7307 80.8425 14.4762C80.9289 16.2217 80.9805 17.2305 81.0743 18.9381C81.1707 20.6457 81.233 21.5623 81.3216 23.0171C81.4104 24.4693 81.4532 25.2008 81.5203 26.207C81.5851 27.2106 81.594 27.5286 81.653 28.0348C81.7118 28.5438 81.7805 28.5938 81.8151 28.741C81.8499 28.8855 81.8143 28.7546 81.8184 28.7709C81.8252 28.7846 81.7977 28.8168 81.8362 28.8147C81.8775 28.8099 81.9579 28.9198 82.0244 28.7525C82.0883 28.585 82.1573 28.5019 82.1609 27.9776C82.1643 27.456 82.122 27.1402 82.0368 26.1364C81.9516 25.1326 81.8544 24.4111 81.7373 22.9612C81.6201 21.514 81.555 20.6002 81.4559 18.8952C81.3568 17.1902 81.3103 16.1815 81.2444 14.4363C81.1761 12.6883 81.1633 11.7155 81.1213 10.1663C81.0768 8.61705 81.0722 7.84812 81.0322 6.69014C80.9896 5.53213 81.0028 5.05962 80.9136 4.3763C80.8271 3.69031 80.7169 3.47939 80.594 3.26826C80.4736 3.05717 80.3749 3.08007 80.304 3.32075Z" fill="black" stroke="black"/>
<path d="M80.7724 16.5643C80.8479 16.6279 80.8757 16.6338 81.0394 16.6364C81.2056 16.6417 81.3087 16.6297 81.5929 16.588C81.8771 16.5463 82.0399 16.481 82.4579 16.4278C82.8784 16.3773 83.1357 16.3569 83.6857 16.3248C84.2383 16.29 84.6045 16.2904 85.2131 16.2619C85.8243 16.2335 86.2159 16.2369 86.7389 16.1854C87.262 16.1312 87.6093 16.104 87.8332 16.0016C88.0596 15.8992 88.0706 15.8016 87.8631 15.676C87.658 15.5533 87.3229 15.4638 86.8004 15.3795C86.2756 15.2924 85.8731 15.2589 85.2488 15.2491C84.622 15.2393 84.2476 15.2904 83.6769 15.3276C83.1034 15.3675 82.8364 15.3796 82.3869 15.4432C81.9349 15.5067 81.7331 15.5416 81.4218 15.6508C81.113 15.76 80.9867 15.8585 80.8352 15.992C80.6813 16.1227 80.669 16.1986 80.657 16.3125C80.645 16.4264 80.6944 16.4978 80.7724 16.5643Z" fill="black" stroke="black"/>
<path d="M13.0933 50.7413C12.9898 50.5903 12.8251 50.4763 12.461 50.3157C12.0967 50.1578 11.8516 50.0181 11.2699 49.9411C10.6881 49.864 10.2664 49.8085 9.55478 49.9304C8.84302 50.055 8.43843 50.1818 7.71123 50.5616C6.98658 50.9414 6.57922 51.1985 5.92149 51.8266C5.26376 52.4547 4.92361 52.8704 4.41969 53.7074C3.91593 54.5417 3.69011 55.0571 3.40492 56.0034C3.11972 56.9498 3.02703 57.508 2.98842 58.442C2.94981 59.376 2.98493 59.8954 3.21185 60.6733C3.4386 61.4538 3.65691 61.824 4.12729 62.3449C4.59784 62.8631 4.92256 63.0828 5.56186 63.2667C6.20372 63.4507 6.61223 63.4707 7.33148 63.2647C8.04833 63.0559 8.4581 62.8016 9.15058 62.2338C9.84307 61.666 10.1883 61.2503 10.7965 60.4258C11.4023 59.5986 11.698 59.0708 12.1864 58.1086C12.6725 57.1436 12.888 56.5439 13.2261 55.6119C13.5644 54.6772 13.7397 54.1502 13.8772 53.4433C14.0124 52.7336 13.9717 52.3906 13.9092 52.0691C13.8493 51.7476 13.7071 51.6856 13.5673 51.8382C13.4274 51.9909 13.2817 52.2412 13.2076 52.8296C13.131 53.4179 13.1325 53.9016 13.1893 54.7827C13.246 55.6638 13.3626 56.2769 13.4917 57.2326C13.6209 58.1855 13.6722 58.7758 13.8355 59.5472C13.9987 60.3214 14.1543 60.7965 14.3054 61.0923C14.459 61.3881 14.5528 61.3625 14.5989 61.0236C14.6476 60.6847 14.6062 60.1842 14.5436 59.3981C14.4811 58.6119 14.37 58.037 14.289 57.0902C14.2079 56.1462 14.1838 55.5291 14.1335 54.6671C14.0805 53.8078 14.1003 53.3544 14.0318 52.7937C13.9635 52.2302 13.8977 52.0064 13.7916 51.8553C13.6855 51.7042 13.6365 51.7524 13.5039 52.0383C13.3714 52.3242 13.3102 52.6166 13.1287 53.2875C12.9472 53.9584 12.8971 54.4901 12.599 55.3956C12.2984 56.3009 12.0936 56.8927 11.6306 57.8145C11.1676 58.7364 10.8656 59.2424 10.2842 60.0048C9.70269 60.77 9.35048 61.1312 8.72605 61.6321C8.10163 62.133 7.75227 62.3204 7.15953 62.5094C6.56936 62.6985 6.26905 62.7101 5.7651 62.5744C5.26116 62.4388 5.00783 62.2664 4.63708 61.834C4.26361 61.4043 4.09781 61.0975 3.90592 60.418C3.71146 59.7384 3.64184 59.2809 3.66752 58.4337C3.69304 57.5891 3.77113 57.0606 4.03398 56.1872C4.29667 55.3166 4.51285 54.8336 4.98387 54.0749C5.45249 53.3134 5.77242 52.9354 6.38173 52.3881C6.98848 51.8407 7.36969 51.6348 8.02305 51.3326C8.67642 51.0305 9.02096 50.9652 9.64599 50.8773C10.2683 50.792 10.6172 50.8654 11.1401 50.9008C11.663 50.9334 11.8887 51.0131 12.258 51.046C12.6273 51.079 12.8164 51.1282 12.9839 51.0683C13.1514 51.0085 13.1994 50.8924 13.0933 50.7413Z" fill="black" stroke="black"/>
<path d="M20.8816 51.1491C20.8139 51.379 20.8086 51.5935 20.8413 52.2379C20.874 52.8823 20.9461 53.2991 21.0427 54.3683C21.142 55.4349 21.225 56.1371 21.3298 57.5787C21.4347 59.0175 21.4616 59.8846 21.5619 61.5705C21.6647 63.2566 21.73 64.2492 21.839 66.0033C21.9453 67.7573 22.0224 68.7256 22.0988 70.3406C22.1753 71.9529 22.1744 72.8141 22.2159 74.0753C22.2573 75.3366 22.2571 75.975 22.3086 76.6469C22.3601 77.3187 22.4161 77.2815 22.4757 77.4401C22.5354 77.5959 22.5506 77.5988 22.6094 77.4313C22.668 77.2665 22.7562 77.2896 22.7719 76.608C22.7874 75.929 22.7414 75.2925 22.6846 74.0311C22.6278 72.7696 22.5825 71.9104 22.4881 70.2978C22.3938 68.6826 22.3167 67.7142 22.2154 65.9603C22.1116 64.2063 22.049 63.211 21.9718 61.5254C21.8947 59.837 21.8857 58.9702 21.8275 57.5213C21.7718 56.0724 21.7483 55.3602 21.6856 54.2806C21.6229 53.2011 21.6161 52.7636 21.5115 52.1235C21.4092 51.4862 21.2986 51.2834 21.1721 51.0885C21.0456 50.8936 20.9467 50.9192 20.8816 51.1491Z" fill="black" stroke="black"/>
<path d="M21.6876 51.7514C21.8721 51.6646 22.0484 51.4174 22.3123 51.12C22.5761 50.8226 22.7236 50.5859 23.0095 50.2616C23.2957 49.9347 23.4449 49.7115 23.7399 49.4907C24.035 49.2698 24.1728 49.1932 24.4851 49.1519C24.8001 49.1107 24.9681 49.1269 25.3066 49.2871C25.6425 49.45 25.8375 49.5699 26.1674 49.9581C26.4971 50.3491 26.6747 50.6317 26.9505 51.2365C27.2288 51.8413 27.4039 52.2488 27.5538 52.9874C27.7037 53.726 27.7489 54.1641 27.7024 54.9322C27.6584 55.7004 27.5656 56.1336 27.3317 56.8255C27.1003 57.5173 26.9306 57.8678 26.5428 58.3942C26.155 58.9206 25.8799 59.1499 25.3974 59.4629C24.9126 59.7731 24.6096 59.8716 24.1206 59.9536C23.6319 60.0328 23.3673 60.0042 22.9503 59.87C22.5335 59.733 22.3234 59.5232 22.0365 59.2715C21.7468 59.0224 21.6806 58.8475 21.5078 58.6138C21.335 58.3802 21.2902 58.1893 21.1749 58.106C21.0594 58.0254 20.9664 58.0402 20.9282 58.2054C20.89 58.3705 20.8687 58.5956 20.9866 58.9317C21.1046 59.2677 21.1775 59.5432 21.5232 59.8828C21.8664 60.2197 22.1694 60.4608 22.7047 60.6268C23.2401 60.7928 23.5898 60.8119 24.1976 60.7128C24.8079 60.6137 25.1685 60.4944 25.7542 60.126C26.3373 59.7575 26.6641 59.4774 27.1236 58.8679C27.5831 58.2557 27.7843 57.8514 28.0545 57.0677C28.3248 56.2841 28.4127 55.8046 28.4748 54.9471C28.5344 54.0896 28.5021 53.6082 28.3578 52.7773C28.2135 51.9464 28.0674 51.4822 27.7507 50.7926C27.4338 50.1057 27.2021 49.7869 26.7733 49.3401C26.3444 48.8959 26.0739 48.7531 25.6086 48.5719C25.1434 48.388 24.9031 48.3815 24.4499 48.4233C23.9968 48.4623 23.762 48.5347 23.3453 48.7754C22.9286 49.0188 22.7016 49.257 22.369 49.6321C22.0363 50.01 21.8793 50.2764 21.6819 50.6618C21.487 51.0473 21.3872 51.3418 21.3894 51.5592C21.3889 51.7793 21.503 51.8408 21.6876 51.7514Z" fill="black" stroke="black"/>
<path d="M33.0568 51.126C32.9966 51.4022 32.9967 51.6956 33.0518 52.4354C33.1069 53.1753 33.2136 53.6551 33.3324 54.8225C33.4513 55.9898 33.5445 56.7765 33.6433 58.275C33.7395 59.7734 33.7595 60.6703 33.8211 62.3176C33.8825 63.9677 33.9072 64.9135 33.9457 66.5197C33.9842 68.1259 34.0164 68.9904 34.0086 70.3459C33.9981 71.7042 33.9367 72.3797 33.8989 73.3001C33.8636 74.2205 33.8396 74.576 33.8247 74.948C33.8123 75.3227 33.8608 75.3669 33.8292 75.1708C33.7975 74.9747 33.8112 74.706 33.6688 73.9702C33.529 73.2345 33.3255 72.7042 33.1221 71.4948C32.919 70.2826 32.804 69.4739 32.6578 67.9122C32.5141 66.3532 32.4489 65.3986 32.3986 63.6917C32.3481 61.9874 32.3418 61.0337 32.4083 59.3857C32.4721 57.7403 32.5347 56.8747 32.7231 55.454C32.9092 54.0307 33.0348 53.3507 33.3406 52.277C33.6487 51.206 33.8518 50.7691 34.2539 50.0908C34.6586 49.4125 34.8892 49.1988 35.3587 48.8883C35.8309 48.5751 36.096 48.5114 36.6118 48.5358C37.1252 48.5575 37.4147 48.6816 37.9353 49.0076C38.4532 49.3363 38.7759 49.5887 39.2065 50.1741C39.6397 50.7596 39.8641 51.1571 40.091 51.9349C40.318 52.71 40.3644 53.2134 40.3416 54.0552C40.3188 54.8971 40.2453 55.3931 39.9797 56.1415C39.7142 56.8898 39.4773 57.2501 39.0116 57.7943C38.5459 58.3385 38.223 58.5535 37.6515 58.8569C37.08 59.1604 36.7102 59.2198 36.1565 59.3143C35.6055 59.4061 35.3227 59.3392 34.891 59.3215C34.4593 59.3039 34.1947 59.191 33.9978 59.2287C33.8036 59.2637 33.7518 59.358 33.9065 59.5098C34.0614 59.6589 34.3083 59.853 34.7721 59.9744C35.236 60.0958 35.5858 60.1964 36.2259 60.1141C36.8658 60.0345 37.3023 59.93 37.9671 59.5655C38.6319 59.2011 39.0142 58.9354 39.5472 58.2945C40.0801 57.6563 40.3393 57.223 40.6367 56.3719C40.9366 55.5208 41.0103 54.9813 41.039 54.0417C41.0701 53.1049 41.0263 52.5582 40.7849 51.6823C40.5436 50.8037 40.3187 50.3302 39.8296 49.6541C39.3406 48.9754 38.9733 48.6545 38.337 48.294C37.7007 47.9335 37.3021 47.8349 36.6482 47.849C35.9944 47.8632 35.6394 47.9744 35.0626 48.3647C34.486 48.7523 34.203 49.0277 33.7677 49.7897C33.3325 50.549 33.175 51.0355 32.8866 52.1612C32.5957 53.2868 32.4876 53.9724 32.3156 55.4178C32.1436 56.8631 32.0861 57.7288 32.0239 59.3905C31.9592 61.0522 31.9679 62.0086 32.0023 63.7235C32.0366 65.441 32.0939 66.3982 32.198 67.9783C32.2997 69.5556 32.3732 70.3718 32.5153 71.6211C32.66 72.8676 32.6981 73.4659 32.9191 74.2138C33.1402 74.9617 33.3667 75.1962 33.6232 75.3578C33.8796 75.5221 34.0305 75.4403 34.2013 75.03C34.3697 74.617 34.4182 74.2401 34.4699 73.3009C34.5192 72.359 34.4781 71.6845 34.4531 70.3203C34.4306 68.9589 34.3907 68.0943 34.3473 66.4853C34.3037 64.879 34.2788 63.9359 34.2356 62.2807C34.1897 60.6281 34.1852 59.7288 34.1229 58.22C34.0606 56.7112 34.0009 55.9197 33.924 54.7367C33.8444 53.5564 33.847 53.0484 33.7353 52.3131C33.621 51.5777 33.4944 51.3013 33.3603 51.0629C33.2235 50.8271 33.1195 50.8526 33.0568 51.126Z" fill="black" stroke="black"/>
<path d="M44.5877 52.6549C44.4984 52.9035 44.4999 53.2594 44.4797 53.8459C44.4621 54.4325 44.4699 54.8537 44.4921 55.5876C44.5166 56.3242 44.5494 56.8409 44.5951 57.5235C44.6409 58.2062 44.64 58.5593 44.7182 59.0007C44.7939 59.442 44.8645 59.6306 44.9763 59.7301C45.0904 59.8324 45.1827 59.7877 45.2793 59.504C45.3733 59.2202 45.4136 58.9356 45.4512 58.314C45.4888 57.6925 45.4368 57.2406 45.4596 56.3988C45.4849 55.557 45.4562 55.0159 45.57 54.1103C45.6838 53.202 45.7793 52.6818 46.0335 51.8681C46.2878 51.0516 46.4756 50.6552 46.8409 50.0361C47.2063 49.4143 47.4162 49.1622 47.8604 48.7617C48.3045 48.3638 48.5567 48.2157 49.0642 48.0389C49.5691 47.8621 49.856 47.8612 50.395 47.8833C50.9338 47.908 51.2235 48.0294 51.7561 48.1573C52.2861 48.2852 52.5968 48.3988 53.0528 48.5228C53.5087 48.6468 53.8128 48.7847 54.0362 48.7746C54.2622 48.7646 54.3218 48.6677 54.1798 48.4753C54.0404 48.2829 53.7704 48.0478 53.3312 47.8154C52.8922 47.5802 52.5591 47.4555 51.9818 47.3051C51.4043 47.1575 51.0664 47.0706 50.4439 47.0744C49.8187 47.0809 49.4664 47.1052 48.8637 47.3321C48.261 47.559 47.9602 47.7472 47.4304 48.2088C46.9031 48.6705 46.6351 48.9516 46.2195 49.6405C45.8063 50.3323 45.6356 50.7833 45.3547 51.6591C45.0763 52.5349 44.9899 53.0742 44.825 54.0225C44.6602 54.9681 44.596 55.5213 44.5304 56.3923C44.4623 57.2634 44.4385 57.7411 44.4896 58.3777C44.5409 59.0115 44.6516 59.2985 44.7888 59.5696C44.9233 59.8434 45.0427 59.8589 45.1703 59.7386C45.3007 59.6157 45.3612 59.421 45.435 58.9631C45.5115 58.5024 45.5436 58.1416 45.5475 57.4434C45.5513 56.7453 45.5194 56.215 45.4566 55.4751C45.3939 54.7351 45.3422 54.3186 45.2362 53.7437C45.1302 53.1688 45.0538 52.8226 44.9235 52.6059C44.7934 52.3865 44.677 52.4064 44.5877 52.6549Z" fill="black" stroke="black"/>
<path d="M60.5452 50.0941C60.4629 49.9733 60.3764 49.8796 60.0742 49.796C59.7719 49.7125 59.5233 49.6325 59.0366 49.6765C58.5498 49.7231 58.2139 49.7722 57.6432 50.0213C57.0697 50.2731 56.7136 50.4441 56.1749 50.9246C55.6362 51.4052 55.3201 51.7208 54.9499 52.4213C54.5823 53.1219 54.4336 53.5896 54.3317 54.4274C54.2273 55.2626 54.2569 55.7466 54.4356 56.6025C54.6143 57.4584 54.7897 57.9447 55.2227 58.7014C55.6584 59.4581 55.9693 59.8623 56.611 60.3886C57.255 60.9176 57.6773 61.1335 58.438 61.3411C59.1988 61.5486 59.6536 61.5667 60.4199 61.4293C61.1863 61.2892 61.6118 61.1139 62.275 60.6489C62.9384 60.1812 63.2705 59.8142 63.7342 59.0907C64.1953 58.3698 64.3723 57.8999 64.5833 57.0365C64.7945 56.1705 64.815 55.6628 64.7872 54.7685C64.7568 53.8742 64.6621 53.3647 64.4417 52.5652C64.2212 51.7657 64.0166 51.3387 63.69 50.7685C63.3635 50.1982 63.0338 49.8915 62.806 49.7195C62.5783 49.5474 62.4995 49.6223 62.5542 49.903C62.6089 50.1836 62.8512 50.5379 63.0797 51.1202C63.3081 51.7052 63.503 52.0804 63.7012 52.8252C63.897 53.5673 64.0255 54.0257 64.0609 54.8359C64.0962 55.6488 64.0681 56.1129 63.8809 56.8788C63.6937 57.6447 63.5258 58.0496 63.1244 58.6735C62.7257 59.2949 62.4385 59.5973 61.8794 59.9933C61.3202 60.3893 60.9757 60.5388 60.3282 60.659C59.6835 60.7765 59.3024 60.7678 58.6524 60.5919C57.9998 60.4159 57.6315 60.2389 57.0704 59.7791C56.5094 59.3166 56.2289 58.959 55.8474 58.282C55.4656 57.6076 55.311 57.1596 55.1622 56.402C55.016 55.6445 55.0112 55.2151 55.1109 54.4995C55.2082 53.7811 55.3366 53.3946 55.6531 52.8182C55.9673 52.239 56.2335 51.9878 56.6916 51.6119C57.1496 51.2361 57.4612 51.1242 57.9441 50.9307C58.4293 50.74 58.7014 50.7307 59.1132 50.653C59.5225 50.5752 59.7265 50.5893 60.001 50.5393C60.2755 50.4892 60.3751 50.4935 60.4828 50.4056C60.5906 50.3176 60.6274 50.2177 60.5452 50.0941Z" fill="black" stroke="black"/>
<path d="M68.5827 49.1339C68.6063 49.463 68.7601 49.8838 69.0122 50.6267C69.2642 51.3696 69.4953 51.8677 69.8434 52.8431C70.1941 53.8185 70.4158 54.4713 70.7553 55.5036C71.0974 56.5359 71.2558 57.0926 71.5463 58.0046C71.8393 58.9166 71.9307 59.3962 72.2153 60.0663C72.5 60.7364 72.6511 61.0322 72.9694 61.3578C73.2904 61.6807 73.4791 61.7787 73.8152 61.6835C74.1539 61.5883 74.3363 61.4092 74.6578 60.879C74.9792 60.3489 75.1166 59.9408 75.4198 59.0354C75.7254 58.1328 75.8742 57.494 76.1811 56.3578C76.4882 55.2189 76.6475 54.4906 76.955 53.3462C77.2649 52.2019 77.4308 51.5769 77.7208 50.636C78.0106 49.6979 78.1667 49.2765 78.4042 48.6527C78.6393 48.0261 78.7556 47.8404 78.9037 47.5086C79.052 47.1741 79.0761 47.1147 79.1479 46.9854C79.2172 46.8561 79.2422 46.9081 79.2554 46.8594C79.271 46.8135 79.2843 46.762 79.2215 46.742C79.1613 46.7221 79.1008 46.6641 78.9463 46.7622C78.7919 46.8603 78.6867 46.9048 78.4543 47.2326C78.222 47.5604 78.0486 47.7587 77.7841 48.4066C77.5197 49.0517 77.4076 49.5064 77.1293 50.4664C76.8509 51.4265 76.7027 52.0572 76.3876 53.2014C76.075 54.3457 75.9031 55.0711 75.5615 56.1878C75.2199 57.3044 74.9861 57.9093 74.6771 58.782C74.3706 59.6574 74.2143 60.0407 74.0221 60.5512C73.8273 61.0616 73.834 61.2464 73.7082 61.3368C73.5798 61.4271 73.5451 61.3234 73.3801 61.0029C73.2151 60.6824 73.128 60.3877 72.8831 59.7372C72.6357 59.0867 72.4599 58.6493 72.153 57.7533C71.8488 56.8575 71.6935 56.2926 71.3566 55.2577C71.02 54.22 70.8116 53.5593 70.4719 52.5704C70.1349 51.5817 69.9812 51.0332 69.6662 50.3137C69.3487 49.5942 69.103 49.21 68.8868 48.9757C68.6706 48.7386 68.5567 48.802 68.5827 49.1339Z" fill="black" stroke="black"/>
<path d="M88.1281 51.1394C88.0394 50.9967 87.9272 50.8618 87.5813 50.7396C87.2353 50.6173 86.9713 50.4936 86.3931 50.528C85.8123 50.5623 85.3773 50.5989 84.6847 50.9141C83.992 51.2319 83.5807 51.5107 82.9298 52.1117C82.2762 52.7127 81.9184 53.1255 81.4271 53.9219C80.9359 54.7184 80.7088 55.212 80.4733 56.0994C80.2403 56.9868 80.2034 57.5133 80.2548 58.3563C80.3034 59.202 80.4135 59.6683 80.7249 60.3198C81.0361 60.974 81.2887 61.2849 81.8085 61.6246C82.3282 61.9642 82.6859 62.0622 83.3261 62.0206C83.9662 61.9791 84.3657 61.8523 85.0066 61.4168C85.6502 60.9814 85.9883 60.5982 86.5335 59.8406C87.0789 59.0803 87.3294 58.5382 87.7354 57.6263C88.1414 56.7144 88.325 56.1359 88.5686 55.284C88.8095 54.4347 88.9005 53.9471 88.9456 53.3719C88.9906 52.7966 88.8895 52.5206 88.7936 52.4132C88.6979 52.303 88.5475 52.4174 88.4639 52.8264C88.3801 53.238 88.3204 53.6745 88.3749 54.4659C88.4294 55.2573 88.5462 55.8243 88.7341 56.7808C88.9195 57.7373 89.058 58.3671 89.3069 59.2485C89.5558 60.1272 89.7097 60.5888 89.9734 61.1825C90.2372 61.7735 90.4522 62.0295 90.6281 62.2116C90.8042 62.3909 90.8682 62.3485 90.8557 62.0902C90.8455 61.8347 90.7302 61.5394 90.568 60.9202C90.4056 60.3036 90.2475 59.8692 90.0466 58.9993C89.843 58.1322 89.7009 57.5187 89.5581 56.5792C89.4126 55.6396 89.4369 55.0694 89.327 54.3043C89.2171 53.5391 89.1463 53.1441 89.0134 52.7589C88.8779 52.3737 88.8017 52.2802 88.6522 52.3811C88.5052 52.482 88.4317 52.7226 88.2684 53.2634C88.1051 53.8042 88.0668 54.2682 87.8305 55.0822C87.5943 55.8962 87.4647 56.4729 87.0899 57.3336C86.7127 58.1916 86.4467 58.6955 85.9495 59.3777C85.45 60.0572 85.1302 60.3483 84.5997 60.7366C84.0693 61.1222 83.7851 61.2481 83.3 61.3084C82.8175 61.3688 82.5628 61.305 82.1796 61.0354C81.7939 60.7658 81.6144 60.5158 81.379 59.9633C81.141 59.4107 81.0372 59.0097 80.9923 58.2701C80.9501 57.5304 80.9507 57.055 81.1571 56.2677C81.3637 55.4776 81.57 55.0299 82.025 54.3252C82.4772 53.6233 82.8273 53.2539 83.4236 52.7525C84.0199 52.2511 84.402 52.0724 85.0038 51.8183C85.6056 51.5643 85.9469 51.5533 86.4353 51.4795C86.9211 51.4084 87.1202 51.4604 87.4381 51.4546C87.756 51.4487 87.8801 51.5131 88.0173 51.4474C88.1568 51.3844 88.2144 51.2793 88.1281 51.1394Z" fill="black" stroke="black"/>
<path d="M96.3516 38.2227C96.2732 38.4606 96.2477 38.6694 96.2519 39.3622C96.256 40.0551 96.312 40.526 96.3749 41.687C96.4378 42.8481 96.4896 43.6422 96.5639 45.1647C96.6356 46.6873 96.6531 47.6248 96.741 49.3025C96.829 50.9801 96.8784 51.9399 97.0034 53.5557C97.1284 55.1714 97.2125 56.0231 97.363 57.3865C97.511 58.75 97.5773 59.3895 97.7484 60.3702C97.9219 61.3537 98.0471 61.7387 98.2233 62.2957C98.4023 62.85 98.519 62.9959 98.6375 63.1526C98.7561 63.3093 98.8115 63.283 98.8185 63.0821C98.8281 62.8812 98.7898 62.7094 98.6807 62.1426C98.5693 61.5731 98.448 61.2071 98.271 60.2399C98.0914 59.2726 97.9649 58.6539 97.7904 57.3063C97.6185 55.9588 97.5265 55.1097 97.3986 53.4994C97.2706 51.8917 97.2235 50.9347 97.1533 49.2601C97.0833 47.5827 97.0811 46.6454 97.0479 45.1207C97.0149 43.5934 97.0095 42.7946 96.9853 41.6287C96.9586 40.4628 96.9931 39.977 96.9247 39.2886C96.8564 38.5974 96.756 38.3948 96.6409 38.1811C96.5256 37.9701 96.4298 37.9876 96.3516 38.2227Z" fill="black" stroke="black"/>
<path d="M5.34193 93.8535C5.26187 94.1185 5.22653 94.406 5.24373 95.137C5.26093 95.8681 5.33659 96.3529 5.43273 97.5145C5.5263 98.676 5.6101 99.4489 5.7244 100.945C5.83614 102.441 5.88699 103.336 5.99687 104.989C6.1066 106.645 6.17765 107.586 6.27334 109.221C6.36647 110.855 6.42887 111.728 6.47037 113.158C6.51186 114.587 6.499 115.307 6.48097 116.366C6.46534 117.428 6.39453 117.922 6.38502 118.46C6.37552 118.997 6.43925 119.129 6.43362 119.053C6.42543 118.976 6.4563 118.762 6.34916 118.079C6.24474 117.392 6.07262 116.852 5.90574 115.632C5.74159 114.41 5.64801 113.544 5.52057 111.969C5.39568 110.394 5.32254 109.445 5.27891 107.754C5.23544 106.061 5.24577 105.129 5.30499 103.517C5.36166 101.904 5.41859 101.09 5.56989 99.6901C5.72119 98.2906 5.8014 97.6425 6.0589 96.5191C6.3164 95.3957 6.49074 94.885 6.85998 94.073C7.22667 93.2611 7.44625 92.9331 7.89762 92.4566C8.34899 91.9801 8.58623 91.8263 9.11428 91.6906C9.64233 91.5549 9.95551 91.5843 10.535 91.7836C11.117 91.9829 11.4591 92.1703 12.0193 92.6871C12.5794 93.2067 12.9166 93.6005 13.3359 94.3733C13.7578 95.146 13.9464 95.6679 14.1209 96.5509C14.2979 97.4339 14.3073 97.9557 14.2159 98.7883C14.1218 99.6236 13.9911 100.048 13.6613 100.717C13.3314 101.385 13.0831 101.68 12.5641 102.131C12.045 102.585 11.6815 102.753 11.0661 102.977C10.4506 103.204 10.0797 103.239 9.48437 103.259C8.88903 103.28 8.55312 103.16 8.0945 103.08C7.63332 102.999 7.45704 102.95 7.18888 102.853C6.92312 102.76 6.87489 102.626 6.75819 102.608C6.64149 102.589 6.57283 102.624 6.60505 102.768C6.64 102.91 6.66911 103.106 6.92731 103.325C7.18312 103.541 7.38115 103.696 7.89146 103.853C8.39937 104.008 8.78933 104.123 9.46926 104.101C10.1492 104.079 10.5829 104.021 11.2937 103.744C12.002 103.464 12.4243 103.256 13.0179 102.714C13.6143 102.169 13.9029 101.802 14.2725 101.025C14.6448 100.249 14.7765 99.7643 14.8736 98.8367C14.9735 97.9064 14.9563 97.3437 14.769 96.3763C14.5794 95.4062 14.3852 94.8489 13.9376 93.9942C13.4876 93.1368 13.1514 92.6832 12.5187 92.0946C11.8861 91.5033 11.4837 91.2551 10.777 91.043C10.0701 90.8335 9.6465 90.8513 8.98453 91.0419C8.32255 91.2326 7.98995 91.4392 7.46441 91.9988C6.93871 92.561 6.72507 92.9598 6.35122 93.8477C5.98009 94.733 5.84013 95.2687 5.60318 96.4332C5.36385 97.5949 5.29864 98.2486 5.15915 99.6646C5.02205 101.083 4.97278 101.898 4.91546 103.521C4.8607 105.145 4.85006 106.082 4.87769 107.783C4.90531 109.484 4.96547 110.436 5.05099 112.027C5.13635 113.62 5.17587 114.49 5.3024 115.742C5.42637 116.994 5.46171 117.595 5.67341 118.285C5.88496 118.979 6.12533 119.154 6.36335 119.198C6.60393 119.243 6.7473 119.074 6.87663 118.503C7.00323 117.934 7.00342 117.423 7.00725 116.345C7.01091 115.269 6.96204 114.554 6.89273 113.118C6.82582 111.685 6.76358 110.81 6.6655 109.173C6.56981 107.538 6.50113 106.6 6.40693 104.941C6.31528 103.283 6.28251 102.385 6.20692 100.885C6.12876 99.3837 6.08365 98.606 6.02878 97.4396C5.97391 96.2733 6.00655 95.7766 5.93001 95.0528C5.85108 94.3261 5.76261 94.0531 5.64643 93.8149C5.52785 93.5739 5.42439 93.5913 5.34193 93.8535Z" fill="black" stroke="black"/>
<path d="M20.7998 99.4217C21.0003 99.4928 21.3034 99.5193 21.7526 99.4176C22.2019 99.3133 22.5326 99.2235 23.0459 98.9082C23.5594 98.5903 23.8957 98.3647 24.3171 97.8334C24.7383 97.3048 24.9195 96.9354 25.1524 96.2599C25.3854 95.5844 25.4886 95.1486 25.4841 94.4612C25.4796 93.7738 25.2772 93.1403 25.13 92.8228C24.98 92.508 24.8311 92.5573 24.7421 92.8846C24.6532 93.212 24.7588 93.8358 24.688 94.4568C24.6145 95.0778 24.5829 95.4305 24.385 95.9925C24.1846 96.5544 24.0365 96.8428 23.6855 97.2692C23.332 97.6929 23.0494 97.8352 22.6228 98.1137C22.1937 98.3922 21.9225 98.4722 21.5474 98.6619C21.1696 98.8543 20.8921 98.9124 20.742 99.0649C20.5921 99.2147 20.5966 99.3506 20.7998 99.4217Z" fill="black" stroke="black"/>
<path d="M20.9068 94.7342C20.6853 95.0513 20.3729 95.6006 20.1256 96.428C19.8808 97.2582 19.7154 97.8751 19.6798 98.8852C19.6419 99.8925 19.6605 100.558 19.9404 101.476C20.2229 102.393 20.5062 102.832 21.0845 103.474C21.6653 104.116 22.0827 104.37 22.8424 104.681C23.602 104.992 24.067 105.094 24.8804 105.025C25.691 104.959 26.151 104.806 26.9063 104.343C27.6591 103.879 28.0315 103.48 28.6464 102.713C29.2612 101.948 29.5369 101.455 29.9776 100.52C30.4186 99.5812 30.5719 98.994 30.853 98.0313C31.1313 97.0712 31.2683 96.5001 31.3775 95.7112C31.4842 94.9223 31.4562 94.4954 31.391 94.0922C31.3285 93.6865 31.1794 93.57 31.0541 93.693C30.9316 93.8133 30.8074 94.0885 30.7704 94.6992C30.7336 95.3072 30.802 95.8272 30.8724 96.7384C30.9428 97.6469 31.0304 98.2731 31.1196 99.2526C31.2114 100.232 31.2169 100.819 31.3238 101.633C31.4309 102.444 31.5066 102.886 31.6572 103.317C31.8103 103.749 31.8927 103.826 32.0841 103.794C32.273 103.762 32.3964 103.628 32.6093 103.156C32.8197 102.683 32.9218 102.267 33.144 101.431C33.3687 100.595 33.4484 99.9548 33.7253 98.9757C34.0023 97.9966 34.1697 97.388 34.5338 96.5352C34.8951 95.6851 35.142 95.2869 35.5399 94.7199C35.938 94.1502 36.1459 93.9307 36.5267 93.6895C36.9048 93.4509 37.0727 93.4264 37.4332 93.5217C37.7909 93.6197 37.9687 93.7692 38.3208 94.1714C38.6755 94.5736 38.8658 94.8564 39.2014 95.5301C39.5396 96.2037 39.7329 96.6496 40.0068 97.5396C40.2807 98.4295 40.39 99.0344 40.5684 99.9799C40.7469 100.923 40.7798 101.521 40.9016 102.259C41.0234 102.997 41.0688 103.262 41.1774 103.668C41.2859 104.075 41.3523 104.163 41.4471 104.289C41.5391 104.418 41.5994 104.31 41.6409 104.303C41.685 104.293 41.6507 104.268 41.6595 104.249C41.6658 104.23 41.6589 104.344 41.68 104.206C41.6987 104.067 41.75 103.981 41.7551 103.558C41.7577 103.134 41.7908 102.841 41.6931 102.087C41.5953 101.333 41.4667 100.749 41.2662 99.7899C41.0658 98.8277 40.9645 98.2175 40.6961 97.2787C40.4275 96.3426 40.2916 95.8379 39.9239 95.1013C39.5538 94.3619 39.3206 94.0268 38.8502 93.5902C38.3799 93.1535 38.0891 93.0077 37.5747 92.9181C37.0577 92.8284 36.7885 92.8758 36.2678 93.1447C35.7494 93.4164 35.4537 93.6481 34.9783 94.2682C34.5027 94.891 34.2928 95.355 33.8952 96.2535C33.5003 97.1519 33.3246 97.7686 32.9983 98.7605C32.6694 99.7524 32.4629 100.371 32.2554 101.218C32.0479 102.065 32.0037 102.499 31.9585 102.993C31.9158 103.487 31.9879 103.648 32.0368 103.687C32.0881 103.729 32.1887 103.633 32.2074 103.195C32.2264 102.756 32.1946 102.307 32.131 101.496C32.0674 100.686 31.9636 100.116 31.8921 99.1398C31.8181 98.1633 31.8313 97.5223 31.7657 96.6166C31.6978 95.7081 31.6651 95.1914 31.5547 94.6029C31.4442 94.017 31.3405 93.7845 31.2086 93.6792C31.0767 93.5738 31.021 93.6898 30.8954 94.0736C30.7721 94.4602 30.7227 94.8533 30.5846 95.6118C30.4491 96.3704 30.4478 96.9409 30.21 97.8663C29.9747 98.7917 29.8174 99.3598 29.4081 100.242C28.9962 101.124 28.7201 101.581 28.1554 102.279C27.5935 102.973 27.2474 103.318 26.588 103.721C25.9286 104.124 25.5531 104.235 24.8582 104.292C24.1634 104.349 23.7714 104.266 23.1139 104.003C22.4563 103.74 22.0772 103.531 21.573 102.977C21.0689 102.42 20.8276 102.049 20.5879 101.228C20.3481 100.409 20.3308 99.8082 20.3742 98.8798C20.4176 97.9513 20.6329 97.3978 20.8046 96.5909C20.9789 95.784 21.2178 95.2227 21.2403 94.8508C21.2602 94.4789 21.1307 94.4198 20.9068 94.7342Z" fill="black" stroke="black"/>
<path d="M51.1758 95.4848C51.0696 95.3364 50.9167 95.1954 50.5353 95.0672C50.1538 94.9389 49.8737 94.8286 49.2734 94.8463C48.6733 94.8613 48.221 94.8868 47.534 95.1531C46.8495 95.4194 46.4553 95.6279 45.8486 96.1753C45.2444 96.7227 44.9263 97.1116 44.5079 97.8902C44.0893 98.6715 43.916 99.1659 43.7584 100.076C43.6011 100.984 43.6067 101.525 43.7178 102.439C43.8291 103.351 43.9589 103.872 44.3191 104.647C44.6767 105.424 44.945 105.814 45.5112 106.317C46.0775 106.818 46.4526 107.052 47.1478 107.158C47.8405 107.264 48.2687 107.214 48.9799 106.844C49.6935 106.478 50.0694 106.147 50.7085 105.32C51.3475 104.494 51.6461 103.96 52.1775 102.711C52.709 101.461 52.9737 100.642 53.3659 99.0701C53.7583 97.4951 53.9048 96.5547 54.1419 94.8387C54.3764 93.1226 54.4367 92.1265 54.5434 90.49C54.6503 88.8507 54.6649 87.9761 54.676 86.6505C54.6869 85.3276 54.6874 84.7272 54.6008 83.8728C54.5168 83.0184 54.416 82.6528 54.2505 82.3839C54.0826 82.1123 53.9014 82.1448 53.7685 82.5203C53.6355 82.8986 53.5797 83.3134 53.5807 84.2697C53.5842 85.2261 53.6775 85.885 53.7811 87.3048C53.8845 88.7273 53.96 89.6794 54.093 91.374C54.2261 93.0659 54.3048 94.0941 54.4488 95.7754C54.5929 97.4566 54.6773 98.3463 54.8106 99.7829C54.9437 101.222 55.003 101.935 55.1119 102.969C55.2236 104 55.2545 104.378 55.3633 104.951C55.4695 105.523 55.5533 105.619 55.6506 105.83C55.7481 106.038 55.7905 105.974 55.8454 105.996C55.8977 106.021 55.9014 106.002 55.9171 105.954C55.9331 105.902 55.9238 105.97 55.9219 105.747C55.9201 105.525 55.9706 105.409 55.9106 104.834C55.8481 104.26 55.7574 103.897 55.6196 102.874C55.4844 101.85 55.3835 101.148 55.2294 99.7161C55.0728 98.2846 54.9857 97.3976 54.8442 95.7164C54.7025 94.0379 54.6237 93.0124 54.524 91.3183C54.4219 89.6214 54.3825 88.6645 54.3352 87.2456C54.2881 85.824 54.326 85.1562 54.2907 84.2157C54.2529 83.2751 54.2172 82.8914 54.1538 82.5427C54.0904 82.1939 54.0036 82.1899 53.9737 82.4719C53.9463 82.7568 53.9604 83.1156 54.012 83.9559C54.061 84.7962 54.2003 85.3716 54.2287 86.6788C54.2547 87.9833 54.2427 88.8579 54.1494 90.4838C54.0537 92.1069 53.991 93.1003 53.7524 94.7999C53.514 96.4969 53.3577 97.429 52.9519 98.9712C52.5463 100.511 52.262 101.316 51.7213 102.505C51.1833 103.695 50.8566 104.184 50.2513 104.919C49.6486 105.654 49.2923 105.871 48.6974 106.18C48.1026 106.488 47.8167 106.557 47.2769 106.464C46.7369 106.374 46.4632 106.158 46.0005 105.722C45.5402 105.288 45.2855 104.969 44.9684 104.285C44.6513 103.6 44.516 103.128 44.4147 102.306C44.3134 101.484 44.3128 100.987 44.4589 100.18C44.6077 99.3724 44.7701 98.9321 45.1485 98.2643C45.5295 97.5965 45.8276 97.2834 46.3561 96.8434C46.8872 96.4035 47.2132 96.2646 47.7967 96.0592C48.3827 95.8538 48.7607 95.8706 49.2809 95.8217C49.7988 95.7701 50.0322 95.8064 50.3908 95.8039C50.7495 95.8014 50.9142 95.8719 51.0718 95.8064C51.2293 95.7437 51.2846 95.6332 51.1758 95.4848Z" fill="black" stroke="black"/>
<path d="M61.897 96.1316C61.8171 96.3939 61.8247 96.7336 61.8186 97.3855C61.8124 98.0375 61.8612 98.5001 61.8634 99.3939C61.8658 100.285 61.8587 100.91 61.8249 101.849C61.7936 102.789 61.7164 103.345 61.7047 104.089C61.6929 104.833 61.7278 105.146 61.7736 105.573C61.8169 106 61.8596 106.099 61.9261 106.228C61.9925 106.356 62.0338 106.352 62.1007 106.22C62.1674 106.09 62.1755 105.998 62.2627 105.573C62.3474 105.148 62.4581 104.842 62.5288 104.096C62.5998 103.348 62.585 102.788 62.6143 101.837C62.6411 100.887 62.6821 100.252 62.6705 99.3442C62.6589 98.4366 62.645 97.9473 62.5539 97.2939C62.4629 96.6404 62.3523 96.3099 62.2203 96.0796C62.0884 95.8466 61.9768 95.8721 61.897 96.1316Z" fill="black" stroke="black"/>
<path d="M62.084 85.7239C62.0408 85.8454 62.0422 85.9487 62.0842 85.9738C62.1264 85.9962 62.214 85.946 62.2943 85.8467C62.3745 85.7474 62.4451 85.5964 62.4832 85.4748C62.5238 85.3531 62.5293 85.2636 62.4922 85.2413C62.4577 85.219 62.383 85.2694 62.3028 85.366C62.2202 85.4625 62.1272 85.6023 62.084 85.7239Z" fill="black" stroke="black"/>
<path d="M67.8389 97.3852C67.7981 97.6779 67.8691 98.0703 67.9561 98.7481C68.0431 99.426 68.1556 99.895 68.2691 100.769C68.3825 101.645 68.4584 102.253 68.5261 103.123C68.591 103.996 68.5474 104.463 68.5996 105.124C68.6492 105.785 68.6792 106.092 68.7789 106.433C68.8787 106.774 68.9533 106.895 69.0981 106.829C69.2456 106.761 69.3455 106.592 69.5061 106.097C69.6666 105.602 69.7201 105.185 69.8988 104.348C70.0798 103.514 70.1366 102.915 70.4094 101.919C70.6797 100.924 70.8662 100.296 71.2525 99.3705C71.6417 98.4421 71.8957 97.9679 72.3413 97.2903C72.7869 96.6127 73.0364 96.3422 73.4781 95.9824C73.9224 95.6226 74.1386 95.52 74.5526 95.4912C74.9668 95.4597 75.1703 95.5254 75.5513 95.8302C75.9349 96.1351 76.1216 96.3934 76.4682 97.0129C76.8122 97.6323 77.0088 98.0646 77.2793 98.9274C77.5499 99.7874 77.6612 100.36 77.8182 101.318C77.9753 102.277 77.967 102.88 78.0673 103.719C78.1677 104.557 78.2175 104.96 78.3174 105.51C78.4171 106.063 78.4752 106.287 78.5689 106.473C78.6652 106.659 78.7298 106.65 78.7911 106.441C78.8549 106.233 78.882 105.997 78.8832 105.427C78.887 104.856 78.8835 104.449 78.8072 103.594C78.7309 102.74 78.6696 102.144 78.5014 101.158C78.3358 100.172 78.2408 99.5837 77.9714 98.6612C77.7046 97.7387 77.5691 97.2285 77.165 96.543C76.7611 95.8547 76.4716 95.5595 75.9464 95.2252C75.4238 94.891 75.1074 94.8289 74.5415 94.8716C73.9755 94.9144 73.6688 95.0318 73.1194 95.4361C72.5674 95.8403 72.2794 96.1564 71.7868 96.8903C71.2917 97.6242 71.0657 98.1423 70.6513 99.1084C70.2343 100.074 70.0372 100.707 69.7095 101.721C69.3793 102.734 69.1953 103.321 69.0077 104.176C68.8228 105.032 68.7778 105.48 68.7744 106.001C68.7708 106.525 68.8899 106.715 68.9875 106.795C69.0878 106.873 69.188 106.741 69.2704 106.395C69.3504 106.046 69.3847 105.734 69.3974 105.057C69.4102 104.381 69.3982 103.903 69.3317 103.013C69.2652 102.124 69.1928 101.501 69.065 100.608C68.9373 99.7144 68.8729 99.2135 68.6929 98.5478C68.5105 97.882 68.3331 97.5125 68.1628 97.2789C67.9926 97.0453 67.8798 97.0897 67.8389 97.3852Z" fill="black" stroke="black"/>
<path d="M89.117 98.6871C89.0534 98.553 88.9592 98.4591 88.6859 98.3217C88.4152 98.1816 88.2374 98.0729 87.7558 97.9919C87.2741 97.911 86.9093 97.8455 86.2779 97.9116C85.6464 97.9805 85.2294 98.0582 84.6009 98.3308C83.9698 98.6034 83.6271 98.8072 83.1252 99.2721C82.6235 99.7342 82.3645 100.037 82.0944 100.65C81.8244 101.259 81.7568 101.658 81.775 102.329C81.7959 103 81.9025 103.396 82.1881 104.009C82.4734 104.625 82.7014 104.962 83.2048 105.402C83.7056 105.845 84.0572 106.043 84.6946 106.216C85.3321 106.387 85.7311 106.396 86.3896 106.262C87.0457 106.126 87.4013 105.963 87.9828 105.537C88.5618 105.109 88.8561 104.774 89.29 104.121C89.7238 103.47 89.9072 103.019 90.1549 102.271C90.3999 101.522 90.4461 101.055 90.5203 100.38C90.5919 99.7047 90.5818 99.3214 90.5208 98.8912C90.4572 98.461 90.324 98.2497 90.2104 98.2235C90.0991 98.2 89.9477 98.29 89.9595 98.771C89.9712 99.2548 90.0649 99.6529 90.2715 100.64C90.4756 101.626 90.6844 102.279 90.985 103.702C91.2855 105.125 91.4887 106.041 91.7717 107.754C92.0548 109.465 92.221 110.483 92.4003 112.26C92.5768 114.04 92.6538 115.011 92.665 116.644C92.6736 118.279 92.6386 119.11 92.4535 120.433C92.2659 121.756 92.1199 122.349 91.7345 123.258C91.3466 124.168 91.1064 124.498 90.5189 124.98C89.934 125.463 89.5918 125.574 88.8022 125.673C88.0152 125.772 87.5292 125.721 86.5762 125.473C85.626 125.221 85.041 124.987 84.0458 124.422C83.0478 123.86 82.4757 123.455 81.5969 122.659C80.7155 121.862 80.2517 121.36 79.6415 120.441C79.034 119.521 78.8456 118.91 78.5514 118.06C78.2571 117.21 78.2686 116.809 78.165 116.193C78.0614 115.577 78.111 115.225 78.0359 114.985C77.9608 114.744 77.8746 114.729 77.7896 114.992C77.7071 115.254 77.577 115.627 77.6162 116.29C77.6555 116.954 77.669 117.408 77.9884 118.307C78.3055 119.203 78.5547 119.823 79.2088 120.779C79.863 121.732 80.3415 122.245 81.2542 123.074C82.1668 123.904 82.7431 124.326 83.7747 124.923C84.8064 125.521 85.3973 125.786 86.4127 126.06C87.4255 126.334 87.9609 126.415 88.8469 126.288C89.7354 126.164 90.1834 125.997 90.8477 125.428C91.5121 124.86 91.7708 124.435 92.174 123.444C92.5771 122.454 92.6886 121.839 92.8635 120.472C93.0356 119.108 93.058 118.275 93.0376 116.623C93.0174 114.968 92.9407 113.994 92.7675 112.201C92.5942 110.41 92.4281 109.389 92.1741 107.663C91.9201 105.936 91.7354 105.012 91.495 103.569C91.2546 102.125 91.1577 101.441 90.9693 100.45C90.7835 99.4577 90.7255 99.0629 90.5605 98.6147C90.3956 98.1666 90.2893 98.1459 90.1501 98.2035C90.0109 98.2611 89.9541 98.4802 89.8621 98.8999C89.7703 99.3168 89.7897 99.673 89.6879 100.296C89.5862 100.92 89.5655 101.346 89.3532 102.019C89.1411 102.689 88.984 103.084 88.624 103.659C88.264 104.232 88.0265 104.519 87.5588 104.884C87.0886 105.249 86.8071 105.372 86.2807 105.481C85.7543 105.589 85.4353 105.571 84.9244 105.424C84.4133 105.28 84.1338 105.115 83.7283 104.75C83.3226 104.388 83.1374 104.105 82.8987 103.607C82.6574 103.109 82.5565 102.787 82.5272 102.257C82.498 101.724 82.5341 101.423 82.7496 100.951C82.9677 100.479 83.1839 100.248 83.6073 99.8964C84.0305 99.5471 84.3293 99.3915 84.8708 99.2017C85.4126 99.0092 85.7698 98.9876 86.3206 98.942C86.8688 98.8963 87.1828 98.9555 87.6199 98.9678C88.0543 98.9828 88.2166 99.0098 88.4927 99.0169C88.769 99.0212 88.8767 99.061 89.0036 98.9951C89.128 98.9291 89.178 98.8212 89.117 98.6871Z" fill="black" stroke="black"/>
</svg>
