<svg width="124" height="117" viewBox="0 0 124 117" fill="none" xmlns="http://www.w3.org/2000/svg">
<path d="M40.9217 9.61472C40.9442 9.4343 40.8701 9.21984 40.7233 8.90128C40.5768 8.58694 40.4645 8.37158 40.1889 8.03879C39.9088 7.70215 39.7026 7.48226 39.3279 7.23037C38.9574 6.97812 38.7451 6.88199 38.3197 6.77901C37.8939 6.67181 37.6568 6.63308 37.2086 6.70629C36.7561 6.77988 36.5026 6.84455 36.0785 7.14509C35.6499 7.44179 35.4212 7.6445 35.079 8.20131C34.7323 8.75426 34.5629 9.1005 34.3578 9.91299C34.1485 10.7258 34.069 11.2257 34.0445 12.256C34.0161 13.291 34.0573 13.9077 34.2228 15.0702C34.3837 16.2288 34.5386 16.8823 34.8581 18.0568C35.1821 19.2351 35.4019 19.8532 35.8293 20.9502C36.2571 22.0515 36.5255 22.5931 36.9921 23.555C37.4541 24.5131 37.7143 24.9619 38.1485 25.7482C38.5827 26.5345 38.8091 26.8886 39.1589 27.4868C39.5129 28.0846 39.6711 28.3385 39.9019 28.7431C40.1367 29.1432 40.1917 29.2871 40.3209 29.501C40.4463 29.7195 40.478 29.7422 40.5448 29.8256C40.6119 29.9132 40.6077 29.9136 40.6517 29.931C40.6957 29.9483 40.7302 29.9538 40.7694 29.9164C40.809 29.8832 40.8336 29.8725 40.8439 29.7484C40.8585 29.6239 40.8955 29.5612 40.8297 29.295C40.7601 29.0335 40.707 28.8639 40.5035 28.4313C40.2995 27.9945 40.1449 27.7319 39.8108 27.1196C39.481 26.5068 39.2592 26.1566 38.8422 25.3731C38.4294 24.5892 38.1738 24.1442 37.7344 23.2011C37.2904 22.2542 37.0354 21.72 36.6313 20.6464C36.2314 19.5724 36.0169 18.9666 35.7176 17.8286C35.4222 16.686 35.2902 16.0517 35.1464 14.9426C34.9984 13.8339 34.9636 13.2421 34.9814 12.2803C34.9988 11.3143 35.0735 10.8573 35.2389 10.1248C35.4046 9.39649 35.5485 9.09922 35.8091 8.63028C36.0698 8.16134 36.2396 8.01476 36.542 7.7801C36.8486 7.54507 37.0151 7.50502 37.3291 7.45204C37.6431 7.39907 37.8155 7.42647 38.1087 7.52403C38.3977 7.62195 38.5207 7.71741 38.7917 7.94863C39.0584 8.18022 39.1998 8.38878 39.4541 8.67245C39.7126 8.95575 39.8342 9.13205 40.0668 9.36238C40.2991 9.58849 40.4418 9.76294 40.6118 9.8118C40.786 9.86028 40.8992 9.79514 40.9217 9.61472Z" fill="black" stroke="black"/>
<path d="M31.5983 23.0965C31.8094 23.129 32.0292 23.0673 32.5377 22.9548C33.0458 22.8381 33.3864 22.7488 34.136 22.526C34.8897 22.3028 35.3904 22.1485 36.3023 21.8393C37.2142 21.53 37.7495 21.3345 38.6995 20.9752C39.6538 20.6155 40.171 20.4088 41.0652 20.0416C41.9631 19.6698 42.4217 19.4725 43.1862 19.1294C43.9504 18.7821 44.3131 18.6059 44.8828 18.3181C45.4482 18.0307 45.678 17.8406 46.0254 17.6828C46.3727 17.5249 46.4392 17.4596 46.6145 17.5207C46.7898 17.5819 46.7871 17.6968 46.9019 17.9884C47.0124 18.2804 47.0215 18.5303 47.1714 18.9803C47.3258 19.4342 47.4232 19.7698 47.6656 20.2585C47.9077 20.7429 48.0857 21.029 48.3795 21.4239C48.6736 21.8231 48.8466 22.0034 49.1355 22.2458C49.4247 22.4924 49.5923 22.5627 49.8254 22.6528C50.0627 22.7425 50.1666 22.7164 50.3135 22.695C50.4561 22.6741 50.5096 22.6056 50.5462 22.5387C50.5829 22.4718 50.5344 22.4038 50.4963 22.3561C50.4581 22.3085 50.4323 22.3532 50.36 22.3043C50.2835 22.2558 50.2644 22.232 50.1269 22.1165C49.9889 21.9969 49.8653 21.944 49.6623 21.7111C49.4588 21.4739 49.3344 21.3149 49.1146 20.939C48.8989 20.5627 48.7776 20.2929 48.5669 19.827C48.3565 19.3652 48.2786 19.0576 48.0616 18.6178C47.8485 18.1733 47.7593 17.9304 47.4986 17.6218C47.2376 17.309 47.0974 17.1641 46.7613 17.0618C46.4252 16.9595 46.2618 16.9865 45.8211 17.0973C45.3808 17.2123 45.153 17.3767 44.5593 17.6326C43.9699 17.8881 43.6236 18.0586 42.8615 18.3803C42.099 18.6977 41.6397 18.8866 40.7437 19.2327C39.8474 19.5746 39.3374 19.7679 38.3848 20.0977C37.4325 20.4317 36.894 20.5893 35.9855 20.8898C35.0725 21.1864 34.5704 21.3238 33.8295 21.5968C33.0886 21.8699 32.7574 22.0178 32.2894 22.2542C31.8173 22.491 31.616 22.6191 31.4775 22.7841C31.3394 22.9534 31.3827 23.0601 31.5983 23.0965Z" fill="black" stroke="black"/>
<path d="M46.0156 11.357C46.0436 11.2398 45.9745 11.2756 45.9368 11.3299C45.8987 11.38 45.8418 11.5549 45.8258 11.6158C45.8096 11.6725 45.8727 11.5692 45.8568 11.6301C45.8405 11.6868 45.7614 11.8509 45.7494 11.9072C45.7377 11.9677 45.7436 12.0351 45.7976 11.9242C45.8516 11.8132 45.988 11.4784 46.0156 11.357Z" fill="black" stroke="black"/>
<path d="M53.2658 16.7644C53.1997 16.9316 53.2098 17.1432 53.2745 17.4944C53.3392 17.8457 53.4242 18.0889 53.5944 18.5287C53.7601 18.9645 53.8882 19.2635 54.1117 19.6816C54.3311 20.1 54.4751 20.3381 54.7072 20.6109C54.935 20.8842 55.0715 20.987 55.2594 21.047C55.4474 21.107 55.5541 21.0637 55.6466 20.9069C55.7387 20.7459 55.763 20.5865 55.7212 20.2545C55.6752 19.9229 55.5898 19.6754 55.4246 19.2438C55.2635 18.8117 55.0958 18.546 54.908 18.0993C54.716 17.653 54.6049 17.4035 54.4821 17.0191C54.355 16.6351 54.3008 16.4529 54.2849 16.1738C54.2647 15.8952 54.2647 15.7975 54.3856 15.6254C54.5019 15.4495 54.5925 15.4161 54.8722 15.3109C55.1519 15.2057 55.3447 15.1761 55.7796 15.0955C56.2144 15.015 56.4828 14.9745 57.0421 14.9086C57.6015 14.8426 57.9391 14.8173 58.5716 14.762C59.2083 14.7062 59.5721 14.6872 60.2134 14.6353C60.8546 14.5834 61.1923 14.5581 61.7784 14.5068C62.3688 14.4552 62.6709 14.4117 63.1565 14.3777C63.6464 14.3433 63.8767 14.3529 64.2189 14.3315C64.5612 14.31 64.6855 14.2736 64.8725 14.2743C65.0592 14.2707 65.0986 14.2842 65.1571 14.3216C65.2156 14.359 65.1692 14.363 65.1654 14.4653C65.1616 14.5676 65.1008 14.6494 65.1335 14.8293C65.1709 15.013 65.1999 15.1506 65.339 15.3807C65.4735 15.6068 65.5651 15.7305 65.811 15.9682C66.0609 16.2012 66.2287 16.3225 66.5766 16.5597C66.9242 16.7928 67.1384 16.91 67.5538 17.1413C67.9692 17.3726 68.2224 17.4992 68.6543 17.7248C69.0816 17.9466 69.3341 18.0647 69.7002 18.2664C70.0666 18.4722 70.246 18.5798 70.4857 18.7457C70.7296 18.9113 70.8294 18.9833 70.9033 19.1001C70.9815 19.2164 70.9837 19.2417 70.8727 19.3322C70.7574 19.423 70.6458 19.4583 70.3442 19.5569C70.0423 19.6513 69.8275 19.7211 69.3646 19.8211C68.9056 19.9165 68.6011 19.9814 68.0464 20.0512C67.487 20.1171 67.1459 20.1512 66.5856 20.1578C66.0211 20.1647 65.7058 20.154 65.2331 20.0934C64.7562 20.0332 64.5268 19.9853 64.2134 19.8512C63.9004 19.7214 63.7872 19.6421 63.6664 19.4275C63.5499 19.2125 63.5388 19.086 63.6219 18.7728C63.7046 18.4554 63.7987 18.2687 64.0849 17.8485C64.371 17.4283 64.5788 17.1807 65.0526 16.6719C65.5268 16.1673 65.8413 15.8763 66.4636 15.3162C67.0816 14.7565 67.4621 14.4428 68.1515 13.8726C68.8409 13.3024 69.2312 13.0048 69.9148 12.4649C70.5983 11.9249 70.9606 11.6468 71.5647 11.169C72.1729 10.6909 72.476 10.4647 72.9521 10.0789C73.4244 9.69763 73.6389 9.47916 73.9336 9.25368C74.2321 9.0236 74.2911 8.92072 74.4336 8.94649C74.5761 8.97226 74.5547 9.0676 74.6417 9.3829C74.733 9.69782 74.7482 9.96842 74.8816 10.5218C75.0108 11.0756 75.1007 11.4714 75.3003 12.1508C75.5 12.8301 75.6212 13.2444 75.8803 13.9228C76.1348 14.5973 76.2892 14.9535 76.5819 15.5312C76.8705 16.1093 77.0484 16.3953 77.3268 16.8086C77.6052 17.2219 77.7395 17.3971 77.9741 17.6018C78.2041 17.8026 78.3761 17.8258 78.4864 17.8246C78.593 17.828 78.525 17.6343 78.5094 17.6016C78.4984 17.5729 78.3947 17.6499 78.4134 17.6695C78.4317 17.6849 78.5977 17.7851 78.611 17.6947C78.6202 17.6047 78.5999 17.4705 78.4755 17.2137C78.3506 16.9527 78.2151 16.8116 77.9923 16.402C77.7653 15.9927 77.5972 15.7227 77.353 15.1663C77.1043 14.6059 76.969 14.2736 76.7581 13.6123C76.5435 12.9555 76.4732 12.541 76.2869 11.869C76.1003 11.1927 76.0231 10.7959 75.8169 10.2361C75.6107 9.67625 75.502 9.40535 75.2468 9.06228C74.9873 8.71958 74.8532 8.59535 74.5239 8.52219C74.1988 8.44867 74.0173 8.51129 73.6086 8.69577C73.2002 8.88447 72.9891 9.09414 72.4771 9.45762C71.9693 9.82073 71.6834 10.0497 71.061 10.512C70.4429 10.974 70.0756 11.2441 69.3783 11.7725C68.6814 12.3051 68.2819 12.595 67.5752 13.1625C66.8644 13.7303 66.4748 14.0363 65.8325 14.6109C65.186 15.1859 64.8547 15.4783 64.3554 16.0361C63.8557 16.5897 63.6252 16.869 63.3353 17.3915C63.05 17.9179 62.9548 18.1896 62.9107 18.6566C62.8665 19.1236 62.9294 19.356 63.1228 19.7215C63.3163 20.087 63.4909 20.2374 63.8856 20.4748C64.2764 20.7168 64.5467 20.7951 65.0839 20.9138C65.6212 21.0324 65.9591 21.0581 66.5729 21.0809C67.1864 21.0994 67.5462 21.0849 68.1527 21.0233C68.7591 20.9618 69.0869 20.9203 69.6017 20.7818C70.116 20.6391 70.3712 20.5445 70.7211 20.3185C71.0713 20.0966 71.2148 19.9396 71.356 19.6595C71.4926 19.3757 71.4989 19.2052 71.4263 18.9098C71.3499 18.6191 71.2389 18.4674 70.9854 18.1921C70.7315 17.9127 70.5376 17.7852 70.1583 17.5294C69.7832 17.2734 69.5261 17.1514 69.1008 16.9039C68.6759 16.6607 68.4272 16.538 68.0249 16.3098C67.6267 16.0812 67.4213 15.9675 67.0974 15.7621C66.7777 15.5564 66.629 15.459 66.4227 15.2858C66.2163 15.1127 66.1721 15.0443 66.066 14.9006C65.9561 14.7615 65.9594 14.7018 65.8847 14.5766C65.8139 14.4468 65.7961 14.3889 65.7084 14.2606C65.6164 14.1327 65.5876 14.046 65.4377 13.9359C65.2875 13.8216 65.1969 13.7573 64.9534 13.6936C64.7141 13.6296 64.5873 13.6364 64.2198 13.6133C63.8566 13.5899 63.6252 13.5677 63.1244 13.5733C62.6196 13.5834 62.3133 13.6272 61.7169 13.6582C61.1251 13.693 60.7955 13.7133 60.1527 13.7483C59.5096 13.7791 59.149 13.7852 58.5027 13.829C57.8565 13.8728 57.5096 13.8904 56.9215 13.9674C56.3376 14.044 56.0524 14.0859 55.5752 14.2169C55.0942 14.3525 54.8713 14.4272 54.5288 14.6399C54.1862 14.8526 54.0444 14.9797 53.8587 15.2849C53.6683 15.5862 53.6287 15.7639 53.586 16.15C53.5433 16.5362 53.5751 16.7543 53.6449 17.2113C53.7188 17.668 53.8026 17.9454 53.9435 18.4386C54.0844 18.9319 54.1669 19.2434 54.349 19.6736C54.5314 20.108 54.6625 20.3429 54.8593 20.6019C55.0566 20.865 55.195 20.9422 55.339 20.9848C55.4829 21.0274 55.5544 20.9702 55.5783 20.8066C55.5984 20.6477 55.564 20.4977 55.4555 20.1801C55.347 19.8624 55.217 19.6401 55.0322 19.2271C54.8431 18.8145 54.72 18.5236 54.5186 18.1164C54.3134 17.7137 54.193 17.5033 54.0058 17.2095C53.8233 16.9196 53.7442 16.7438 53.5962 16.6548C53.4482 16.5657 53.3277 16.5975 53.2658 16.7644Z" fill="black" stroke="black"/>
<path d="M71.9435 15.0619C72.0882 15.1129 72.1914 15.0784 72.5495 15.0428C72.9113 15.0027 73.1467 14.9736 73.7453 14.8702C74.34 14.7714 74.7438 14.6766 75.5387 14.5348C76.3293 14.3934 76.8316 14.3069 77.7024 14.1585C78.5686 14.0062 79.0579 13.9166 79.8834 13.7849C80.7131 13.6528 81.1294 13.6036 81.8464 13.4941C82.5592 13.385 82.9379 13.3434 83.4602 13.2424C83.9825 13.1415 84.2589 13.0961 84.4536 12.9898C84.6486 12.8878 84.645 12.7988 84.4342 12.7196C84.2236 12.6445 83.9406 12.6141 83.4045 12.6057C82.868 12.5932 82.4782 12.6061 81.7488 12.6699C81.0189 12.7295 80.6006 12.8044 79.7602 12.9119C78.9195 13.0152 78.4364 13.0788 77.5547 13.1984C76.6729 13.3181 76.1592 13.3715 75.3559 13.5141C74.548 13.6527 74.1269 13.7448 73.5255 13.9122C72.9244 14.0838 72.683 14.1899 72.3456 14.3638C72.0078 14.5336 71.9147 14.6352 71.8334 14.7741C71.752 14.9129 71.7985 15.0066 71.9435 15.0619Z" fill="black" stroke="black"/>
<path d="M24.346 44.2542C24.2711 44.4179 24.2581 44.6102 24.2959 44.9936C24.338 45.3766 24.3884 45.6611 24.5434 46.1701C24.6984 46.6792 24.8355 47.0326 25.071 47.5388C25.3104 48.0405 25.4701 48.3112 25.7321 48.6834C25.9899 49.056 26.1192 49.2231 26.373 49.4048C26.6273 49.5908 26.7666 49.6296 26.9978 49.6008C27.2332 49.5717 27.3584 49.4971 27.5377 49.2647C27.7209 49.0277 27.7898 48.8432 27.9069 48.4336C28.0286 48.0278 28.046 47.7416 28.1367 47.2238C28.2235 46.7106 28.2537 46.3765 28.3532 45.8622C28.4572 45.3517 28.5122 45.058 28.6392 44.6645C28.7701 44.2664 28.8393 44.0861 28.9952 43.877C29.1469 43.6683 29.2233 43.6191 29.4054 43.6117C29.5832 43.6046 29.6696 43.6693 29.8921 43.8325C30.1107 44.0003 30.2386 44.1506 30.5059 44.4374C30.7735 44.7284 30.9357 44.9309 31.225 45.2752C31.5143 45.6195 31.6684 45.827 31.9444 46.164C32.2199 46.4968 32.3381 46.6819 32.5947 46.9441C32.8556 47.2059 32.9735 47.3401 33.2356 47.4701C33.5019 47.5998 33.6451 47.634 33.9181 47.5973C34.191 47.5607 34.3384 47.4968 34.6001 47.2827C34.8618 47.0686 34.9865 46.892 35.2265 46.5268C35.4626 46.1663 35.5628 45.9026 35.793 45.4745C36.0228 45.0423 36.1398 44.7771 36.3726 44.3786C36.6054 43.9801 36.7311 43.7651 36.9535 43.4907C37.1756 43.2121 37.2767 43.1055 37.4759 43.0031C37.679 42.8961 37.7637 42.893 37.957 42.9653C38.1503 43.0376 38.2228 43.1374 38.4423 43.3647C38.6573 43.588 38.7797 43.7728 39.0419 44.0982C39.3041 44.4237 39.4497 44.6319 39.7532 44.992C40.0608 45.3517 40.2284 45.5665 40.5683 45.9064C40.9078 46.2421 41.0892 46.4217 41.457 46.6911C41.8247 46.9606 42.0178 47.0797 42.4112 47.2535C42.8042 47.423 43.014 47.4896 43.423 47.5516C43.8325 47.6177 44.0451 47.6203 44.4572 47.5715C44.8694 47.5227 45.0906 47.4778 45.4843 47.3159C45.8819 47.1494 46.0793 47.0259 46.4336 46.7527C46.7882 46.4838 46.9551 46.3034 47.2563 45.9584C47.5533 45.6138 47.7321 45.4239 47.9262 45.0203C48.1246 44.6163 48.249 44.1932 48.2353 43.9395C48.2258 43.6854 48.0762 43.6263 47.8661 43.7509C47.6607 43.8793 47.4594 44.2496 47.2077 44.5775C46.9517 44.9059 46.858 45.0968 46.5998 45.3998C46.3413 45.6986 46.202 45.8552 45.9123 46.0888C45.6268 46.322 45.4743 46.4245 45.1635 46.5622C44.8526 46.6999 44.6858 46.7357 44.3584 46.7814C44.0352 46.8267 43.8654 46.8288 43.5425 46.7806C43.2154 46.7327 43.0458 46.6881 42.7271 46.5417C42.4083 46.3954 42.2592 46.2938 41.9527 46.0444C41.6462 45.7951 41.4916 45.6301 41.1953 45.3034C40.8991 44.9767 40.7576 44.7681 40.4668 44.4069C40.1802 44.0454 40.0506 43.8273 39.7536 43.4921C39.4524 43.1573 39.2952 42.9629 38.9691 42.7322C38.643 42.5016 38.4647 42.4067 38.1189 42.3393C37.7689 42.2722 37.5788 42.2846 37.232 42.3999C36.8855 42.5194 36.7092 42.6411 36.3821 42.9331C36.0508 43.2256 35.8841 43.4568 35.5884 43.8651C35.2931 44.2776 35.1473 44.5538 34.9006 44.9875C34.6581 45.4209 34.5449 45.6815 34.3721 46.0365C34.1953 46.3961 34.138 46.5669 34.0289 46.7761C33.9155 46.9857 33.9038 47.0462 33.8136 47.0839C33.7231 47.1173 33.7075 47.0847 33.5815 46.9555C33.4597 46.8259 33.3892 46.7004 33.2042 46.4319C33.0196 46.1676 32.9007 45.9741 32.6532 45.6218C32.4057 45.2696 32.2666 45.0396 31.9663 44.6665C31.6663 44.2976 31.4973 44.0659 31.1527 43.7689C30.8119 43.4674 30.6116 43.3149 30.2499 43.1639C29.8845 43.0174 29.6811 42.9757 29.3372 43.0271C28.9891 43.0788 28.8094 43.1625 28.5139 43.4263C28.2221 43.6855 28.0877 43.897 27.8674 44.3411C27.6467 44.7811 27.5591 45.0904 27.4024 45.631C27.2458 46.1716 27.1825 46.517 27.088 47.0394C26.9939 47.566 26.9642 47.8575 26.9353 48.2552C26.9063 48.6529 26.9337 48.8204 26.9427 49.0193C26.9473 49.2186 26.989 49.2575 26.9672 49.2509C26.9453 49.2443 26.9195 49.1913 26.8213 48.9917C26.7234 48.7963 26.6374 48.6382 26.4769 48.2613C26.3168 47.8887 26.212 47.6132 26.0163 47.1247C25.8248 46.6358 25.7014 46.294 25.5072 45.8223C25.3133 45.3549 25.2068 45.1093 25.042 44.7796C24.873 44.4502 24.8157 44.281 24.6746 44.1744C24.5382 44.0716 24.4209 44.0904 24.346 44.2542Z" fill="black" stroke="black"/>
<path d="M51.052 40.9738C50.9727 40.8448 50.8577 40.7444 50.5801 40.6794C50.3021 40.6103 50.0747 40.5367 49.6635 40.6449C49.2566 40.7528 48.9622 40.8848 48.5407 41.2148C48.1192 41.5449 47.8919 41.8112 47.5653 42.3029C47.2425 42.79 47.0624 43.1117 46.9065 43.6607C46.7506 44.2097 46.7112 44.5361 46.7854 45.0437C46.8553 45.5517 46.9633 45.8142 47.2689 46.1996C47.5746 46.585 47.8231 46.7544 48.3091 46.9668C48.795 47.1792 49.1186 47.2359 49.7033 47.2654C50.288 47.295 50.6369 47.2517 51.2283 47.115C51.8158 46.9828 52.1323 46.8617 52.6441 46.5917C53.1562 46.3259 53.4047 46.1555 53.7838 45.7781C54.1633 45.405 54.343 45.1768 54.5408 44.7176C54.7385 44.2585 54.7851 43.9655 54.7645 43.4871C54.7477 43.0042 54.6601 42.7315 54.4492 42.3123C54.2422 41.8885 54.0582 41.6795 53.722 41.3817C53.3854 41.0798 53.1406 40.9525 52.7709 40.8064C52.4008 40.6561 52.1709 40.6507 51.8724 40.6386C51.5785 40.6303 51.4588 40.6705 51.2961 40.7527C51.1291 40.8353 51.08 40.9543 51.0463 41.055C51.013 41.1599 51.084 41.2429 51.133 41.2684C51.1816 41.2896 51.262 41.1891 51.2862 41.1742C51.3062 41.1598 51.2299 41.1622 51.249 41.186C51.2681 41.2098 51.2718 41.252 51.3774 41.2937C51.483 41.3355 51.5596 41.3373 51.7729 41.3951C51.9904 41.4525 52.1693 41.4581 52.4521 41.5821C52.7303 41.7022 52.9159 41.7837 53.1772 42.003C53.4344 42.2227 53.5749 42.3718 53.7375 42.6763C53.9043 42.9803 53.9769 43.1779 53.9987 43.5244C54.0205 43.8709 54.0003 44.0766 53.847 44.413C53.6984 44.7531 53.5602 44.9224 53.2454 45.2092C52.926 45.492 52.7086 45.63 52.2676 45.8343C51.827 46.0429 51.5416 46.1316 51.0327 46.2398C50.5238 46.3481 50.2164 46.3793 49.7316 46.3749C49.243 46.3752 48.9814 46.3471 48.5967 46.2236C48.2162 46.0997 48.0291 46.0013 47.8161 45.7523C47.5989 45.5036 47.5416 45.3344 47.5268 44.9703C47.5161 44.6059 47.5752 44.3585 47.7421 43.936C47.9091 43.5135 48.0767 43.2439 48.3609 42.8494C48.6412 42.4594 48.8434 42.2463 49.1601 41.9806C49.4806 41.7104 49.669 41.6302 49.9476 41.5123C50.2266 41.3987 50.3411 41.4439 50.5455 41.4005C50.7544 41.361 50.8762 41.3928 50.9792 41.3073C51.0776 41.218 51.1309 41.0986 51.052 40.9738Z" fill="black" stroke="black"/>
<path d="M57.9117 40.3182C57.8251 40.4448 57.8028 40.5785 57.804 40.8843C57.8053 41.1901 57.8199 41.4055 57.9173 41.8388C58.0147 42.2722 58.1064 42.5913 58.2872 43.0556C58.4639 43.5203 58.5925 43.7767 58.8085 44.1572C59.0203 44.5381 59.1216 44.7246 59.3508 44.9638C59.5803 45.2071 59.7075 45.3022 59.9549 45.3613C60.1984 45.425 60.3364 45.4001 60.5764 45.2772C60.8159 45.15 60.9332 45.0335 61.1495 44.7384C61.3659 44.4433 61.4606 44.214 61.6662 43.7966C61.868 43.3838 61.953 43.0917 62.1744 42.6602C62.3954 42.2245 62.5177 41.9716 62.7634 41.6229C63.0094 41.2785 63.1476 41.1092 63.3985 40.9173C63.6451 40.7257 63.7637 40.6729 64.0048 40.6603C64.2459 40.6477 64.3572 40.7059 64.6039 40.8543C64.8467 41.0072 64.9731 41.1406 65.235 41.4151C65.4966 41.6854 65.6321 41.8733 65.9087 42.2187C66.1854 42.5641 66.3314 42.7765 66.618 43.1381C66.9 43.4958 67.0415 43.7044 67.3282 44.0192C67.6149 44.334 67.7991 44.4964 68.0559 44.7118C68.3127 44.9273 68.4163 44.9947 68.6125 45.1007C68.813 45.2064 68.9129 45.2317 69.0546 45.249C69.2002 45.2617 69.27 45.2344 69.3335 45.1821C69.3965 45.1256 69.3891 45.0413 69.3706 44.9749C69.3516 44.9043 69.3099 44.9122 69.235 44.8338C69.1602 44.7554 69.1231 44.7204 68.9963 44.5828C68.8699 44.4494 68.7958 44.3794 68.5889 44.1511C68.3866 43.9266 68.2369 43.7697 67.98 43.4565C67.7274 43.143 67.5962 42.9548 67.3223 42.5921C67.0526 42.229 66.9181 42.0029 66.6231 41.6421C66.3235 41.2774 66.1693 41.0699 65.8339 40.7806C65.498 40.4871 65.3065 40.3381 64.9361 40.1836C64.5614 40.0295 64.357 39.9751 63.9683 40.0006C63.5793 40.0219 63.3725 40.0868 62.9962 40.3024C62.6158 40.5184 62.4193 40.7013 62.0824 41.0749C61.7458 41.4528 61.5782 41.7224 61.3076 42.1752C61.0333 42.6326 60.9058 42.9242 60.7139 43.3531C60.5259 43.7775 60.4569 44.0087 60.3558 44.3107C60.2548 44.6127 60.2525 44.7319 60.208 44.8548C60.1635 44.9776 60.1818 44.993 60.1257 44.9342C60.0696 44.8754 60.0281 44.7898 59.9273 44.5607C59.8266 44.3316 59.752 44.1596 59.6214 43.7844C59.4912 43.4134 59.4216 43.1518 59.2764 42.7056C59.1353 42.2591 59.0528 41.9477 58.9032 41.5486C58.7535 41.1496 58.6652 40.9661 58.5324 40.7101C58.3991 40.4498 58.355 40.3347 58.2335 40.2561C58.1076 40.1779 57.9942 40.1921 57.9117 40.3182Z" fill="black" stroke="black"/>
<path d="M71.6979 33.3587C71.6242 33.4884 71.6109 33.5788 71.6285 33.9257C71.6419 34.2729 71.6472 34.5274 71.7736 35.0984C71.9043 35.6691 72.0367 36.0654 72.2734 36.7797C72.5102 37.494 72.6761 37.9341 72.9569 38.6659C73.238 39.4018 73.403 39.7825 73.6774 40.4426C73.9523 41.1068 74.09 41.4177 74.3257 41.9749C74.5656 42.5318 74.6774 42.7897 74.869 43.2318C75.0561 43.67 75.1255 43.8806 75.2702 44.1739C75.4148 44.4672 75.4854 44.546 75.5876 44.6942C75.6856 44.8429 75.7058 44.8793 75.777 44.9156C75.8481 44.9519 75.9026 44.9428 75.9518 44.8748C75.9965 44.8029 76.017 44.7459 76.0092 44.5596C76.0053 44.3688 76.0037 44.2542 75.9159 43.9304C75.8281 43.6067 75.7418 43.3976 75.5705 42.9452C75.3992 42.4928 75.2748 42.236 75.0559 41.6773C74.8367 41.1144 74.7117 40.8024 74.4748 40.1349C74.2341 39.4719 74.0982 39.0844 73.8596 38.3489C73.6207 37.6093 73.5007 37.1609 73.2774 36.4539C73.0541 35.7469 72.9351 35.3579 72.7433 34.8181C72.5516 34.2783 72.4685 34.0561 72.3139 33.7467C72.164 33.4412 72.1063 33.3655 71.9848 33.2869C71.8589 33.2087 71.7676 33.2337 71.6979 33.3587Z" fill="black" stroke="black"/>
<path d="M70.0527 42.2341C70.1809 42.2909 70.2603 42.2755 70.5677 42.2443C70.8752 42.2132 71.0772 42.1912 71.5857 42.0787C72.0938 41.962 72.4387 41.8724 73.1096 41.6734C73.7805 41.4745 74.2113 41.3476 74.9399 41.0799C75.6689 40.8164 76.0718 40.6622 76.7538 40.3475C77.4358 40.0329 77.7813 39.854 78.3539 39.5022C78.931 39.1543 79.2002 38.9778 79.6345 38.5998C80.0688 38.2219 80.2592 38.0183 80.53 37.6165C80.8049 37.2142 80.8957 36.9896 81.0048 36.5849C81.1177 36.1756 81.1234 35.95 81.0825 35.5796C81.042 35.2135 80.9845 34.9934 80.8098 34.7452C80.6351 34.4971 80.4589 34.3765 80.2176 34.3382C79.9724 34.3044 79.781 34.3509 79.5914 34.5629C79.4018 34.775 79.3084 34.9701 79.2655 35.403C79.2269 35.8355 79.2542 36.1475 79.381 36.7228C79.5078 37.298 79.6499 37.6595 79.9084 38.2827C80.1711 38.9055 80.3505 39.2552 80.6857 39.8335C81.021 40.4117 81.2159 40.6963 81.5848 41.1739C81.9538 41.6515 82.147 41.8683 82.5256 42.2133C82.9042 42.5583 83.0999 42.7069 83.4786 42.9074C83.8615 43.1076 84.0456 43.1722 84.4233 43.2157C84.8014 43.2633 84.9996 43.2459 85.3675 43.1288C85.7357 43.0158 85.9254 42.9015 86.2723 42.6417C86.6192 42.3819 86.7889 42.1843 87.107 41.8378C87.4254 41.4956 87.5837 41.265 87.8684 40.9257C88.1528 40.5821 88.2926 40.3829 88.5295 40.1285C88.7618 39.8703 88.8477 39.7353 89.0396 39.6462C89.2315 39.5572 89.2886 39.5777 89.4974 39.6827C89.7063 39.7876 89.8078 39.9274 90.0798 40.1713C90.3518 40.4152 90.5122 40.5966 90.8576 40.902C91.203 41.2074 91.4066 41.3978 91.8029 41.7031C92.1993 42.0083 92.4302 42.1708 92.8436 42.4278C93.2528 42.6851 93.4677 42.8108 93.866 42.9926C94.2643 43.1744 94.5047 43.2511 94.8359 43.3454C95.1632 43.4442 95.2954 43.4496 95.5107 43.4818C95.7301 43.5135 95.7976 43.5076 95.9244 43.5008C96.0555 43.4936 96.1008 43.4769 96.1622 43.4502C96.2194 43.424 96.2077 43.3868 96.2273 43.3681C96.2515 43.3532 96.2577 43.4249 96.2659 43.3732C96.2745 43.3257 96.2908 43.1713 96.2737 43.1218C96.2605 43.0677 96.2062 43.1277 96.1844 43.1211C96.1664 43.11 96.2048 43.1108 96.1723 43.0797C96.136 43.0531 96.1119 43.0212 96.0102 42.9749C95.913 42.9324 95.8536 42.9334 95.6729 42.86C95.4923 42.7865 95.3859 42.7364 95.099 42.6128C94.812 42.4892 94.5892 42.4195 94.2292 42.2385C93.8734 42.0572 93.6817 41.955 93.3074 41.7074C92.9369 41.4551 92.7398 41.2897 92.3733 40.9861C92.0068 40.6825 91.8327 40.4895 91.4792 40.189C91.1258 39.8886 90.9574 39.7121 90.6056 39.4795C90.2542 39.251 90.0692 39.127 89.7173 39.0388C89.3612 38.951 89.178 38.9458 88.8297 39.0443C88.4853 39.1382 88.3139 39.2679 87.9835 39.522C87.6531 39.7761 87.488 39.9775 87.1734 40.3152C86.8588 40.6529 86.7002 40.8792 86.4109 41.2147C86.1212 41.546 85.9853 41.7406 85.7265 41.9884C85.4678 42.2362 85.3624 42.3432 85.1172 42.4539C84.8723 42.5688 84.7634 42.5868 84.5056 42.5541C84.2475 42.5172 84.12 42.4689 83.8282 42.2905C83.5407 42.1117 83.3721 41.982 83.0593 41.661C82.7423 41.3403 82.5671 41.1347 82.2514 40.6822C81.9356 40.2297 81.7668 39.9513 81.4847 39.3982C81.2022 38.8408 81.0574 38.4966 80.8363 37.9126C80.6194 37.3282 80.5298 36.9834 80.4004 36.4764C80.2669 35.9697 80.2444 35.7125 80.1811 35.3781C80.1179 35.0437 80.1083 34.9341 80.0891 34.8125C80.0654 34.6872 80.0508 34.7139 80.0682 34.7676C80.0856 34.8214 80.1141 34.9038 80.1679 35.0818C80.2217 35.2598 80.3018 35.3973 80.3292 35.6625C80.3609 35.9275 80.3925 36.0946 80.3133 36.4032C80.2341 36.7119 80.1722 36.8787 79.9416 37.2048C79.7064 37.5271 79.5471 37.6982 79.146 38.018C78.749 38.3374 78.4952 38.4956 77.9485 38.8026C77.3972 39.1058 77.0671 39.2664 76.4028 39.5412C75.7382 39.8118 75.3457 39.9397 74.6306 40.168C73.911 40.3924 73.4811 40.481 72.8179 40.6708C72.1508 40.8651 71.8014 40.9509 71.3072 41.1301C70.8134 41.3135 70.618 41.4114 70.3435 41.5756C70.0731 41.7395 69.9993 41.8182 69.9429 41.9506C69.8862 42.0788 69.9284 42.1728 70.0527 42.2341Z" fill="black" stroke="black"/>
<path d="M20.3372 62.377C20.2334 62.5008 20.165 62.6428 20.144 62.9845C20.1275 63.3301 20.1159 63.5861 20.2498 64.097C20.3795 64.6082 20.4932 64.9849 20.7964 65.5362C21.1034 66.083 21.3346 66.3942 21.7819 66.8436C22.2287 67.2889 22.5101 67.4937 23.0357 67.7706C23.5616 68.0518 23.8537 68.1367 24.4102 68.2324C24.9671 68.3324 25.2683 68.3273 25.8192 68.2621C26.3705 68.2011 26.6524 68.1212 27.1608 67.911C27.6732 67.6962 27.9278 67.5464 28.3689 67.1977C28.8054 66.8451 29.0238 66.622 29.3607 66.1506C29.6937 65.6838 29.8415 65.382 30.0456 64.85C30.2498 64.318 30.3149 63.9937 30.3813 63.4907C30.4481 62.992 30.4449 62.7119 30.3741 62.3399C30.2994 61.9726 30.1985 61.7902 30.0281 61.6394C29.8535 61.489 29.6868 61.4781 29.514 61.5909C29.3454 61.7034 29.2199 61.8716 29.1728 62.2071C29.1295 62.5381 29.1489 62.8083 29.2854 63.251C29.4218 63.6937 29.5696 63.9739 29.8551 64.4206C30.136 64.8633 30.3268 65.1016 30.7034 65.4723C31.0758 65.8433 31.3036 66.0188 31.7258 66.2793C32.1518 66.5352 32.3857 66.6337 32.8221 66.7655C33.2581 66.893 33.4864 66.9283 33.9026 66.9258C34.3145 66.9238 34.5239 66.8885 34.8861 66.7548C35.2483 66.6211 35.4257 66.5121 35.7132 66.2533C36.0004 65.9902 36.1213 65.8182 36.3229 65.4521C36.5249 65.0903 36.6062 64.8537 36.7222 64.4314C36.8336 64.0053 36.8872 63.6947 36.8857 63.3379C36.8842 62.9811 36.7899 62.7769 36.7148 62.6476C36.6436 62.5136 36.5439 62.5393 36.5223 62.6814C36.5008 62.8235 36.497 63.0235 36.6158 63.3615C36.7346 63.6995 36.8494 63.9912 37.1164 64.3714C37.3833 64.7517 37.606 64.9659 37.951 65.2671C38.2961 65.5683 38.4903 65.7001 38.8415 65.8775C39.1927 66.055 39.3729 66.1242 39.7028 66.1548C40.0372 66.1893 40.209 66.1615 40.501 66.051C40.793 65.9404 40.9205 65.8443 41.1716 65.6056C41.4265 65.3624 41.5477 65.1946 41.7681 64.8481C41.9923 64.4971 42.0859 64.2552 42.2853 63.8638C42.4848 63.4725 42.5744 63.2352 42.7653 62.8913C42.9561 62.5475 43.0552 62.3688 43.235 62.1407C43.415 61.9167 43.4966 61.8288 43.6689 61.7585C43.8412 61.6882 43.9059 61.6995 44.101 61.7929C44.2916 61.8825 44.3954 62.0009 44.6434 62.2129C44.8872 62.4252 45.0319 62.574 45.3249 62.8628C45.6217 63.147 45.7824 63.3326 46.1113 63.6437C46.4405 63.9591 46.622 64.1386 46.9743 64.4265C47.3267 64.7143 47.5097 64.864 47.8741 65.0955C48.2424 65.3225 48.4555 65.427 48.7949 65.5673C49.139 65.7114 49.3128 65.7557 49.5851 65.8083C49.8528 65.8571 49.9662 65.8429 50.1422 65.8148C50.314 65.787 50.3954 65.7459 50.457 65.6725C50.5181 65.5949 50.5027 65.5156 50.4539 65.4434C50.4009 65.3715 50.3376 65.377 50.2087 65.3119C50.0752 65.2428 50.0125 65.2058 49.7955 65.1058C49.579 65.0101 49.4266 64.9682 49.1293 64.8242C48.8366 64.6841 48.6468 64.603 48.3268 64.3931C48.0067 64.1832 47.8466 64.0527 47.5329 63.77C47.2197 63.4915 47.0635 63.3097 46.7511 62.9929C46.4387 62.6761 46.2895 62.4767 45.9706 62.1817C45.6516 61.8867 45.4885 61.7225 45.1558 61.5137C44.8228 61.3007 44.6395 61.1977 44.3018 61.1253C43.964 61.0529 43.7904 61.0596 43.4674 61.1558C43.1441 61.2479 42.9832 61.3512 42.6907 61.602C42.3982 61.8527 42.2539 62.0481 42.0009 62.4101C41.7479 62.7722 41.629 63.0163 41.4173 63.4129C41.2094 63.805 41.1201 64.0465 40.9542 64.384C40.7883 64.7214 40.7257 64.8798 40.587 65.0917C40.4441 65.3039 40.4033 65.3712 40.2486 65.4485C40.09 65.5303 40.0095 65.5331 39.8058 65.4872C39.6063 65.4409 39.4781 65.3842 39.2377 65.2098C39.0015 65.035 38.8551 64.9161 38.6166 64.6183C38.3823 64.3201 38.2934 64.0815 38.0585 63.7281C37.8237 63.3748 37.6957 63.1268 37.4468 62.8554C37.1982 62.5882 37.0511 62.4609 36.8237 62.3873C36.5921 62.3141 36.4706 62.3333 36.2938 62.4974C36.1166 62.6574 36.032 62.856 35.9304 63.2006C35.8289 63.5451 35.8543 63.8361 35.7856 64.216C35.7123 64.592 35.6959 64.7932 35.5776 65.0924C35.4594 65.3917 35.3808 65.5133 35.1935 65.7039C35.0024 65.8991 34.8891 65.9642 34.634 66.0588C34.3785 66.1491 34.2232 66.1712 33.9078 66.1606C33.5925 66.1499 33.4075 66.1236 33.0576 66.0098C32.7116 65.8914 32.5134 65.811 32.1704 65.5818C31.8274 65.3527 31.6394 65.1949 31.347 64.8636C31.0542 64.5281 30.9162 64.3107 30.7075 63.9168C30.5034 63.5268 30.4464 63.2641 30.3086 62.9023C30.1707 62.5404 30.12 62.3494 30.0146 62.1165C29.9092 61.8835 29.8548 61.7948 29.7775 61.7378C29.7003 61.6808 29.6677 61.6964 29.6327 61.8312C29.5974 61.9618 29.6261 62.0952 29.6059 62.3987C29.5861 62.7063 29.6106 62.9379 29.5375 63.3649C29.4644 63.7919 29.409 64.0815 29.2324 64.5388C29.0603 65 28.9433 65.2652 28.6683 65.6674C28.3937 66.0738 28.2145 66.2594 27.854 66.5587C27.4894 66.8583 27.2747 66.979 26.8446 67.1611C26.4186 67.3429 26.1823 67.4103 25.7203 67.472C25.2622 67.529 25.0042 67.5431 24.5466 67.46C24.0851 67.3814 23.8458 67.3173 23.4247 67.0695C23.0036 66.8217 22.7831 66.6328 22.4377 66.2296C22.0926 65.8307 21.9441 65.542 21.6975 65.0538C21.4511 64.5697 21.3706 64.2326 21.2093 63.7963C21.0436 63.3604 20.9799 63.1663 20.8701 62.8828C20.76 62.595 20.7665 62.4754 20.6599 62.3743C20.5533 62.2731 20.4415 62.2574 20.3372 62.377Z" fill="black" stroke="black"/>
<path d="M52.6413 60.4336C52.5634 60.5637 52.5354 60.6808 52.5488 61.0281C52.5584 61.3799 52.5706 61.6168 52.7005 62.179C52.8347 62.7408 52.9621 63.1291 53.202 63.8304C53.4422 64.5359 53.6189 64.9538 53.8969 65.7028C54.1749 66.4518 54.3341 66.8627 54.5915 67.571C54.8486 68.2751 54.9781 68.6376 55.1834 69.2358C55.3887 69.8339 55.4655 70.1288 55.6139 70.562C55.7626 70.9993 55.806 71.2037 55.9264 71.4141C56.0429 71.6291 56.1366 71.6804 56.2123 71.6228C56.2876 71.561 56.3508 71.4577 56.2999 71.118C56.2535 70.7822 56.1708 70.5175 55.9712 69.9359C55.7758 69.3539 55.5878 68.9539 55.3106 68.2134C55.0333 67.4729 54.8452 67.022 54.5972 66.2279C54.3451 65.4342 54.2048 64.9961 54.0533 64.236C53.9021 63.4802 53.8475 63.0983 53.8363 62.4365C53.8251 61.7747 53.853 61.462 53.9973 60.9268C54.1417 60.3916 54.2651 60.1513 54.5496 59.761C54.838 59.3661 55.0359 59.2001 55.4353 58.9569C55.835 58.718 56.0786 58.6372 56.5518 58.5576C57.0295 58.4818 57.3237 58.4943 57.8148 58.5703C58.3054 58.642 58.5898 58.7361 59.0149 58.9326C59.4442 59.1287 59.6649 59.2709 59.9525 59.5474C60.2398 59.8196 60.3568 59.9921 60.4527 60.3109C60.5482 60.6254 60.5503 60.7952 60.4343 61.1198C60.3186 61.4486 60.1931 61.6168 59.8735 61.9464C59.5578 62.2714 59.3188 62.4538 58.8484 62.7584C58.3825 63.0669 58.0696 63.2302 57.5304 63.4771C56.9908 63.7198 56.6608 63.8336 56.1476 63.989C55.6389 64.1483 55.3491 64.1864 54.9733 64.2617C54.5936 64.3417 54.4486 64.3841 54.2605 64.3708C54.0682 64.3579 54.1066 64.2144 54.0288 64.1999C53.9472 64.1901 53.8503 64.1986 53.8648 64.3162C53.8797 64.4382 53.8652 64.6604 54.0989 64.8056C54.3364 64.9463 54.5813 65.0268 55.0362 65.0295C55.4914 65.0364 55.8093 64.9789 56.3831 64.8352C56.9572 64.6957 57.3128 64.5838 57.91 64.3191C58.5072 64.0544 58.845 63.8847 59.3654 63.5205C59.8863 63.1605 60.1557 62.9372 60.5082 62.4984C60.8653 62.0635 61.0087 61.8088 61.1367 61.3302C61.2606 60.852 61.2623 60.5799 61.1366 60.1151C61.011 59.6502 60.8612 59.3956 60.5127 59.0055C60.1602 58.6199 59.893 58.4309 59.3777 58.1743C58.8627 57.9219 58.5301 57.8108 57.9364 57.7268C57.3427 57.6428 56.986 57.6443 56.4054 57.7588C55.8252 57.8776 55.5213 57.9977 55.0343 58.308C54.5435 58.6229 54.3033 58.8393 53.9506 59.3248C53.6018 59.8057 53.4621 60.1026 53.2829 60.7259C53.0996 61.3495 53.0624 61.7012 53.0457 62.4335C53.0333 63.1653 53.0817 63.5732 53.2081 64.3865C53.3346 65.1997 53.4595 65.6561 53.6816 66.495C53.8991 67.3299 54.0505 67.7968 54.3092 68.5687C54.5676 69.3364 54.711 69.7615 54.9735 70.3334C55.2406 70.9091 55.3977 71.1503 55.6343 71.427C55.8713 71.7079 56.0061 71.7428 56.166 71.7246C56.3255 71.7021 56.4013 71.5978 56.4413 71.3266C56.4771 71.0558 56.4449 70.8334 56.3487 70.366C56.2526 69.8985 56.1459 69.6019 55.9602 68.9851C55.7788 68.3679 55.6577 68.0046 55.4248 67.2856C55.1962 66.5664 55.0528 66.1413 54.8081 65.3851C54.5593 64.6294 54.4197 64.1997 54.1887 63.5019C53.9577 62.804 53.8436 62.4231 53.653 61.8959C53.4628 61.373 53.3772 61.1723 53.2357 60.866C53.0946 60.5639 53.0646 60.4646 52.9423 60.3776C52.8242 60.2902 52.7191 60.3036 52.6413 60.4336Z" fill="black" stroke="black"/>
<path d="M70.2534 57.5752C70.1933 57.4233 70.0711 57.2895 69.8034 57.143C69.536 57.0007 69.3363 56.9034 68.9157 56.8553C68.4951 56.8071 68.1874 56.7873 67.6923 56.9071C67.1926 57.0231 66.9025 57.1547 66.4225 57.4474C65.9382 57.7404 65.6635 57.9514 65.2712 58.3724C64.8789 58.7934 64.6737 59.0705 64.4652 59.5519C64.2528 60.0379 64.1935 60.332 64.2211 60.7927C64.2487 61.2534 64.3471 61.504 64.6031 61.8555C64.8636 62.2108 65.0811 62.366 65.5146 62.5617C65.952 62.7529 66.25 62.8075 66.7826 62.8247C67.3194 62.8414 67.633 62.7842 68.1811 62.6385C68.725 62.4932 69.0155 62.3658 69.5146 62.097C70.0133 61.8239 70.2707 61.6569 70.6843 61.285C71.0978 60.9132 71.2968 60.6621 71.5734 60.23C71.8458 59.7982 71.9637 59.4948 72.0634 59.1291C72.1631 58.7635 72.1018 58.5479 72.0678 58.4022C72.0338 58.2565 71.9119 58.2714 71.8892 58.4008C71.8623 58.5306 71.8368 58.7241 71.9414 59.0463C72.0507 59.3724 72.1471 59.6487 72.426 60.0194C72.7003 60.3863 72.9398 60.599 73.327 60.8965C73.7142 61.1941 73.9418 61.3186 74.3616 61.5028C74.7813 61.687 75.0034 61.7483 75.4262 61.8218C75.849 61.8953 76.0755 61.9094 76.4757 61.8701C76.8759 61.8309 77.0799 61.7833 77.4318 61.6293C77.7876 61.4707 77.9601 61.3536 78.2472 61.0905C78.534 60.8232 78.6545 60.647 78.8622 60.3017C79.0745 59.9602 79.1745 59.7432 79.2953 59.3757C79.4161 59.0083 79.4565 58.7413 79.4747 58.4635C79.4886 58.1861 79.3998 58.0452 79.3694 57.9884C79.3389 57.9316 79.2865 58.0126 79.3181 58.1798C79.3497 58.347 79.3817 58.5184 79.5359 58.8236C79.6901 59.1288 79.8169 59.3641 80.0886 59.7015C80.3645 60.0385 80.5731 60.2369 80.8987 60.5101C81.22 60.7836 81.4128 60.8985 81.7077 61.0639C82.0068 61.2289 82.1564 61.288 82.3862 61.3401C82.6117 61.3926 82.7425 61.3812 82.8484 61.3294C82.9589 61.2815 82.9726 61.1953 82.9297 61.0929C82.8913 60.9943 82.7948 60.9602 82.6428 60.8248C82.4903 60.6852 82.394 60.6044 82.1728 60.4071C81.9555 60.2052 81.7979 60.1042 81.549 59.8328C81.2997 59.5572 81.1793 59.3468 80.9351 59.0325C80.6951 58.7179 80.5751 58.5117 80.3361 58.2564C80.0974 58.0054 79.9756 57.8758 79.7368 57.7693C79.4977 57.6585 79.3537 57.6158 79.1407 57.7067C78.9281 57.8018 78.8138 57.952 78.668 58.2282C78.5219 58.5002 78.5141 58.7515 78.4073 59.0838C78.3004 59.4161 78.2656 59.6018 78.1252 59.8903C77.9805 60.1791 77.8992 60.318 77.6961 60.5227C77.4977 60.7312 77.3817 60.8136 77.1242 60.9296C76.8663 61.0414 76.7202 61.0712 76.4074 61.0901C76.0992 61.1128 75.9115 61.1037 75.5741 61.0355C75.2329 60.9719 75.0422 60.9291 74.717 60.7579C74.3877 60.587 74.2198 60.4658 73.9403 60.1843C73.6611 59.9071 73.5561 59.6783 73.3154 59.3552C73.0789 59.0318 72.975 58.8157 72.7497 58.5719C72.5202 58.3286 72.3861 58.2044 72.176 58.1335C71.9658 58.0627 71.865 58.0758 71.6898 58.2101C71.5108 58.349 71.4615 58.5147 71.2934 58.8269C71.1253 59.139 71.0845 59.4017 70.8491 59.7707C70.618 60.1394 70.4709 60.352 70.1242 60.6627C69.7775 60.9735 69.5475 61.1126 69.1121 61.3334C68.6768 61.5542 68.4178 61.6533 67.9522 61.7706C67.487 61.892 67.2224 61.9279 66.7898 61.936C66.3575 61.9484 66.1257 61.9219 65.7984 61.8231C65.4711 61.7243 65.32 61.6483 65.1448 61.4427C64.9734 61.2325 64.9176 61.0801 64.9294 60.7774C64.9407 60.4705 65.0039 60.2696 65.202 59.9123C65.4006 59.5593 65.5849 59.3349 65.921 58.9996C66.257 58.6643 66.4949 58.4693 66.895 58.2345C67.2908 58.0002 67.5126 57.9128 67.9038 57.8191C68.2954 57.7296 68.516 57.774 68.8482 57.7832C69.18 57.7881 69.3205 57.8396 69.5733 57.8642C69.8216 57.8849 69.9677 57.9529 70.1028 57.8943C70.2421 57.8354 70.313 57.723 70.2534 57.5752Z" fill="black" stroke="black"/>
<path d="M78.4418 52.342C78.4265 52.2159 78.3451 52.1593 78.2956 52.1764C78.2419 52.1938 78.1935 52.3212 78.1859 52.4281C78.1828 52.5389 78.2454 52.6226 78.2669 52.7227C78.2884 52.8228 78.2797 52.9171 78.2984 52.9367C78.3167 52.952 78.3356 52.9249 78.3636 52.8077C78.3916 52.6906 78.4571 52.4681 78.4418 52.342Z" fill="black" stroke="black"/>
<path d="M92.9477 57.1995C92.9421 57.0385 92.8809 56.8739 92.6744 56.6498C92.4682 56.4299 92.3051 56.2657 91.9205 56.0954C91.5318 55.9255 91.2547 55.818 90.7477 55.8029C90.2404 55.7836 89.9345 55.8316 89.3847 56.0072C88.8392 56.1824 88.5164 56.3296 88.0025 56.672C87.4932 57.0183 87.1958 57.261 86.8241 57.7226C86.4523 58.1843 86.2877 58.4876 86.1442 58.9846C85.9966 59.4819 85.9875 59.7673 86.0899 60.2087C86.1969 60.654 86.3359 60.884 86.6694 61.199C87.0033 61.5182 87.2657 61.6524 87.7626 61.7959C88.2557 61.9439 88.5676 61.9634 89.1425 61.9301C89.7129 61.8929 90.0473 61.8296 90.632 61.617C91.2125 61.4048 91.5349 61.2533 92.0577 60.8677C92.5802 60.4778 92.8386 60.2257 93.2413 59.6806C93.6482 59.1351 93.8317 58.8047 94.0873 58.1322C94.3428 57.4598 94.435 57.0566 94.5233 56.318C94.6074 55.5799 94.5927 55.169 94.5289 54.4395C94.4608 53.7104 94.3713 53.3189 94.188 52.6806C94.0005 52.0427 93.8582 51.728 93.6077 51.2443C93.3571 50.7606 93.2131 50.5225 92.9308 50.2583C92.6485 49.9941 92.4273 49.8945 92.1916 49.9194C91.9558 49.9442 91.8351 50.0695 91.7439 50.3877C91.649 50.7104 91.6374 50.9663 91.7328 51.5231C91.8241 52.0802 91.9392 52.4738 92.2128 53.1721C92.4825 53.8751 92.6984 54.3023 93.0887 55.0245C93.4791 55.7466 93.7123 56.1298 94.165 56.787C94.6173 57.44 94.8611 57.7501 95.3425 58.2985C95.8239 58.847 96.084 59.1004 96.5677 59.5297C97.0517 59.9632 97.3144 60.1484 97.7617 60.4535C98.2052 60.763 98.4152 60.8806 98.7963 61.0597C99.177 61.2346 99.3769 61.2851 99.6579 61.3412C99.9344 61.3935 100.069 61.3775 100.188 61.3288C100.307 61.2802 100.321 61.1982 100.253 61.098C100.188 60.9931 100.078 60.9518 99.8582 60.8138C99.6337 60.6763 99.4703 60.6056 99.1426 60.4048C98.811 60.2087 98.6121 60.1198 98.2038 59.8242C97.7959 59.5327 97.5547 59.3499 97.1023 58.9391C96.6542 58.5279 96.4044 58.2948 95.9628 57.7641C95.5173 57.238 95.2919 56.9433 94.892 56.307C94.488 55.6711 94.2888 55.2891 93.9509 54.5836C93.6176 53.882 93.4692 53.4488 93.2158 52.7869C92.9582 52.1254 92.8583 51.7602 92.6798 51.2745C92.5017 50.793 92.4288 50.5912 92.3207 50.3754C92.2168 50.1593 92.1387 50.1407 92.1527 50.2032C92.1667 50.2657 92.2509 50.4028 92.3986 50.683C92.546 50.9591 92.6941 51.1458 92.8903 51.5917C93.0862 52.0335 93.2216 52.319 93.379 52.9044C93.5323 53.49 93.6108 53.8528 93.6687 54.5148C93.7224 55.1772 93.7384 55.554 93.6607 56.2193C93.5868 56.8801 93.5078 57.2397 93.292 57.8322C93.0719 58.425 92.9188 58.7146 92.5689 59.1829C92.2236 59.655 92.0037 59.8612 91.5558 60.1808C91.1124 60.5042 90.8292 60.6183 90.3343 60.789C89.8394 60.9598 89.5499 61.0021 89.0777 61.0435C88.6008 61.081 88.3533 61.0686 87.9642 60.9922C87.5752 60.9158 87.3822 60.8477 87.1365 60.661C86.8949 60.474 86.8034 60.3502 86.7488 60.0661C86.6941 59.782 86.7197 59.5885 86.8673 59.2357C87.0145 58.8787 87.1601 58.6492 87.4897 58.289C87.8197 57.9329 88.0776 57.7234 88.5116 57.439C88.9456 57.1546 89.2219 57.0114 89.6639 56.8665C90.102 56.7262 90.3293 56.7021 90.709 56.7198C91.0929 56.7372 91.2681 56.8451 91.5708 56.9546C91.8736 57.064 91.9928 57.1641 92.2224 57.2629C92.4478 57.3622 92.5586 57.463 92.7062 57.45C92.8537 57.4371 92.9575 57.3601 92.9477 57.1995Z" fill="black" stroke="black"/>
<path d="M103.463 59.7359C103.335 59.8193 103.027 60.4104 102.891 60.7027C102.751 60.9996 102.621 61.3042 102.533 61.7112C102.441 62.1187 102.207 62.7492 102.217 63.1095C102.228 63.4697 102.201 63.9561 102.297 64.122C102.388 64.2882 102.501 63.31 102.639 63.1874C102.781 63.0645 102.884 62.5439 103.03 62.2209C103.176 61.898 103.243 61.6527 103.331 61.2456C103.419 60.8386 103.495 60.5801 103.478 60.2459C103.463 59.7539 103.38 60.748 103.38 60.2319C103.38 60.2319 103.596 59.6478 103.463 59.7359Z" fill="black" stroke="black"/>
<path d="M13.9422 85.7926C13.8538 85.6559 13.7025 85.5289 13.3931 85.4412C13.0876 85.349 12.8667 85.3004 12.4113 85.3402C11.952 85.3847 11.6408 85.4204 11.1043 85.65C10.5678 85.8797 10.2586 86.0852 9.72455 86.4888C9.18631 86.8929 8.87882 87.1662 8.42223 87.6778C7.96985 88.189 7.72049 88.4955 7.45037 89.0502C7.17567 89.6011 7.06733 89.9165 7.06175 90.4354C7.05617 90.9542 7.1269 91.2285 7.4179 91.6406C7.71312 92.0524 7.95468 92.2395 8.52518 92.4955C9.09147 92.7519 9.48095 92.8325 10.2574 92.9175C11.0378 92.9979 11.5164 92.9815 12.4241 92.9148C13.3318 92.8481 13.8425 92.761 14.7954 92.5798C15.7441 92.3991 16.2638 92.2686 17.1756 92.0061C18.0919 91.7475 18.5627 91.5916 19.3558 91.2842C20.1486 90.9727 20.5159 90.8003 21.1489 90.4602C21.7823 90.1244 22.06 89.9471 22.5138 89.5972C22.9714 89.2428 23.1463 89.0575 23.4212 88.702C23.696 88.3466 23.7725 88.1529 23.8832 87.8161C23.9936 87.475 24.0126 87.3034 23.9779 87.0047C23.9387 86.7023 23.8821 86.5415 23.7047 86.3106C23.5227 86.0758 23.3725 85.9615 23.0736 85.8475C22.7793 85.7373 22.5897 85.7071 22.2152 85.7484C21.8403 85.7854 21.6117 85.8437 21.2086 86.0447C20.8098 86.2453 20.569 86.4066 20.2045 86.7571C19.8401 87.1077 19.6446 87.35 19.3817 87.7936C19.1231 88.2369 19.003 88.5151 18.9033 88.9784C18.8079 89.4414 18.7966 89.7016 18.888 90.1142C18.9835 90.5265 19.0959 90.7419 19.3685 91.0409C19.6369 91.3404 19.8483 91.4748 20.2429 91.6145C20.6422 91.758 20.8988 91.778 21.3504 91.7427C21.8023 91.7117 22.0635 91.6378 22.501 91.4424C22.9431 91.2507 23.1763 91.0986 23.5517 90.7768C23.9269 90.4508 24.1115 90.2307 24.3865 89.8285C24.6615 89.4263 24.7957 89.1638 24.9266 88.7657C25.0532 88.368 25.0549 88.0959 25.0286 87.8433C25.0022 87.5907 24.8661 87.4921 24.7952 87.5068C24.72 87.5219 24.6345 87.6611 24.6692 87.913C24.7044 88.1691 24.7465 88.4076 24.9656 88.7751C25.189 89.1422 25.39 89.4007 25.7729 89.7454C26.1599 90.0897 26.4218 90.2664 26.8973 90.5052C27.3725 90.7398 27.6435 90.8266 28.1498 90.931C28.6564 91.0396 28.9222 91.0673 29.4343 91.0438C29.9425 91.0248 30.207 90.9889 30.6943 90.8273C31.1776 90.6703 31.4313 90.5588 31.8592 90.2537C32.2914 89.9482 32.4997 89.7558 32.8465 89.3005C33.193 88.8411 33.3553 88.5592 33.601 87.9683C33.8463 87.3733 33.9506 87.0115 34.0659 86.3386C34.1851 85.6611 34.206 85.2684 34.1933 84.5897C34.1764 83.9113 34.1225 83.5379 33.9854 82.9423C33.8483 82.3467 33.7455 82.0455 33.5028 81.6036C33.2648 81.1656 33.1065 80.9585 32.7864 80.7486C32.4664 80.5386 32.213 80.4589 31.9026 80.554C31.5919 80.6449 31.3982 80.8106 31.2336 81.2116C31.0732 81.6123 31.0511 81.9414 31.0884 82.5627C31.122 83.1886 31.1877 83.5993 31.4125 84.3231C31.6415 85.0467 31.8416 85.488 32.2213 86.1856C32.601 86.8832 32.8401 87.2362 33.311 87.811C33.782 88.3859 34.0421 88.6393 34.5676 89.0607C35.0931 89.4821 35.3849 89.6605 35.9343 89.9183C36.4837 90.1762 36.772 90.2657 37.3105 90.3502C37.8536 90.4387 38.1257 90.4404 38.6406 90.3528C39.1513 90.2656 39.416 90.183 39.8768 89.9132C40.3337 89.648 40.5677 89.4576 40.9367 89.0132C41.3057 88.5687 41.4673 88.2784 41.7179 87.6956C41.9682 87.1086 42.0687 86.7514 42.1886 86.0824C42.3043 85.4137 42.3213 85.0255 42.3051 84.3556C42.289 83.6857 42.24 83.3203 42.1041 82.7374C41.9635 82.1506 41.8614 81.8579 41.6153 81.4248C41.3696 80.9959 41.2112 80.7888 40.8789 80.5842C40.5462 80.3754 40.2939 80.3083 39.9533 80.3976C39.6165 80.4823 39.4221 80.6395 39.1921 81.0208C38.9624 81.4063 38.8617 81.7125 38.8125 82.3159C38.7591 82.9197 38.7781 83.3301 38.9339 84.0431C39.0859 84.7606 39.2428 85.193 39.5842 85.8896C39.9256 86.5863 40.1604 86.9397 40.6448 87.5219C41.1249 88.1044 41.4279 88.3626 42.0013 88.7968C42.5708 89.2356 42.9043 89.4061 43.4993 89.6982C44.0942 89.9903 44.4096 90.0986 44.9769 90.2699C45.54 90.4416 45.8637 90.4982 46.3191 90.5561C46.7707 90.6185 46.9513 90.5942 47.238 90.5691C47.5202 90.5402 47.6387 90.4873 47.7386 90.4149C47.8381 90.3382 47.8277 90.2669 47.7405 90.1937C47.6488 90.1168 47.5427 90.1176 47.2892 90.0378C47.0355 89.9538 46.8823 89.9035 46.4689 89.7909C46.0557 89.6826 45.7424 89.6463 45.2179 89.4798C44.6981 89.3171 44.4021 89.2367 43.8562 88.9701C43.3144 88.7031 43.0119 88.5469 42.5012 88.1497C41.9906 87.7525 41.7193 87.5171 41.3034 86.9884C40.8875 86.4597 40.697 86.1279 40.4167 85.4981C40.1364 84.8683 40.0289 84.4656 39.8976 83.8398C39.766 83.2097 39.7653 82.8613 39.7593 82.3563C39.7534 81.8512 39.8047 81.613 39.8724 81.3181C39.9404 81.0275 39.9749 80.9353 40.0984 80.8905C40.2258 80.8411 40.3291 80.9043 40.5017 81.0804C40.6701 81.2568 40.7846 81.3998 40.9439 81.764C41.0994 82.1328 41.1897 82.3883 41.2865 82.9109C41.3828 83.4293 41.4208 83.7659 41.4226 84.3691C41.4286 84.9719 41.409 85.3306 41.3043 85.9303C41.2038 86.5297 41.1126 86.8478 40.9113 87.3626C40.7095 87.8731 40.5784 88.1225 40.2885 88.5005C40.0029 88.8782 39.8292 89.0294 39.4747 89.2516C39.1203 89.4738 38.9223 89.5421 38.5124 89.6162C38.1064 89.6858 37.8856 89.6881 37.4368 89.6084C36.9879 89.5287 36.7433 89.4524 36.2685 89.222C35.7933 88.9874 35.5294 88.8363 35.0705 88.4473C34.6119 88.0626 34.3794 87.8323 33.9753 87.294C33.571 86.7516 33.3709 86.4079 33.0547 85.7558C32.738 85.0994 32.5869 84.6835 32.3849 84.0256C32.1867 83.3631 32.1497 82.9882 32.0606 82.4564C31.9677 81.9292 31.9361 81.6643 31.9317 81.3715C31.9269 81.0745 31.9471 81.0132 32.0338 80.9844C32.1247 80.9552 32.2252 81.0356 32.3821 81.2258C32.5389 81.4161 32.6618 81.5583 32.8181 81.9355C32.9747 82.3169 33.07 82.5805 33.1674 83.1116C33.2653 83.6469 33.3036 83.9877 33.3065 84.6035C33.309 85.2151 33.2852 85.5741 33.1812 86.1823C33.0773 86.7905 32.9869 87.1171 32.7866 87.6445C32.5859 88.1677 32.459 88.4167 32.1829 88.8063C31.903 89.2004 31.742 89.3505 31.3943 89.6018C31.0467 89.8532 30.8456 89.9345 30.4447 90.0631C30.0476 90.1871 29.8256 90.2235 29.4018 90.2351C28.9821 90.2463 28.7469 90.2287 28.3345 90.1288C27.9175 90.0251 27.6944 89.9511 27.3261 89.7242C26.954 89.5018 26.7806 89.3173 26.4858 89.0074C26.1865 88.6937 26.0723 88.4573 25.8303 88.1683C25.5879 87.8751 25.4811 87.723 25.2713 87.5586C25.0615 87.3943 24.9491 87.3234 24.7731 87.3515C24.5971 87.3797 24.5205 87.4756 24.3868 87.6955C24.2489 87.9158 24.2462 88.1285 24.1007 88.4556C23.9555 88.787 23.8854 89.0056 23.6639 89.3394C23.4378 89.6693 23.2885 89.8566 22.9841 90.1169C22.6801 90.3814 22.49 90.4916 22.1469 90.6491C21.8038 90.8066 21.5998 90.8542 21.2639 90.9005C20.9319 90.9423 20.753 90.9367 20.475 90.8676C20.2016 90.8023 20.0639 90.7336 19.8871 90.5579C19.7141 90.3776 19.6394 90.2524 19.5985 89.9798C19.5619 89.7068 19.5886 89.5261 19.6989 89.185C19.8093 88.8439 19.9258 88.6213 20.1546 88.2741C20.3872 87.9223 20.5569 87.7248 20.8548 87.4395C21.1531 87.1585 21.3456 87.0269 21.6451 86.8563C21.9445 86.6856 22.1064 86.6417 22.3476 86.5823C22.5931 86.5226 22.6873 86.5313 22.8555 86.5591C23.024 86.5911 23.0955 86.6316 23.1936 86.7335C23.2876 86.8357 23.3272 86.9002 23.3423 87.0731C23.3575 87.246 23.3544 87.3567 23.2651 87.5982C23.1715 87.8401 23.1254 87.9929 22.8869 88.2772C22.6525 88.5611 22.5002 88.7146 22.0846 89.0144C21.6647 89.3146 21.3986 89.4781 20.796 89.7773C20.193 90.0723 19.8372 90.2309 19.0671 90.5107C18.2967 90.7863 17.833 90.9246 16.9443 91.1596C16.0598 91.3942 15.5478 91.5155 14.6272 91.6768C13.7111 91.8419 13.2115 91.9112 12.3545 91.9734C11.4974 92.0357 11.0467 92.0326 10.3376 91.9885C9.63261 91.9439 9.29249 91.893 8.81206 91.7438C8.332 91.5989 8.14533 91.5048 7.93196 91.2515C7.71402 90.9944 7.68732 90.8353 7.73644 90.4741C7.78593 90.1171 7.90132 89.8818 8.17371 89.4501C8.44572 89.0141 8.67731 88.7474 9.10608 88.3063C9.531 87.8697 9.82271 87.6105 10.3014 87.2542C10.7759 86.8982 11.0416 86.7305 11.4868 86.5258C11.9366 86.325 12.1693 86.3131 12.5328 86.2431C12.8963 86.173 13.0468 86.1938 13.3083 86.171C13.5697 86.1481 13.7193 86.2072 13.8484 86.128C13.9736 86.0533 14.0349 85.9289 13.9422 85.7926Z" fill="black" stroke="black"/>
<path d="M59.3852 82.4263C59.3094 82.2884 59.188 82.1631 58.9117 82.0641C58.6311 81.9654 58.4206 81.8903 57.9944 81.9234C57.5723 81.9561 57.2741 81.9949 56.7881 82.2202C56.2984 82.45 56.0264 82.6437 55.5575 83.0629C55.0882 83.4779 54.8159 83.7651 54.4473 84.3115C54.0791 84.8621 53.8799 85.2067 53.7069 85.8039C53.5344 86.4054 53.4884 86.7536 53.5838 87.3103C53.6832 87.8625 53.8105 88.153 54.1961 88.5781C54.5821 89.0075 54.875 89.1985 55.5172 89.4482C56.1594 89.698 56.5865 89.771 57.4152 89.8217C58.2397 89.8728 58.7334 89.8339 59.652 89.6982C60.5706 89.5626 61.0872 89.4451 62.0083 89.1436C62.9252 88.8424 63.4137 88.6467 64.241 88.1962C65.0687 87.7498 65.4697 87.4768 66.1465 86.9077C66.8232 86.3386 67.139 86.0136 67.6287 85.3461C68.1183 84.6787 68.3147 84.3003 68.5907 83.5709C68.8668 82.8414 68.941 82.427 69.0048 81.6991C69.0685 80.9712 69.0342 80.5791 68.9092 79.9272C68.7884 79.275 68.658 78.9507 68.3842 78.4436C68.1142 77.9318 67.9234 77.6936 67.5524 77.3862C67.1813 77.0787 66.9422 76.9679 66.5247 76.9067C66.103 76.8459 65.85 76.8681 65.4564 77.081C65.0629 77.2939 64.8423 77.4916 64.5571 77.9712C64.272 78.4508 64.1409 78.7979 64.0224 79.4839C63.9036 80.1656 63.8876 80.6131 63.9731 81.3959C64.0586 82.1787 64.1624 82.637 64.4415 83.3986C64.7245 84.1557 64.9377 84.5534 65.3759 85.1906C65.814 85.8278 66.0978 86.1089 66.6362 86.5802C67.1784 87.0468 67.4885 87.2406 68.0796 87.5373C68.6668 87.8386 69.0037 87.9493 69.5838 88.0727C70.1686 88.2 70.4621 88.2041 70.9857 88.1668C71.5135 88.1291 71.7589 88.0693 72.211 87.8938C72.663 87.7183 72.8779 87.6018 73.2457 87.2891C73.6139 86.9807 73.7733 86.7628 74.0426 86.3441C74.3161 85.9251 74.4327 85.6557 74.6044 85.1903C74.7719 84.7252 74.8416 84.4047 74.8839 84.0144C74.9224 83.6286 74.8522 83.4095 74.8048 83.2565C74.7532 83.1038 74.6474 83.1088 74.6294 83.2421C74.6113 83.3754 74.5952 83.5807 74.7144 83.923C74.8332 84.261 74.9426 84.5403 75.2199 84.941C75.5017 85.3454 75.7351 85.5842 76.1144 85.9376C76.498 86.2907 76.7289 86.4532 77.125 86.7075C77.5208 86.9575 77.7378 87.0575 78.1029 87.1997C78.4684 87.3462 78.6717 87.3879 78.9559 87.431C79.2397 87.4699 79.3475 87.4392 79.5224 87.3984C79.7015 87.3572 79.7649 87.305 79.8429 87.2259C79.9256 87.1507 79.9454 87.0852 79.931 87.0185C79.9205 86.9472 79.8279 86.9085 79.7793 86.8873C79.7262 86.8622 79.7341 86.904 79.6782 86.8962C79.6261 86.8837 79.6207 86.8714 79.5078 86.8431C79.3945 86.8105 79.3305 86.8076 79.1157 86.7329C78.8968 86.6586 78.723 86.6143 78.4215 86.4708C78.1196 86.323 77.9263 86.2507 77.6033 86.007C77.2807 85.7676 77.1008 85.6049 76.8034 85.2655C76.5102 84.9257 76.3854 84.6647 76.1287 84.3048C75.8674 83.941 75.7502 83.7176 75.5059 83.4501C75.2615 83.1825 75.1298 83.0368 74.907 82.9671C74.6796 82.8935 74.5584 82.9169 74.3777 83.0857C74.1974 83.2587 74.1339 83.4554 74.0043 83.8194C73.8743 84.1792 73.8703 84.4727 73.737 84.8923C73.5996 85.3122 73.5268 85.548 73.3251 85.9141C73.1273 86.2755 73.0156 86.4553 72.7368 86.7176C72.462 86.9753 72.3 87.066 71.9427 87.2077C71.5851 87.3452 71.3811 87.3928 70.9411 87.4144C70.5053 87.4355 70.2581 87.4274 69.755 87.31C69.2561 87.1922 68.9586 87.095 68.4384 86.8303C67.9223 86.5653 67.6358 86.3992 67.1655 85.9772C66.691 85.5556 66.4477 85.3008 66.0699 84.722C65.6967 84.1471 65.5159 83.7805 65.286 83.0953C65.0518 82.4105 64.977 81.9921 64.9119 81.2968C64.8429 80.606 64.8722 80.2125 64.9482 79.6238C65.0283 79.0347 65.127 78.7541 65.2965 78.3611C65.4703 77.9678 65.5854 77.826 65.809 77.662C66.0326 77.4979 66.1633 77.4865 66.4183 77.5364C66.6737 77.5905 66.8249 77.6665 67.0808 77.9203C67.3363 78.1699 67.4893 78.3647 67.6967 78.7926C67.9087 79.2245 68.0223 79.5035 68.1273 80.0721C68.2281 80.6411 68.2584 80.9869 68.2041 81.629C68.1502 82.2753 68.093 82.6414 67.8524 83.2913C67.6077 83.9416 67.4376 84.2794 66.9926 84.8749C66.5479 85.4747 66.2595 85.7719 65.6289 86.2859C64.9984 86.8 64.6247 87.0451 63.8443 87.4491C63.0677 87.8485 62.5988 88.0255 61.7341 88.2923C60.8695 88.5592 60.3771 88.6618 59.5209 88.7834C58.6648 88.9051 58.2037 88.9285 57.4581 88.9045C56.7082 88.8809 56.3378 88.8241 55.7885 88.6639C55.2387 88.4996 55.0073 88.3797 54.7059 88.0916C54.4084 87.799 54.3324 87.6102 54.2927 87.2058C54.2531 86.8014 54.3195 86.5406 54.5035 86.0699C54.6875 85.5991 54.8701 85.307 55.2078 84.8441C55.5458 84.3853 55.7946 84.1214 56.1886 83.7682C56.5864 83.4105 56.8107 83.2549 57.1938 83.0684C57.5727 82.8823 57.7807 82.8811 58.099 82.8278C58.4214 82.774 58.552 82.8093 58.7889 82.7971C59.0211 82.781 59.157 82.8286 59.2738 82.7547C59.3947 82.6804 59.4568 82.5645 59.3852 82.4263Z" fill="black" stroke="black"/>
<path d="M74.3982 77.6878C74.317 77.7799 74.2395 77.9141 74.252 77.9598C74.2645 78.0054 74.3461 78.0153 74.4564 77.9164C74.5706 77.8129 74.7285 77.5781 74.8109 77.452C74.898 77.3296 74.903 77.291 74.8739 77.2978C74.8405 77.3049 74.7563 77.41 74.661 77.4863C74.5657 77.5627 74.479 77.5915 74.3982 77.6878Z" fill="black" stroke="black"/>
<path d="M84.2407 84.6061C84.3861 84.6656 84.5506 84.6512 84.8332 84.5797C85.1201 84.5079 85.3086 84.4277 85.6625 84.248C86.016 84.0641 86.251 83.933 86.6063 83.6725C86.9659 83.4116 87.1512 83.2467 87.4438 82.9491C87.7403 82.647 87.8918 82.485 88.0726 82.1718C88.2492 81.8589 88.3275 81.6864 88.3431 81.3791C88.3629 81.0714 88.3214 80.8881 88.1544 80.6308C87.9874 80.3735 87.8392 80.2335 87.5086 80.0967C87.1779 79.96 86.9451 79.9208 86.5012 79.9469C86.0574 79.973 85.7778 80.0315 85.289 80.223C84.7959 80.4149 84.4988 80.5641 84.044 80.9013C83.5933 81.2382 83.3415 81.4684 83.0189 81.9088C82.6959 82.3449 82.5452 82.613 82.4298 83.0905C82.3105 83.5726 82.3004 83.8454 82.4295 84.3015C82.5583 84.7533 82.7073 84.9995 83.0831 85.3617C83.4548 85.7243 83.7286 85.8916 84.3007 86.1177C84.869 86.3484 85.2413 86.4263 85.9411 86.5095C86.6448 86.5881 87.0606 86.5815 87.8077 86.5246C88.5586 86.4631 88.9685 86.389 89.6788 86.2036C90.3937 86.0221 90.7602 85.888 91.3731 85.6092C91.9856 85.3262 92.2763 85.152 92.747 84.8007C93.2172 84.4451 93.4283 84.2354 93.7343 83.8475C94.0398 83.4553 94.1642 83.1768 94.2711 82.8445C94.3783 82.5165 94.3135 82.3097 94.2613 82.1995C94.2096 82.0936 94.06 82.1322 94.0069 82.3025C93.9539 82.4729 93.906 82.7023 93.9925 83.0601C94.0749 83.4183 94.1857 83.7145 94.4316 84.0966C94.6817 84.4784 94.8914 84.6895 95.2353 84.978C95.5747 85.2628 95.7762 85.3811 96.1371 85.5237C96.4983 85.6705 96.6883 85.7049 97.0497 85.7073C97.4068 85.71 97.5867 85.6773 97.9362 85.5447C98.2854 85.4079 98.4628 85.2989 98.7967 85.036C99.1306 84.7731 99.2964 84.5801 99.6007 84.2221C99.9008 83.8644 100.05 83.6262 100.314 83.2504C100.575 82.8749 100.704 82.6512 100.916 82.3522C101.131 82.0487 101.21 81.8846 101.38 81.738C101.546 81.596 101.597 81.5873 101.753 81.6289C101.914 81.6742 101.973 81.7626 102.173 81.9575C102.372 82.1483 102.48 82.3088 102.75 82.5868C103.025 82.8602 103.198 83.0447 103.542 83.3333C103.89 83.6215 104.083 83.7831 104.483 84.0285C104.886 84.2694 105.113 84.3897 105.544 84.5475C105.978 84.7049 106.213 84.7736 106.646 84.8122C107.083 84.8547 107.356 84.8223 107.724 84.7476C108.087 84.6776 108.246 84.5957 108.467 84.4531C108.693 84.3144 108.796 84.1779 108.844 84.0505C108.892 83.9231 108.831 83.8477 108.713 83.8113C108.595 83.7791 108.478 83.8531 108.255 83.8768C108.037 83.9045 107.919 83.919 107.61 83.9375C107.306 83.9599 107.082 84.0135 106.726 83.9809C106.371 83.9483 106.189 83.9132 105.833 83.7744C105.481 83.6353 105.292 83.5201 104.958 83.2901C104.619 83.0606 104.461 82.9045 104.148 82.626C103.838 82.3471 103.695 82.16 103.391 81.8976C103.088 81.6353 102.943 81.4907 102.631 81.3141C102.322 81.1414 102.162 81.0619 101.841 81.0348C101.524 81.0031 101.347 81.0228 101.03 81.1781C100.716 81.333 100.561 81.5038 100.269 81.8055C99.9727 82.1119 99.8393 82.336 99.561 82.7002C99.2827 83.0645 99.1413 83.2936 98.8777 83.631C98.6098 83.9689 98.4763 84.1421 98.2302 84.3888C97.9795 84.6317 97.8688 84.7263 97.6335 84.8531C97.3978 84.9757 97.2896 85.0022 97.0559 85.0014C96.8221 85.0006 96.6923 84.9737 96.4555 84.8415C96.2188 84.7093 96.0823 84.6065 95.8721 84.3402C95.6618 84.0739 95.5906 83.8422 95.4039 83.5059C95.2131 83.17 95.1203 82.9359 94.93 82.6551C94.7355 82.3747 94.6292 82.2268 94.4445 82.107C94.2552 81.9834 94.1633 81.9532 93.9925 82.0404C93.8213 82.1233 93.7656 82.2642 93.5934 82.5299C93.4212 82.7957 93.3875 83.0408 93.1273 83.3695C92.863 83.6985 92.7087 83.8778 92.2885 84.1737C91.8724 84.4693 91.6048 84.6159 91.0395 84.8566C90.4781 85.0927 90.1355 85.2076 89.4732 85.3591C88.8151 85.5102 88.4294 85.5694 87.7406 85.6127C87.0564 85.6598 86.6691 85.6512 86.0431 85.587C85.4133 85.5274 85.0885 85.4581 84.6028 85.2967C84.1128 85.1356 83.899 85.0226 83.5978 84.7856C83.2966 84.5485 83.1903 84.4006 83.1004 84.1025C83.0106 83.8045 83.0295 83.6329 83.1495 83.3037C83.269 82.9703 83.4046 82.7715 83.6904 82.4448C83.9804 82.1178 84.2018 81.9285 84.5905 81.6607C84.9793 81.393 85.2368 81.277 85.6389 81.1144C86.0411 80.9517 86.2669 80.9107 86.5974 80.852C86.9241 80.798 87.0693 80.8065 87.28 80.8348C87.4907 80.8631 87.5626 80.9078 87.6512 80.9978C87.7359 81.0923 87.7579 81.1499 87.7157 81.298C87.6776 81.4458 87.6137 81.5406 87.4398 81.7385C87.2663 81.9407 87.1291 82.0717 86.8512 82.2957C86.5692 82.5201 86.3799 82.6386 86.0461 82.8548C85.7086 83.0755 85.476 83.1851 85.1668 83.3906C84.8534 83.5965 84.6974 83.7078 84.4841 83.8922C84.2705 84.0724 84.1495 84.1467 84.1026 84.291C84.0516 84.4357 84.0914 84.5512 84.2407 84.6061Z" fill="black" stroke="black"/>
<path d="M110.026 73.4779C109.956 73.5987 109.938 73.6853 109.959 74.0191C109.975 74.3491 109.979 74.5951 110.116 75.1398C110.254 75.6886 110.389 76.0677 110.636 76.7556C110.883 77.4435 111.056 77.8618 111.357 78.5833C111.662 79.3043 111.832 79.6931 112.149 80.3579C112.462 81.0188 112.634 81.331 112.934 81.8953C113.23 82.46 113.38 82.723 113.642 83.1845C113.903 83.646 114.036 83.8595 114.241 84.2028C114.445 84.5461 114.522 84.7008 114.667 84.9048C114.817 85.1041 114.883 85.1366 114.975 85.2135C115.067 85.2905 115.069 85.2732 115.121 85.2815C115.173 85.2897 115.194 85.2921 115.233 85.2504C115.268 85.2091 115.305 85.1974 115.306 85.0698C115.308 84.9422 115.326 84.8514 115.245 84.6078C115.159 84.3603 115.073 84.2022 114.889 83.8444C114.705 83.4866 114.567 83.2735 114.319 82.8109C114.07 82.3483 113.92 82.0937 113.646 81.5314C113.367 80.9694 113.213 80.6642 112.934 80.0045C112.656 79.3449 112.515 78.9535 112.252 78.233C111.99 77.5124 111.863 77.0859 111.629 76.4052C111.391 75.725 111.278 75.3525 111.076 74.8391C110.878 74.3253 110.792 74.1162 110.635 73.8282C110.482 73.5399 110.434 73.4719 110.313 73.4018C110.187 73.3278 110.096 73.3528 110.026 73.4779Z" fill="black" stroke="black"/>
<path d="M108.792 82.0454C108.944 82.0873 109.05 82.0398 109.428 81.9813C109.805 81.9228 110.06 81.875 110.683 81.7567C111.305 81.6343 111.725 81.5295 112.54 81.3733C113.359 81.2166 113.877 81.1202 114.761 80.9707C115.644 80.8169 116.13 80.7404 116.96 80.6167C117.791 80.4931 118.2 80.4573 118.909 80.3527C119.614 80.2486 120.176 80.2206 120.493 80.1036C120.806 79.987 120.807 79.8594 120.48 79.7606C120.153 79.666 119.58 79.6227 118.857 79.618C118.131 79.6178 117.702 79.6723 116.855 79.7507C116.008 79.8291 115.517 79.8976 114.614 80.0191C113.715 80.136 113.18 80.1955 112.348 80.3491C111.512 80.5072 111.075 80.605 110.446 80.796C109.817 80.987 109.551 81.1122 109.199 81.3045C108.841 81.4972 108.746 81.6161 108.665 81.7634C108.584 81.9106 108.639 81.9993 108.792 82.0454Z" fill="black" stroke="black"/>
<path d="M32.8525 100.685C32.7302 100.793 32.6755 100.896 32.5432 101.277C32.4154 101.662 32.3114 101.93 32.2007 102.607C32.0942 103.283 32.0572 103.784 31.9934 104.656C31.9295 105.528 31.9131 106.069 31.8817 106.973C31.8461 107.877 31.8299 108.371 31.828 109.174C31.8306 109.981 31.8477 110.371 31.8897 110.996C31.927 111.617 31.9422 111.888 32.0328 112.292C32.1188 112.692 32.1903 112.877 32.3286 113.001C32.4715 113.129 32.6093 113.151 32.7297 112.924C32.8458 112.697 32.9039 112.488 32.9313 111.878C32.9583 111.264 32.9169 110.791 32.8695 109.861C32.822 108.93 32.7487 108.286 32.6948 107.233C32.6405 106.176 32.6211 105.566 32.603 104.581C32.5848 103.597 32.5884 103.104 32.6079 102.308C32.632 101.515 32.6608 101.165 32.7144 100.612C32.768 100.059 32.8086 99.843 32.8843 99.5432C32.9639 99.2388 32.9807 99.1396 33.1011 99.1078C33.2258 99.0756 33.252 99.1328 33.4984 99.3747C33.7448 99.6166 33.9123 99.8313 34.3329 100.317C34.7574 100.798 35.0632 101.137 35.609 101.79C36.151 102.448 36.475 102.849 37.0538 103.589C37.6369 104.328 37.9585 104.75 38.5117 105.488C39.0603 106.221 39.3441 106.6 39.8151 107.273C40.29 107.941 40.5015 108.271 40.8702 108.842C41.243 109.413 41.3937 109.727 41.6752 110.127C41.9609 110.527 42.1115 110.645 42.2898 110.838C42.4639 111.031 42.4791 111.059 42.5633 111.099C42.6513 111.133 42.6889 111.126 42.7145 111.03C42.7355 110.931 42.7641 110.869 42.6818 110.608C42.5999 110.352 42.53 110.184 42.3004 109.745C42.0708 109.306 41.9001 109.007 41.5426 108.418C41.1809 107.829 40.9606 107.496 40.4965 106.805C40.0321 106.111 39.7602 105.723 39.2266 104.966C38.6885 104.206 38.3791 103.779 37.8149 103.012C37.2507 102.246 36.954 101.817 36.3976 101.139C35.8453 100.461 35.5462 100.1 35.0419 99.6305C34.5377 99.1605 34.2915 98.9696 33.8759 98.785C33.465 98.6043 33.2734 98.5998 32.9687 98.7115C32.6679 98.8185 32.5494 98.9691 32.3601 99.3298C32.1661 99.6867 32.1273 99.9238 32.0173 100.511C31.9115 101.098 31.8789 101.454 31.814 102.267C31.7492 103.08 31.7292 103.579 31.6974 104.576C31.6661 105.577 31.656 106.19 31.6604 107.26C31.6649 108.33 31.6588 108.989 31.7196 109.927C31.7805 110.865 31.8436 111.344 31.96 111.946C32.0722 112.548 32.1651 112.735 32.2973 112.936C32.4293 113.133 32.5314 113.085 32.6169 112.946C32.7021 112.803 32.7069 112.615 32.7148 112.22C32.7226 111.824 32.6622 111.57 32.6562 110.967C32.6498 110.36 32.6507 109.982 32.6878 109.193C32.7253 108.407 32.7718 107.919 32.8426 107.029C32.9131 106.135 32.9769 105.602 33.0503 104.742C33.1234 103.877 33.1699 103.389 33.2089 102.718C33.2434 102.044 33.2542 101.78 33.241 101.386C33.2316 100.987 33.2262 100.877 33.1501 100.735C33.0739 100.593 32.9747 100.576 32.8525 100.685Z" fill="black" stroke="black"/>
<path d="M30.8628 108.876C30.963 108.953 31.0174 108.944 31.3044 108.969C31.5959 108.999 31.7813 109.03 32.3151 109.013C32.8448 108.996 33.2036 108.969 33.9703 108.893C34.7373 108.822 35.2426 108.769 36.1455 108.648C37.0526 108.526 37.5682 108.447 38.4977 108.289C39.4271 108.131 39.9199 108.033 40.8053 107.858C41.6869 107.687 42.1252 107.598 42.9217 107.426C43.7143 107.259 44.1031 107.187 44.7717 107.009C45.4402 106.832 45.797 106.732 46.2644 106.538C46.7322 106.349 46.8755 106.239 47.1144 106.056C47.3534 105.874 47.4182 105.741 47.4589 105.622C47.5034 105.5 47.4441 105.454 47.3337 105.455C47.2192 105.456 47.1506 105.547 46.8898 105.625C46.6293 105.708 46.4951 105.728 46.0341 105.849C45.5688 105.971 45.2297 106.077 44.5762 106.232C43.9185 106.387 43.5392 106.471 42.7542 106.629C41.9693 106.787 41.5302 106.868 40.6514 107.021C39.7679 107.171 39.2829 107.26 38.3593 107.388C37.4361 107.519 36.9266 107.572 36.0299 107.668C35.1333 107.763 34.6293 107.782 33.8668 107.857C33.109 107.936 32.7544 107.963 32.2222 108.048C31.6904 108.137 31.4956 108.192 31.2116 108.298C30.9281 108.407 30.8661 108.477 30.7956 108.593C30.7293 108.71 30.7627 108.8 30.8628 108.876Z" fill="black" stroke="black"/>
<path d="M53.1322 99.7597C53.0184 99.6251 52.8549 99.5035 52.4949 99.4203C52.1353 99.3413 51.8687 99.3051 51.3332 99.352C50.8023 99.4027 50.4246 99.457 49.8262 99.6581C49.2277 99.8592 48.8864 100.038 48.3369 100.362C47.7874 100.686 47.4822 100.887 47.0827 101.275C46.6878 101.666 46.4947 101.887 46.3492 102.312C46.204 102.741 46.1959 102.988 46.3555 103.403C46.5192 103.818 46.699 104.028 47.1557 104.391C47.6163 104.75 47.9526 104.904 48.6418 105.205C49.3313 105.51 49.7888 105.64 50.6026 105.908C51.4164 106.177 51.9111 106.295 52.7108 106.548C53.5066 106.805 53.9427 106.933 54.5937 107.186C55.2489 107.439 55.5665 107.573 55.9784 107.813C56.3945 108.053 56.5398 108.159 56.6659 108.386C56.7877 108.613 56.7579 108.709 56.5919 108.949C56.4298 109.184 56.2619 109.305 55.8514 109.566C55.437 109.832 55.1322 109.99 54.5277 110.268C53.9236 110.551 53.5302 110.717 52.8254 110.965C52.1202 111.21 51.7063 111.335 51.0072 111.503C50.3119 111.665 49.9269 111.733 49.3496 111.788C48.7681 111.843 48.4914 111.837 48.1126 111.781C47.7384 111.729 47.6064 111.677 47.469 111.515C47.3315 111.353 47.3399 111.254 47.4302 110.974C47.525 110.698 47.6367 110.519 47.9377 110.123C48.2433 109.73 48.4637 109.482 48.9532 109.006C49.438 108.525 49.7578 108.247 50.3753 107.73C50.9975 107.216 51.3686 106.942 52.046 106.428C52.7194 105.918 53.1043 105.655 53.7585 105.169C54.4173 104.686 54.757 104.44 55.3221 104.004C55.8877 103.572 56.1455 103.362 56.582 103.01C57.0186 102.657 57.208 102.492 57.5012 102.25C57.7902 102.008 57.891 101.897 58.035 101.795C58.1833 101.693 58.1581 101.648 58.226 101.744C58.2985 101.844 58.2667 101.966 58.384 102.287C58.5013 102.608 58.5878 102.868 58.8127 103.35C59.0376 103.832 59.1967 104.145 59.5132 104.703C59.8298 105.262 60.0341 105.605 60.3998 106.143C60.7658 106.684 60.9776 106.967 61.3513 107.402C61.7207 107.837 61.9125 108.037 62.2514 108.318C62.5908 108.602 62.754 108.72 63.0514 108.817C63.353 108.914 63.5162 108.933 63.7516 108.807C63.9827 108.68 64.1146 108.537 64.2196 108.184C64.3289 107.83 64.3298 107.549 64.2852 107.039C64.2451 106.533 64.1527 106.205 64.0013 105.641C63.8545 105.08 63.7361 104.746 63.5427 104.236C63.3494 103.726 63.2288 103.465 63.0427 103.086C62.852 102.703 62.7575 102.546 62.5949 102.339C62.4366 102.132 62.3467 102.076 62.2384 102.052C62.1296 102.023 62.0547 102.089 62.052 102.204C62.0497 102.323 62.065 102.449 62.2303 102.639C62.3956 102.828 62.5496 102.938 62.8788 103.156C63.2077 103.369 63.4342 103.481 63.8717 103.723C64.3093 103.965 64.5817 104.115 65.0706 104.362C65.5599 104.612 65.83 104.737 66.309 104.967C66.788 105.197 67.0275 105.312 67.4656 105.512C67.9038 105.711 68.1337 105.814 68.4961 105.974C68.8623 106.129 69.0253 106.195 69.2886 106.291C69.5562 106.387 69.6614 106.424 69.8254 106.452C69.9851 106.481 70.0127 106.457 70.1044 106.436C70.1999 106.411 70.2153 106.393 70.2956 106.339C70.3797 106.281 70.4887 106.216 70.5127 106.15C70.5412 106.088 70.5515 106.011 70.4373 106.016C70.3231 106.022 70.0483 106.135 69.9458 106.178C69.8434 106.221 69.8909 106.23 69.9292 106.231C69.9633 106.232 70.0757 106.205 70.129 106.184C70.182 106.158 70.2034 106.16 70.1863 106.111C70.1735 106.061 70.1705 106.027 70.0517 105.931C69.9328 105.835 69.8338 105.772 69.5882 105.636C69.3469 105.5 69.1831 105.425 68.8323 105.252C68.4769 105.075 68.2554 104.971 67.8288 104.758C67.4022 104.544 67.1669 104.429 66.7037 104.185C66.2443 103.936 65.9857 103.797 65.5206 103.532C65.0551 103.263 64.7996 103.111 64.3817 102.85C63.9683 102.593 63.7803 102.435 63.4445 102.239C63.1045 102.044 62.9512 101.943 62.6946 101.876C62.4381 101.809 62.3135 101.841 62.1615 101.901C62.0099 101.965 61.9613 102.042 61.9317 102.189C61.9067 102.34 61.9418 102.401 62.0138 102.641C62.0904 102.885 62.1742 103.018 62.3009 103.397C62.4272 103.773 62.5176 104.028 62.6547 104.526C62.7917 105.024 62.868 105.362 62.9911 105.895C63.1143 106.428 63.1718 106.746 63.2703 107.192C63.3642 107.634 63.4225 107.862 63.4787 108.117C63.5353 108.375 63.5742 108.431 63.5434 108.468C63.513 108.509 63.4734 108.444 63.3167 108.305C63.1643 108.165 63.0279 108.063 62.7648 107.776C62.506 107.488 62.3284 107.304 62.0106 106.877C61.6928 106.45 61.5068 106.169 61.184 105.636C60.8616 105.108 60.6876 104.771 60.3971 104.218C60.1027 103.67 59.9861 103.358 59.7282 102.887C59.4704 102.417 59.3597 102.172 59.1078 101.867C58.8597 101.557 58.7363 101.457 58.4845 101.348C58.2285 101.238 58.1235 101.252 57.845 101.323C57.5704 101.389 57.4421 101.477 57.0958 101.694C56.7532 101.907 56.5725 102.076 56.1169 102.405C55.6659 102.737 55.4116 102.938 54.8357 103.35C54.2645 103.765 53.9196 103.999 53.2554 104.469C52.5871 104.94 52.2015 105.195 51.5023 105.702C50.807 106.205 50.4225 106.472 49.7758 106.996C49.1291 107.52 48.7791 107.793 48.2645 108.322C47.7496 108.847 47.4977 109.124 47.2024 109.635C46.9068 110.141 46.8124 110.421 46.7787 110.861C46.7496 111.306 46.8159 111.529 47.0517 111.844C47.2829 112.156 47.4852 112.282 47.9533 112.437C48.4211 112.587 48.7421 112.614 49.3913 112.604C50.0402 112.59 50.4511 112.528 51.1989 112.382C51.9466 112.236 52.3824 112.117 53.1343 111.873C53.882 111.629 54.3064 111.477 54.9536 111.153C55.605 110.828 55.9367 110.638 56.3744 110.251C56.8122 109.864 56.9874 109.632 57.1421 109.215C57.301 108.798 57.3063 108.568 57.1525 108.169C57.0032 107.774 56.8253 107.586 56.3823 107.234C55.9351 106.882 55.5984 106.724 54.9254 106.414C54.2478 106.099 53.8107 105.959 53.008 105.672C52.2054 105.386 51.713 105.246 50.9161 104.976C50.1188 104.701 49.6732 104.562 49.0134 104.305C48.354 104.053 48.0382 103.94 47.6182 103.705C47.1944 103.474 47.0415 103.377 46.907 103.151C46.7679 102.921 46.7881 102.813 46.9319 102.563C47.0757 102.312 47.2505 102.174 47.6216 101.899C47.9924 101.62 48.2869 101.441 48.7867 101.181C49.2911 100.924 49.6062 100.786 50.1391 100.612C50.6766 100.442 51.0051 100.409 51.469 100.322C51.9327 100.23 52.1389 100.208 52.4579 100.163C52.7769 100.118 52.9258 100.169 53.0632 100.089C53.1965 100.009 53.2459 99.8942 53.1322 99.7597Z" fill="black" stroke="black"/>
<path d="M70.3394 101.304C70.4182 101.332 70.3932 101.24 70.428 101.25C70.4629 101.26 70.4295 101.267 70.5139 101.357C70.5979 101.443 70.6687 101.475 70.8404 101.69C71.0167 101.908 71.1483 102.1 71.3909 102.445C71.6334 102.789 71.7978 103.017 72.0529 103.406C72.3083 103.8 72.4456 104.009 72.675 104.397C72.9043 104.785 73.0075 104.993 73.1956 105.346C73.3792 105.695 73.4674 105.879 73.6014 106.147C73.7315 106.421 73.7763 106.544 73.854 106.703C73.932 106.866 73.9491 106.916 73.9865 106.955C74.0197 106.994 74.0519 106.975 74.0327 106.9C74.0137 106.829 73.9952 106.763 73.8866 106.59C73.7783 106.421 73.6756 106.315 73.4868 106.051C73.3022 105.787 73.1521 105.626 72.9517 105.278C72.7555 104.93 72.6306 104.715 72.4894 104.316C72.352 103.911 72.2731 103.689 72.2538 103.274C72.2345 102.859 72.2406 102.638 72.3925 102.238C72.5449 101.842 72.6628 101.636 73.0104 101.287C73.3622 100.938 73.6019 100.764 74.1344 100.488C74.6672 100.216 75.0175 100.092 75.6822 99.9191C76.3426 99.7466 76.7494 99.6855 77.4536 99.6239C78.1574 99.558 78.5532 99.5659 79.2022 99.6025C79.8471 99.6396 80.1841 99.7036 80.6868 99.8168C81.1892 99.9258 81.4178 100.012 81.7105 100.152C81.9989 100.293 82.0899 100.361 82.1461 100.518C82.2023 100.674 82.1576 100.746 81.9914 100.935C81.8214 101.128 81.6562 101.232 81.3033 101.471C80.9503 101.71 80.6907 101.852 80.2223 102.131C79.7535 102.405 79.4494 102.572 78.9514 102.854C78.4531 103.131 78.1541 103.259 77.7313 103.526C77.3127 103.792 77.1141 103.949 76.8539 104.18C76.5936 104.411 76.4905 104.543 76.4352 104.688C76.3795 104.829 76.4272 104.889 76.5763 104.893C76.7211 104.897 76.8594 104.825 77.1759 104.704C77.4883 104.583 77.7009 104.488 78.1465 104.288C78.5917 104.083 78.8818 103.952 79.3985 103.69C79.9155 103.432 80.238 103.281 80.7302 102.983C81.2264 102.68 81.5105 102.528 81.8757 102.186C82.2451 101.843 82.4224 101.636 82.5735 101.275C82.7242 100.909 82.7437 100.695 82.6379 100.36C82.5363 100.025 82.4069 99.8574 82.0572 99.5991C81.707 99.3366 81.4464 99.2234 80.8875 99.0514C80.329 98.8836 79.9659 98.8134 79.2679 98.7513C78.5654 98.6853 78.1435 98.6712 77.3796 98.7296C76.6156 98.7879 76.1786 98.8432 75.4483 99.0431C74.7176 99.2387 74.3262 99.3792 73.7223 99.7125C73.1146 100.05 72.8318 100.266 72.4164 100.715C72.0011 101.163 71.8464 101.436 71.6493 101.95C71.4479 102.465 71.427 102.76 71.4222 103.287C71.4173 103.815 71.4923 104.089 71.6243 104.578C71.7564 105.068 71.8763 105.321 72.0872 105.74C72.2938 106.16 72.4311 106.369 72.6742 106.67C72.9219 106.976 73.0655 107.112 73.3198 107.251C73.5704 107.395 73.7336 107.415 73.9475 107.383C74.1572 107.352 74.2683 107.262 74.3815 107.099C74.4905 106.936 74.5097 106.816 74.4963 106.566C74.483 106.317 74.4317 106.168 74.319 105.851C74.2063 105.534 74.1095 105.351 73.9322 104.975C73.7591 104.6 73.6476 104.393 73.437 103.978C73.2269 103.567 73.1173 103.334 72.8804 102.909C72.6431 102.479 72.5187 102.223 72.2471 101.839C71.9759 101.459 71.8123 101.239 71.5279 101.001C71.2391 100.758 71.0764 100.696 70.8122 100.638C70.5437 100.581 70.3516 100.619 70.19 100.714C70.0329 100.813 69.9855 101 70.0127 101.116C70.0445 101.237 70.2563 101.278 70.3394 101.304Z" fill="black" stroke="black"/>
<path d="M88.8907 95.8895C88.8291 95.9747 88.8022 96.0891 88.7825 96.3317C88.7628 96.5742 88.7845 96.7373 88.7922 97.1016C88.7992 97.4659 88.8046 97.711 88.8191 98.1525C88.8343 98.5946 88.8485 98.8489 88.8654 99.3103C88.8823 99.7717 88.8903 100.017 88.9036 100.46C88.9169 100.903 88.9201 101.124 88.9313 101.527C88.9418 101.931 88.9457 102.129 88.9567 102.477C88.9678 102.826 88.9764 103.009 88.9852 103.27C88.9932 103.531 88.9785 103.623 88.9986 103.783C89.0193 103.943 89.054 103.987 89.086 104.069C89.1174 104.152 89.1223 104.17 89.1573 104.195C89.1924 104.22 89.2268 104.221 89.2612 104.194C89.2956 104.165 89.3071 104.143 89.329 104.056C89.3508 103.968 89.3752 103.917 89.3704 103.755C89.3656 103.593 89.3351 103.504 89.3044 103.245C89.273 102.987 89.2446 102.808 89.2151 102.463C89.1855 102.117 89.1763 101.92 89.1573 101.519C89.1375 101.117 89.1323 100.896 89.1191 100.453C89.1051 100.011 89.0977 99.765 89.0883 99.3042C89.0788 98.8435 89.072 98.5892 89.073 98.1484C89.0734 97.7083 89.0814 97.4634 89.0922 97.1029C89.1022 96.7424 89.126 96.5847 89.1251 96.3453C89.125 96.1058 89.1356 95.9969 89.0887 95.9057C89.0418 95.8146 88.9517 95.8043 88.8907 95.8895Z" fill="black" stroke="black"/>
<path d="M89.6187 106.746C89.5587 106.764 89.5153 106.875 89.547 106.93C89.5786 106.985 89.7162 107.039 89.777 107.02C89.837 107.002 89.8804 106.891 89.8494 106.836C89.8177 106.781 89.6795 106.727 89.6187 106.746Z" fill="black" stroke="black"/>
<path d="M92.4922 95.4502C92.4334 95.5452 92.4165 95.6809 92.401 95.9405C92.3855 96.2008 92.4028 96.3677 92.4134 96.7491C92.4246 97.1305 92.4353 97.3912 92.4564 97.8469C92.4775 98.3026 92.4949 98.5627 92.5195 99.0274C92.5435 99.4929 92.5544 99.7328 92.5762 100.174C92.5979 100.614 92.6084 100.833 92.6284 101.23C92.6483 101.626 92.6536 101.817 92.6766 102.156C92.7002 102.495 92.7082 102.671 92.745 102.923C92.7811 103.174 92.8033 103.32 92.8599 103.415C92.9164 103.509 92.9941 103.5 93.0279 103.396C93.0617 103.291 93.0455 103.145 93.0281 102.893C93.0101 102.64 92.9729 102.469 92.9389 102.134C92.9042 101.799 92.8857 101.61 92.8559 101.215C92.8261 100.821 92.8136 100.602 92.7899 100.162C92.7669 99.7229 92.7559 99.4824 92.738 99.0177C92.7202 98.553 92.7095 98.2937 92.7013 97.8395C92.6937 97.3847 92.6944 97.1244 92.6982 96.7463C92.7028 96.3689 92.7228 96.2068 92.7224 95.9499C92.7215 95.6938 92.7416 95.5632 92.6959 95.4632C92.6496 95.3633 92.5516 95.3544 92.4922 95.4502Z" fill="black" stroke="black"/>
<path d="M93.6469 106.154C93.5608 106.181 93.497 106.257 93.4555 106.342C93.414 106.428 93.4225 106.495 93.4394 106.58C93.4555 106.665 93.48 106.722 93.5369 106.767C93.5939 106.812 93.6539 106.823 93.7241 106.806C93.7937 106.788 93.8352 106.749 93.8862 106.68C93.9373 106.612 93.9788 106.558 93.9792 106.463C93.979 106.368 93.9522 106.269 93.8857 106.207C93.8193 106.145 93.7331 106.127 93.6469 106.154Z" fill="black" stroke="black"/>
<path d="M96.5794 95.0306C96.4886 95.1393 96.4566 95.2891 96.4269 95.5804C96.3971 95.871 96.4273 96.0661 96.4307 96.4841C96.4332 96.9022 96.4307 97.1827 96.4433 97.6704C96.4559 98.1588 96.4737 98.4308 96.4929 98.9247C96.512 99.4186 96.5243 99.6736 96.539 100.139C96.5546 100.604 96.5562 100.875 96.5701 101.252C96.5841 101.629 96.5719 101.777 96.6088 102.026C96.6457 102.276 96.6804 102.408 96.7546 102.5C96.8297 102.59 96.9223 102.582 96.9805 102.48C97.0378 102.378 97.045 102.242 97.0441 101.991C97.0421 101.739 97.0037 101.598 96.9729 101.223C96.9421 100.849 96.9186 100.58 96.8911 100.117C96.8646 99.6537 96.8502 99.3981 96.8372 98.9051C96.8242 98.413 96.8195 98.1414 96.8271 97.655C96.8336 97.1679 96.8533 96.8881 96.8711 96.4728C96.8898 96.0567 96.9171 95.8641 96.9191 95.5775C96.9211 95.2902 96.9496 95.1467 96.8819 95.0375C96.8132 94.9283 96.6702 94.9219 96.5794 95.0306Z" fill="black" stroke="black"/>
<path d="M97.5123 106.207C97.4232 106.243 97.3688 106.39 97.4214 106.452C97.474 106.514 97.686 106.552 97.776 106.516C97.8652 106.48 97.9195 106.333 97.867 106.271C97.8144 106.209 97.6024 106.171 97.5123 106.207Z" fill="black" stroke="black"/>
</svg>
